M48
;Layer_Color=9474304
;FILE_FORMAT=2:5
INCH,TZ
;TYPE=PLATED
T1F00S00C0.01500
T2F00S00C0.02800
T3F00S00C0.03150
T4F00S00C0.03937
T5F00S00C0.04331
T6F00S00C0.04528
T7F00S00C0.05039
T8F00S00C0.05315
T10F00S00C0.13780
T11F00S00C0.17716
T12F00S00C0.24409
;TYPE=NON_PLATED
T13F00S00C0.12598
T14F00S00C0.23622
T15F00S00C0.27559
%
T01
X575591Y48425
X644685Y51181
Y45276
X700787Y62008
X664370Y81693
X636732Y80630
X644685Y59055
X605905Y61535
Y66535
X598032
X593386Y107402
X585300Y107000
X580984Y119803
X584200Y154100
X593386Y154646
X580984Y167047
X584200Y201100
X588583Y201772
X595472
X586614Y208661
X529000Y208700
X537700Y196063
X636732Y175118
Y127874
X525400Y199900
X521300Y202000
X524800Y208600
X514468Y207972
X509350
X504232
X506791Y221358
X511100Y222400
X516000Y222100
X522000Y222500
X525591Y240158
X518701Y248031
X521654Y255906
X501968Y283465
X499016Y287402
X531496Y263779
X529527Y232283
X527200Y223100
X580984Y214291
X607283Y214567
X607283Y227362
X607283Y235236
X616378Y236968
X612205Y242126
X633858Y237205
X631890Y251969
X629921Y266968
X637795
X624016Y273622
X661417Y271654
X670276Y277559
X673228Y299213
X665354
X655512Y303150
X653543Y293307
X651417Y313150
X637795Y318150
X629921
X633858Y326772
X661417Y322835
X653543Y253937
X651575Y242126
X638779Y223425
Y216535
X693898Y252953
X687992Y258858
X692913Y277559
X696850Y326772
X708661
X728346Y330709
Y346457
X728346Y357283
Y366142
X728346Y314961
Y299213
X728346Y381890
Y397638
Y413386
X708661Y377953
X692913
T02
X303150Y7874
X313976
X324803
X334646
X303150Y88583
X295276
X287402
X279528
X271654
X263779
X255906
X248031
X240158
X232283
X224410
X216535
Y96457
Y104331
X224410
X232283
Y96457
X224410
Y112205
Y120079
X232283
Y112205
X240158
Y120079
X248031
Y112205
Y104331
X240158
Y96457
X248031
X255906
Y104331
X263779
Y96457
X271654
Y104331
X279528
Y96457
X287402
Y104331
X295276
Y96457
X303150
Y104331
Y112205
Y120079
X295276
Y112205
X287402
Y120079
X279528
X271654
Y112205
X279528
Y127953
Y135827
X271654
Y127953
X263779
Y135827
X255906
Y127953
Y120079
X263779
Y112205
X255906
X248031Y127953
Y135827
X240158
Y127953
X232283
Y135827
X224410
Y127953
X216535
Y135827
Y143701
X224410
X232283
X240158
X248031
X255906
X263779
X271654
X279528
X287402
X295276
X303150
Y135827
Y127953
X295276
Y135827
X287402
Y127953
X216535Y120079
Y112205
X334646Y185039
X342520
X350394
X208661Y143701
X200787
Y135827
Y127953
Y120079
Y112205
Y104331
Y96457
Y88583
X208661
Y96457
Y104331
Y112205
Y120079
Y127953
Y135827
X153543Y185039
X145669
X137795
X456693Y240158
X484252
X570866Y366142
X590551Y358268
X610236
X716535Y242126
X722900Y242200
X729100Y242126
X735600
X742600Y242100
X551181Y389764
X531496Y409449
X511811Y425197
X492126Y445866
X452756Y448819
X421260
X377461Y463583
X337598Y452756
T03
X409449Y139764
Y153543
X364173Y78740
X350394
X334646Y224410
X320866
X346457Y413386
Y427165
T04
X346457Y247716
Y257716
Y267717
Y277716
T05
X592362Y23622
X602362
X612362
X687913Y46732
X697913
Y56732
X687913
X732283Y51181
Y61181
Y71181
Y94488
Y104488
Y129921
Y139921
Y165354
Y175354
X697913Y176732
Y166732
Y156732
Y146732
Y136732
Y126732
Y116732
Y106732
Y96732
Y86732
Y76732
Y66732
X687913
Y76732
Y86732
Y96732
Y106732
Y116732
Y126732
Y136732
Y146732
Y156732
Y166732
Y176732
Y186732
X697913
Y196732
X687913
Y206732
X697913
X665748Y185039
Y137795
Y90551
X610236
Y137795
Y185039
X540000Y173228
X530000
X520000
X510000
X500000
X490000
X480000
X519685Y112677
Y102677
Y92677
Y82677
Y72677
Y62677
X449685Y72677
Y82677
Y92677
Y102677
X460630Y297087
Y307087
Y317087
X476378
Y307087
Y297087
X492126
Y307087
Y317087
X507874
Y307087
Y297087
X523622
Y307087
Y317087
X539370
Y307087
Y297087
X555118
Y307087
Y317087
X570866
Y307087
Y297087
X687913Y236732
Y226732
Y216732
X697913
Y226732
Y236732
X775591Y257716
Y267717
Y277716
X748032Y303150
Y312992
Y322835
Y332677
Y342520
X748032Y370079
Y379921
Y389764
Y399606
Y409449
X377953Y397638
Y387638
Y438819
Y448819
T06
X732283Y200787
Y210787
Y220787
Y230787
T07
X629606Y102362
X639606
X649606
Y149606
X639606
X629606
Y196850
X639606
X649606
T08
X351220Y29528
X361221
X371220
T10
X19685Y19685
X767717
X393701Y275590
X19685Y531496
X767717
T11
X314961Y27559
Y55119
X311024Y318897
Y346457
X366142
Y318897
X255906Y318898
Y346458
X421260
Y318898
Y492125
Y519685
X366142
Y492125
X311024Y492126
Y519686
X255906
Y492126
T12
X700787Y448126
Y492126
X757874
Y448126
T13
X409449Y27559
X748032
X409449Y255906
X748032
T14
X145669Y15748
Y275590
T15
X124016Y311024
Y527559
M30
