G04 Layer_Color=8388736*
%FSLAX25Y25*%
%MOIN*%
G70*
G01*
G75*
G04:AMPARAMS|DCode=60|XSize=38.47mil|YSize=42.4mil|CornerRadius=6.68mil|HoleSize=0mil|Usage=FLASHONLY|Rotation=0.000|XOffset=0mil|YOffset=0mil|HoleType=Round|Shape=RoundedRectangle|*
%AMROUNDEDRECTD60*
21,1,0.03847,0.02904,0,0,0.0*
21,1,0.02510,0.04240,0,0,0.0*
1,1,0.01337,0.01255,-0.01452*
1,1,0.01337,-0.01255,-0.01452*
1,1,0.01337,-0.01255,0.01452*
1,1,0.01337,0.01255,0.01452*
%
%ADD60ROUNDEDRECTD60*%
G04:AMPARAMS|DCode=61|XSize=76.9mil|YSize=57.21mil|CornerRadius=16.3mil|HoleSize=0mil|Usage=FLASHONLY|Rotation=90.000|XOffset=0mil|YOffset=0mil|HoleType=Round|Shape=RoundedRectangle|*
%AMROUNDEDRECTD61*
21,1,0.07690,0.02461,0,0,90.0*
21,1,0.04429,0.05721,0,0,90.0*
1,1,0.03261,0.01230,0.02215*
1,1,0.03261,0.01230,-0.02215*
1,1,0.03261,-0.01230,-0.02215*
1,1,0.03261,-0.01230,0.02215*
%
%ADD61ROUNDEDRECTD61*%
G04:AMPARAMS|DCode=62|XSize=46.34mil|YSize=60.12mil|CornerRadius=7.67mil|HoleSize=0mil|Usage=FLASHONLY|Rotation=180.000|XOffset=0mil|YOffset=0mil|HoleType=Round|Shape=RoundedRectangle|*
%AMROUNDEDRECTD62*
21,1,0.04634,0.04478,0,0,180.0*
21,1,0.03100,0.06012,0,0,180.0*
1,1,0.01534,-0.01550,0.02239*
1,1,0.01534,0.01550,0.02239*
1,1,0.01534,0.01550,-0.02239*
1,1,0.01534,-0.01550,-0.02239*
%
%ADD62ROUNDEDRECTD62*%
G04:AMPARAMS|DCode=63|XSize=38.47mil|YSize=42.4mil|CornerRadius=6.68mil|HoleSize=0mil|Usage=FLASHONLY|Rotation=90.000|XOffset=0mil|YOffset=0mil|HoleType=Round|Shape=RoundedRectangle|*
%AMROUNDEDRECTD63*
21,1,0.03847,0.02904,0,0,90.0*
21,1,0.02510,0.04240,0,0,90.0*
1,1,0.01337,0.01452,0.01255*
1,1,0.01337,0.01452,-0.01255*
1,1,0.01337,-0.01452,-0.01255*
1,1,0.01337,-0.01452,0.01255*
%
%ADD63ROUNDEDRECTD63*%
G04:AMPARAMS|DCode=64|XSize=44.37mil|YSize=60.12mil|CornerRadius=8.4mil|HoleSize=0mil|Usage=FLASHONLY|Rotation=90.000|XOffset=0mil|YOffset=0mil|HoleType=Round|Shape=RoundedRectangle|*
%AMROUNDEDRECTD64*
21,1,0.04437,0.04331,0,0,90.0*
21,1,0.02756,0.06012,0,0,90.0*
1,1,0.01681,0.02165,0.01378*
1,1,0.01681,0.02165,-0.01378*
1,1,0.01681,-0.02165,-0.01378*
1,1,0.01681,-0.02165,0.01378*
%
%ADD64ROUNDEDRECTD64*%
G04:AMPARAMS|DCode=65|XSize=40.43mil|YSize=42.4mil|CornerRadius=6.93mil|HoleSize=0mil|Usage=FLASHONLY|Rotation=270.000|XOffset=0mil|YOffset=0mil|HoleType=Round|Shape=RoundedRectangle|*
%AMROUNDEDRECTD65*
21,1,0.04043,0.02854,0,0,270.0*
21,1,0.02657,0.04240,0,0,270.0*
1,1,0.01386,-0.01427,-0.01329*
1,1,0.01386,-0.01427,0.01329*
1,1,0.01386,0.01427,0.01329*
1,1,0.01386,0.01427,-0.01329*
%
%ADD65ROUNDEDRECTD65*%
G04:AMPARAMS|DCode=66|XSize=23.75mil|YSize=41.47mil|CornerRadius=7.94mil|HoleSize=0mil|Usage=FLASHONLY|Rotation=0.000|XOffset=0mil|YOffset=0mil|HoleType=Round|Shape=RoundedRectangle|*
%AMROUNDEDRECTD66*
21,1,0.02375,0.02559,0,0,0.0*
21,1,0.00787,0.04147,0,0,0.0*
1,1,0.01587,0.00394,-0.01279*
1,1,0.01587,-0.00394,-0.01279*
1,1,0.01587,-0.00394,0.01279*
1,1,0.01587,0.00394,0.01279*
%
%ADD66ROUNDEDRECTD66*%
G04:AMPARAMS|DCode=67|XSize=67.06mil|YSize=33.59mil|CornerRadius=10.4mil|HoleSize=0mil|Usage=FLASHONLY|Rotation=180.000|XOffset=0mil|YOffset=0mil|HoleType=Round|Shape=RoundedRectangle|*
%AMROUNDEDRECTD67*
21,1,0.06706,0.01279,0,0,180.0*
21,1,0.04626,0.03359,0,0,180.0*
1,1,0.02080,-0.02313,0.00640*
1,1,0.02080,0.02313,0.00640*
1,1,0.02080,0.02313,-0.00640*
1,1,0.02080,-0.02313,-0.00640*
%
%ADD67ROUNDEDRECTD67*%
G04:AMPARAMS|DCode=68|XSize=66.07mil|YSize=25.72mil|CornerRadius=8.43mil|HoleSize=0mil|Usage=FLASHONLY|Rotation=270.000|XOffset=0mil|YOffset=0mil|HoleType=Round|Shape=RoundedRectangle|*
%AMROUNDEDRECTD68*
21,1,0.06607,0.00886,0,0,270.0*
21,1,0.04921,0.02572,0,0,270.0*
1,1,0.01686,-0.00443,-0.02461*
1,1,0.01686,-0.00443,0.02461*
1,1,0.01686,0.00443,0.02461*
1,1,0.01686,0.00443,-0.02461*
%
%ADD68ROUNDEDRECTD68*%
G04:AMPARAMS|DCode=69|XSize=165.48mil|YSize=322.96mil|CornerRadius=43.37mil|HoleSize=0mil|Usage=FLASHONLY|Rotation=90.000|XOffset=0mil|YOffset=0mil|HoleType=Round|Shape=RoundedRectangle|*
%AMROUNDEDRECTD69*
21,1,0.16548,0.23622,0,0,90.0*
21,1,0.07874,0.32296,0,0,90.0*
1,1,0.08674,0.11811,0.03937*
1,1,0.08674,0.11811,-0.03937*
1,1,0.08674,-0.11811,-0.03937*
1,1,0.08674,-0.11811,0.03937*
%
%ADD69ROUNDEDRECTD69*%
G04:AMPARAMS|DCode=70|XSize=44.37mil|YSize=60.12mil|CornerRadius=8.4mil|HoleSize=0mil|Usage=FLASHONLY|Rotation=180.000|XOffset=0mil|YOffset=0mil|HoleType=Round|Shape=RoundedRectangle|*
%AMROUNDEDRECTD70*
21,1,0.04437,0.04331,0,0,180.0*
21,1,0.02756,0.06012,0,0,180.0*
1,1,0.01681,-0.01378,0.02165*
1,1,0.01681,0.01378,0.02165*
1,1,0.01681,0.01378,-0.02165*
1,1,0.01681,-0.01378,-0.02165*
%
%ADD70ROUNDEDRECTD70*%
%ADD71C,0.07296*%
%ADD72R,0.07296X0.07296*%
%ADD73R,0.07296X0.07296*%
%ADD74C,0.24122*%
%ADD75R,0.07591X0.07591*%
%ADD76C,0.07591*%
%ADD77C,0.38201*%
%ADD78C,0.22450*%
%ADD79C,0.05524*%
%ADD80R,0.05524X0.05524*%
%ADD81O,0.28359X0.59855*%
%ADD82C,0.13398*%
%ADD83R,0.08359X0.08359*%
%ADD84C,0.08359*%
%ADD85C,0.07099*%
%ADD86R,0.05524X0.05524*%
%ADD87C,0.08674*%
%ADD88C,0.06706*%
%ADD89C,0.03800*%
%ADD90C,0.05800*%
D60*
X587402Y102362D02*
D03*
X593701D02*
D03*
X587087Y149606D02*
D03*
X593386D02*
D03*
X587087Y196850D02*
D03*
X593386D02*
D03*
X575591Y62992D02*
D03*
X581890D02*
D03*
X575591Y55118D02*
D03*
X581890D02*
D03*
X717323Y295276D02*
D03*
X723622D02*
D03*
Y303150D02*
D03*
X717323D02*
D03*
Y311024D02*
D03*
X723622D02*
D03*
Y318898D02*
D03*
X717323D02*
D03*
Y326772D02*
D03*
X723622D02*
D03*
Y334646D02*
D03*
X717323D02*
D03*
Y342520D02*
D03*
X723622D02*
D03*
Y350394D02*
D03*
X717323D02*
D03*
X717323Y362205D02*
D03*
X723622D02*
D03*
Y370079D02*
D03*
X717323D02*
D03*
Y377953D02*
D03*
X723622D02*
D03*
Y385827D02*
D03*
X717323D02*
D03*
Y393701D02*
D03*
X723622D02*
D03*
Y401575D02*
D03*
X717323D02*
D03*
Y409449D02*
D03*
X723622D02*
D03*
Y417323D02*
D03*
X717323D02*
D03*
X607087Y263779D02*
D03*
X613386D02*
D03*
X607087Y255906D02*
D03*
X613386D02*
D03*
X607087Y314961D02*
D03*
X613386D02*
D03*
X607087Y307087D02*
D03*
X613386D02*
D03*
X530709Y185039D02*
D03*
X524409D02*
D03*
X542520Y224410D02*
D03*
X536221D02*
D03*
X542520Y232283D02*
D03*
X536221D02*
D03*
X542520Y240158D02*
D03*
X536221D02*
D03*
X542520Y248031D02*
D03*
X536221D02*
D03*
X542520Y255906D02*
D03*
X536221D02*
D03*
X542520Y263779D02*
D03*
X536221D02*
D03*
X621260Y214567D02*
D03*
X614961D02*
D03*
X621260Y227362D02*
D03*
X614961D02*
D03*
X529331Y92520D02*
D03*
X535630D02*
D03*
X529331Y102362D02*
D03*
X535630D02*
D03*
X351181Y200787D02*
D03*
X357480D02*
D03*
D61*
X602697Y102362D02*
D03*
X613524D02*
D03*
X602697Y149606D02*
D03*
X613524D02*
D03*
X602697Y196850D02*
D03*
X613524D02*
D03*
D62*
X653740Y74803D02*
D03*
X661221D02*
D03*
Y43307D02*
D03*
X653740D02*
D03*
X661221Y66929D02*
D03*
X653740D02*
D03*
X661221Y51181D02*
D03*
X653740D02*
D03*
X661221Y59055D02*
D03*
X653740D02*
D03*
X665158Y216535D02*
D03*
X657677D02*
D03*
X665158Y224410D02*
D03*
X657677D02*
D03*
X498819Y224410D02*
D03*
X491339D02*
D03*
X498819Y232283D02*
D03*
X491339D02*
D03*
X498819Y263779D02*
D03*
X491339D02*
D03*
X498819Y255906D02*
D03*
X491339D02*
D03*
X498819Y240158D02*
D03*
X491339D02*
D03*
X498819Y248031D02*
D03*
X491339D02*
D03*
X464764Y94488D02*
D03*
X472244D02*
D03*
Y102362D02*
D03*
X464764D02*
D03*
D63*
X357283Y390551D02*
D03*
Y396850D02*
D03*
X582677Y44094D02*
D03*
Y50394D02*
D03*
Y74016D02*
D03*
Y67716D02*
D03*
X622047Y34646D02*
D03*
Y28346D02*
D03*
X330709Y85827D02*
D03*
Y79528D02*
D03*
X456693Y424409D02*
D03*
Y418110D02*
D03*
X614173Y274803D02*
D03*
Y268504D02*
D03*
Y244882D02*
D03*
Y251181D02*
D03*
Y325984D02*
D03*
Y319685D02*
D03*
Y296063D02*
D03*
Y302362D02*
D03*
X629921Y28346D02*
D03*
Y34646D02*
D03*
X326772Y266929D02*
D03*
Y260630D02*
D03*
D64*
X448819Y417717D02*
D03*
Y425197D02*
D03*
X330709Y94685D02*
D03*
Y102165D02*
D03*
X365158Y397441D02*
D03*
Y389961D02*
D03*
X318898Y260039D02*
D03*
Y267520D02*
D03*
D65*
X653543Y266929D02*
D03*
Y260630D02*
D03*
X661417Y266929D02*
D03*
Y260630D02*
D03*
X664370Y318110D02*
D03*
Y311811D02*
D03*
X656496Y318110D02*
D03*
Y311811D02*
D03*
X629921Y59842D02*
D03*
Y66142D02*
D03*
X622047Y59842D02*
D03*
Y66142D02*
D03*
X539370Y196063D02*
D03*
Y189764D02*
D03*
X547244Y196063D02*
D03*
Y189764D02*
D03*
X570551Y207874D02*
D03*
Y201575D02*
D03*
Y160630D02*
D03*
Y154331D02*
D03*
Y113386D02*
D03*
Y107087D02*
D03*
X586299Y181890D02*
D03*
Y188189D02*
D03*
Y134646D02*
D03*
Y140945D02*
D03*
Y87402D02*
D03*
Y93701D02*
D03*
D66*
X580984Y209154D02*
D03*
X578425D02*
D03*
X575866D02*
D03*
Y200295D02*
D03*
X578425D02*
D03*
X580984D02*
D03*
Y161909D02*
D03*
X578425D02*
D03*
X575866D02*
D03*
Y153051D02*
D03*
X578425D02*
D03*
X580984D02*
D03*
Y114665D02*
D03*
X578425D02*
D03*
X575866D02*
D03*
Y105807D02*
D03*
X578425D02*
D03*
X580984D02*
D03*
X575866Y184547D02*
D03*
X578425D02*
D03*
X580984D02*
D03*
Y193405D02*
D03*
X578425D02*
D03*
X575866D02*
D03*
Y137303D02*
D03*
X578425D02*
D03*
X580984D02*
D03*
Y146161D02*
D03*
X578425D02*
D03*
X575866D02*
D03*
Y90059D02*
D03*
X578425D02*
D03*
X580984D02*
D03*
Y98917D02*
D03*
X578425D02*
D03*
X575866D02*
D03*
D67*
X623228Y236968D02*
D03*
Y241968D02*
D03*
Y246969D02*
D03*
Y251969D02*
D03*
Y256968D02*
D03*
Y261968D02*
D03*
Y266968D02*
D03*
X644488D02*
D03*
Y261968D02*
D03*
Y256968D02*
D03*
Y251969D02*
D03*
Y246969D02*
D03*
Y241968D02*
D03*
Y236968D02*
D03*
X623228Y288150D02*
D03*
Y293150D02*
D03*
Y298150D02*
D03*
Y303150D02*
D03*
Y308150D02*
D03*
Y313150D02*
D03*
Y318150D02*
D03*
X644488D02*
D03*
Y313150D02*
D03*
Y308150D02*
D03*
Y303150D02*
D03*
Y298150D02*
D03*
Y293150D02*
D03*
Y288150D02*
D03*
X591339Y36575D02*
D03*
Y41575D02*
D03*
Y46575D02*
D03*
Y51575D02*
D03*
Y56575D02*
D03*
Y61575D02*
D03*
Y66575D02*
D03*
X612598D02*
D03*
Y61575D02*
D03*
Y56575D02*
D03*
Y51575D02*
D03*
Y46575D02*
D03*
Y41575D02*
D03*
Y36575D02*
D03*
D68*
X532382Y216291D02*
D03*
X529823D02*
D03*
X527264D02*
D03*
X524705D02*
D03*
X522146D02*
D03*
X519587D02*
D03*
X517028D02*
D03*
X514468D02*
D03*
X511909D02*
D03*
X509350D02*
D03*
X506791D02*
D03*
X504232D02*
D03*
X501673D02*
D03*
X499114D02*
D03*
Y193157D02*
D03*
X501673D02*
D03*
X504232D02*
D03*
X506791D02*
D03*
X509350D02*
D03*
X511909D02*
D03*
X514468D02*
D03*
X517028D02*
D03*
X519587D02*
D03*
X522146D02*
D03*
X524705D02*
D03*
X527264D02*
D03*
X529823D02*
D03*
X532382D02*
D03*
D69*
X307087Y383858D02*
D03*
Y431102D02*
D03*
Y407480D02*
D03*
Y454724D02*
D03*
X370079Y106299D02*
D03*
Y157480D02*
D03*
Y133858D02*
D03*
Y185039D02*
D03*
D70*
X358071Y208661D02*
D03*
X350590D02*
D03*
D71*
X592362Y23622D02*
D03*
X602362D02*
D03*
X519685Y112677D02*
D03*
Y102677D02*
D03*
Y92677D02*
D03*
Y82677D02*
D03*
Y72677D02*
D03*
X449685Y102677D02*
D03*
Y92677D02*
D03*
Y82677D02*
D03*
Y72677D02*
D03*
X570866Y317087D02*
D03*
Y307087D02*
D03*
X555118Y317087D02*
D03*
Y307087D02*
D03*
X539370Y317087D02*
D03*
Y307087D02*
D03*
X523622Y317087D02*
D03*
Y307087D02*
D03*
X507874Y317087D02*
D03*
Y307087D02*
D03*
X492126Y317087D02*
D03*
Y307087D02*
D03*
X476378Y317087D02*
D03*
Y307087D02*
D03*
X460630Y317087D02*
D03*
Y307087D02*
D03*
X732283Y165354D02*
D03*
Y129921D02*
D03*
Y94488D02*
D03*
Y61181D02*
D03*
Y51181D02*
D03*
X775591Y277716D02*
D03*
Y267717D02*
D03*
X748032Y409449D02*
D03*
Y399606D02*
D03*
Y389764D02*
D03*
Y379921D02*
D03*
X748032Y342520D02*
D03*
Y332677D02*
D03*
Y322835D02*
D03*
Y312992D02*
D03*
X697913Y46732D02*
D03*
X687913D02*
D03*
X697913Y56732D02*
D03*
X687913D02*
D03*
X697913Y66732D02*
D03*
X687913D02*
D03*
X697913Y76732D02*
D03*
X687913D02*
D03*
X697913Y86732D02*
D03*
X687913D02*
D03*
X697913Y96732D02*
D03*
X687913D02*
D03*
X697913Y106732D02*
D03*
X687913D02*
D03*
X697913Y116732D02*
D03*
X687913D02*
D03*
X697913Y126732D02*
D03*
X687913D02*
D03*
X697913Y136732D02*
D03*
X687913D02*
D03*
X697913Y146732D02*
D03*
X687913D02*
D03*
X697913Y156732D02*
D03*
X687913D02*
D03*
X697913Y166732D02*
D03*
X687913D02*
D03*
X697913Y176732D02*
D03*
X687913D02*
D03*
X697913Y186732D02*
D03*
X687913D02*
D03*
X697913Y196732D02*
D03*
X687913D02*
D03*
X697913Y206732D02*
D03*
X687913D02*
D03*
X697913Y216732D02*
D03*
X687913D02*
D03*
X697913Y226732D02*
D03*
X687913D02*
D03*
X697913Y236732D02*
D03*
X377953Y438819D02*
D03*
Y387638D02*
D03*
X665748Y137795D02*
D03*
Y185039D02*
D03*
Y90551D02*
D03*
X540000Y173228D02*
D03*
X530000D02*
D03*
X520000D02*
D03*
X510000D02*
D03*
X500000D02*
D03*
X490000D02*
D03*
D72*
X612362Y23622D02*
D03*
X610236Y137795D02*
D03*
Y185039D02*
D03*
Y90551D02*
D03*
X480000Y173228D02*
D03*
D73*
X519685Y62677D02*
D03*
X570866Y297087D02*
D03*
X555118D02*
D03*
X539370D02*
D03*
X523622D02*
D03*
X507874D02*
D03*
X492126D02*
D03*
X476378D02*
D03*
X460630D02*
D03*
X732283Y175354D02*
D03*
Y139921D02*
D03*
Y104488D02*
D03*
Y71181D02*
D03*
X775591Y257716D02*
D03*
X748032Y370079D02*
D03*
X748032Y303150D02*
D03*
X687913Y236732D02*
D03*
X377953Y448819D02*
D03*
Y397638D02*
D03*
D74*
X767717Y531496D02*
D03*
Y19685D02*
D03*
X19685D02*
D03*
Y531496D02*
D03*
X393701Y275590D02*
D03*
D75*
X732283Y230787D02*
D03*
D76*
Y220787D02*
D03*
Y210787D02*
D03*
Y200787D02*
D03*
D77*
X700787Y448126D02*
D03*
Y492126D02*
D03*
X757874Y448126D02*
D03*
Y492126D02*
D03*
D78*
X255906Y519686D02*
D03*
Y492126D02*
D03*
X311024Y519686D02*
D03*
Y492126D02*
D03*
X366142Y519685D02*
D03*
Y492125D02*
D03*
X421260Y519685D02*
D03*
Y492125D02*
D03*
X255906Y318898D02*
D03*
Y346458D02*
D03*
X311024Y318897D02*
D03*
Y346457D02*
D03*
X366142Y318897D02*
D03*
Y346457D02*
D03*
X421260Y318898D02*
D03*
Y346458D02*
D03*
X314961Y27559D02*
D03*
Y55119D02*
D03*
D79*
X346457Y427165D02*
D03*
X409449Y153543D02*
D03*
X364173Y78740D02*
D03*
X320866Y224410D02*
D03*
D80*
X346457Y413386D02*
D03*
X409449Y139764D02*
D03*
D81*
X647638Y369094D02*
D03*
X608268Y400787D02*
D03*
X647638Y479331D02*
D03*
X608268Y511024D02*
D03*
D82*
X748032Y255906D02*
D03*
Y27559D02*
D03*
X409449Y255906D02*
D03*
Y27559D02*
D03*
D83*
X629606Y196850D02*
D03*
Y149606D02*
D03*
Y102362D02*
D03*
D84*
X639606Y196850D02*
D03*
X649606D02*
D03*
X639606Y149606D02*
D03*
X649606D02*
D03*
X639606Y102362D02*
D03*
X649606D02*
D03*
D85*
X124016Y527559D02*
D03*
Y311024D02*
D03*
X145669Y275590D02*
D03*
Y15748D02*
D03*
D86*
X350394Y78740D02*
D03*
X334646Y224410D02*
D03*
D87*
X371220Y29528D02*
D03*
X361221D02*
D03*
X351220D02*
D03*
D88*
X346457Y277716D02*
D03*
Y267717D02*
D03*
Y257716D02*
D03*
Y247716D02*
D03*
D89*
X728346Y413386D02*
D03*
Y397638D02*
D03*
Y381890D02*
D03*
Y366142D02*
D03*
X728346Y346457D02*
D03*
Y330709D02*
D03*
Y314961D02*
D03*
Y299213D02*
D03*
X673228D02*
D03*
X665354D02*
D03*
X708661Y377953D02*
D03*
X692913D02*
D03*
X653543Y293307D02*
D03*
X708661Y326772D02*
D03*
X696850D02*
D03*
X651575Y242126D02*
D03*
X664370Y81693D02*
D03*
X629921Y318150D02*
D03*
X637795Y266968D02*
D03*
X629921D02*
D03*
X598032Y66535D02*
D03*
X605905D02*
D03*
X593386Y154646D02*
D03*
X580984Y214291D02*
D03*
X593386Y107402D02*
D03*
X521654Y255906D02*
D03*
X531496Y263779D02*
D03*
X525591Y240158D02*
D03*
X504232Y207972D02*
D03*
X509350D02*
D03*
X514468D02*
D03*
X499016Y287402D02*
D03*
X501968Y283465D02*
D03*
X638779Y223425D02*
D03*
Y216535D02*
D03*
X637795Y318150D02*
D03*
X506791Y221358D02*
D03*
X529527Y232283D02*
D03*
X518701Y248031D02*
D03*
X607283Y227362D02*
D03*
X607283Y235236D02*
D03*
Y214567D02*
D03*
X651417Y313150D02*
D03*
X633858Y326772D02*
D03*
X670276Y277559D02*
D03*
X692913D02*
D03*
X693898Y252953D02*
D03*
X687992Y258858D02*
D03*
X605905Y61535D02*
D03*
X575591Y48425D02*
D03*
X636732Y80630D02*
D03*
Y127874D02*
D03*
Y175118D02*
D03*
X700787Y62008D02*
D03*
X644685Y59055D02*
D03*
Y51181D02*
D03*
Y45276D02*
D03*
X728346Y357283D02*
D03*
X616378Y236968D02*
D03*
X633858Y237205D02*
D03*
X661417Y322835D02*
D03*
X655512Y303150D02*
D03*
X661417Y271654D02*
D03*
X653543Y253937D02*
D03*
X631890Y251969D02*
D03*
X580984Y119803D02*
D03*
X612205Y242126D02*
D03*
X624016Y273622D02*
D03*
X586614Y208661D02*
D03*
X580984Y167047D02*
D03*
X595472Y201772D02*
D03*
X588583D02*
D03*
X537700Y196063D02*
D03*
X524800Y208600D02*
D03*
X529000Y208700D02*
D03*
X522000Y222500D02*
D03*
X527200Y223100D02*
D03*
X584200Y201100D02*
D03*
Y154100D02*
D03*
X585300Y107000D02*
D03*
X525400Y199900D02*
D03*
X521300Y202000D02*
D03*
X516000Y222100D02*
D03*
X511100Y222400D02*
D03*
D90*
X716535Y242126D02*
D03*
X303150Y7874D02*
D03*
X313976D02*
D03*
X324803D02*
D03*
X334646D02*
D03*
X610236Y358268D02*
D03*
X590551D02*
D03*
X570866Y366142D02*
D03*
X551181Y389764D02*
D03*
X531496Y409449D02*
D03*
X511811Y425197D02*
D03*
X452756Y448819D02*
D03*
X492126Y445866D02*
D03*
X421260Y448819D02*
D03*
X377461Y463583D02*
D03*
X334646Y185039D02*
D03*
X350394D02*
D03*
X342520D02*
D03*
X456693Y240158D02*
D03*
X484252D02*
D03*
X337598Y452756D02*
D03*
X742600Y242100D02*
D03*
X735600Y242126D02*
D03*
X729100D02*
D03*
X722900Y242200D02*
D03*
M02*
