G04 Layer_Physical_Order=2*
G04 Layer_Color=16711680*
%FSLAX25Y25*%
%MOIN*%
G70*
G01*
G75*
%ADD21C,0.35000*%
%ADD22C,0.01000*%
%ADD25C,0.20000*%
%ADD26C,0.04000*%
%ADD27C,0.01500*%
%ADD29C,0.05000*%
%ADD30C,0.10000*%
%ADD31C,0.15000*%
%ADD32C,0.02000*%
%ADD33C,0.06496*%
%ADD34R,0.06496X0.06496*%
%ADD35R,0.06496X0.06496*%
%ADD36C,0.23622*%
%ADD37R,0.06791X0.06791*%
%ADD38C,0.06791*%
%ADD39C,0.37401*%
%ADD40C,0.21650*%
%ADD41C,0.04724*%
%ADD42R,0.04724X0.04724*%
%ADD43O,0.27559X0.59055*%
%ADD44C,0.12598*%
%ADD45R,0.07559X0.07559*%
%ADD46C,0.07559*%
%ADD47C,0.06299*%
%ADD48R,0.04724X0.04724*%
%ADD49C,0.07874*%
%ADD50C,0.05905*%
%ADD51C,0.03000*%
%ADD52C,0.05000*%
G36*
X307087Y63945D02*
X306573Y63507D01*
X305364Y62091D01*
X304392Y60504D01*
X303680Y58785D01*
X303245Y56975D01*
X303099Y55119D01*
X303245Y53263D01*
X303680Y51454D01*
X304392Y49734D01*
X305364Y48147D01*
X306573Y46732D01*
X307087Y46293D01*
X307087Y36385D01*
X306573Y35947D01*
X305364Y34531D01*
X304392Y32944D01*
X303680Y31225D01*
X303245Y29415D01*
X303099Y27559D01*
X303245Y25703D01*
X303680Y23894D01*
X304392Y22174D01*
X305364Y20587D01*
X306573Y19172D01*
X307087Y18733D01*
Y9843D01*
X196850D01*
X196850Y148622D01*
X307087D01*
X307087Y63945D01*
D02*
G37*
G36*
X783465Y3937D02*
X711936D01*
X711744Y4399D01*
X778869Y71524D01*
X779619Y72438D01*
X780176Y73480D01*
X780519Y74611D01*
X780635Y75787D01*
Y242126D01*
X780519Y243302D01*
X780176Y244433D01*
X779619Y245476D01*
X778869Y246389D01*
X777956Y247139D01*
X776913Y247696D01*
X775782Y248039D01*
X774606Y248155D01*
X748909D01*
X748885Y248655D01*
X749462Y248712D01*
X750838Y249129D01*
X752106Y249807D01*
X753218Y250719D01*
X754130Y251831D01*
X754808Y253099D01*
X755225Y254475D01*
X755366Y255906D01*
X755225Y257336D01*
X754808Y258712D01*
X754130Y259980D01*
X753218Y261092D01*
X752106Y262004D01*
X750838Y262682D01*
X749462Y263099D01*
X748032Y263240D01*
X746601Y263099D01*
X745225Y262682D01*
X743957Y262004D01*
X742845Y261092D01*
X741933Y259980D01*
X741255Y258712D01*
X740838Y257336D01*
X740697Y255906D01*
X740838Y254475D01*
X741255Y253099D01*
X741933Y251831D01*
X742845Y250719D01*
X743957Y249807D01*
X745225Y249129D01*
X746601Y248712D01*
X747178Y248655D01*
X747154Y248155D01*
X718504D01*
X717328Y248039D01*
X716197Y247696D01*
X715154Y247139D01*
X714241Y246389D01*
X713491Y245476D01*
X712934Y244433D01*
X712591Y243302D01*
X712475Y242126D01*
X712591Y240950D01*
X712934Y239819D01*
X713491Y238776D01*
X714241Y237863D01*
X715154Y237113D01*
X716197Y236556D01*
X717328Y236213D01*
X718504Y236097D01*
X768577D01*
Y78285D01*
X704196Y13903D01*
X308106D01*
Y17379D01*
X308542Y17623D01*
X309576Y16990D01*
X311295Y16278D01*
X313105Y15844D01*
X314961Y15698D01*
X316816Y15844D01*
X318626Y16278D01*
X320346Y16990D01*
X321933Y17963D01*
X323348Y19172D01*
X324557Y20587D01*
X325529Y22174D01*
X326242Y23894D01*
X326676Y25703D01*
X326822Y27559D01*
X326676Y29415D01*
X326242Y31225D01*
X325529Y32944D01*
X325186Y33505D01*
X331962Y40281D01*
X381890D01*
X382673Y40384D01*
X383403Y40687D01*
X384029Y41168D01*
X435211Y92348D01*
X435211Y92349D01*
X435691Y92975D01*
X435994Y93705D01*
X436097Y94488D01*
X436097Y94488D01*
Y116857D01*
X447021Y127782D01*
X447021Y127782D01*
X447502Y128408D01*
X447805Y129138D01*
X447908Y129921D01*
Y366142D01*
X447908Y366142D01*
X447805Y366925D01*
X447502Y367655D01*
X447021Y368281D01*
X447021Y368281D01*
X427337Y387966D01*
X426710Y388447D01*
X425980Y388750D01*
X425197Y388853D01*
X391017D01*
X382201Y397669D01*
Y401886D01*
X373705D01*
Y393390D01*
X377922D01*
X379026Y392285D01*
X378792Y391812D01*
X378453Y391857D01*
Y388138D01*
X382172D01*
X382127Y388477D01*
X382600Y388711D01*
X387624Y383687D01*
X388251Y383206D01*
X388981Y382904D01*
X389764Y382801D01*
X423944D01*
X441856Y364888D01*
Y131175D01*
X430931Y120250D01*
X430450Y119623D01*
X430148Y118893D01*
X430045Y118110D01*
Y95741D01*
X380636Y46333D01*
X330709D01*
X330709Y46333D01*
X329925Y46230D01*
X329196Y45928D01*
X328569Y45447D01*
X320906Y37784D01*
X320346Y38128D01*
X318626Y38840D01*
X316816Y39275D01*
X314961Y39421D01*
X313105Y39275D01*
X311295Y38840D01*
X309576Y38128D01*
X308542Y37495D01*
X308106Y37739D01*
X308106Y44939D01*
X308542Y45183D01*
X309576Y44550D01*
X311295Y43838D01*
X313105Y43404D01*
X314961Y43257D01*
X316816Y43404D01*
X318626Y43838D01*
X320346Y44550D01*
X321933Y45523D01*
X323348Y46732D01*
X324557Y48147D01*
X325529Y49734D01*
X326242Y51454D01*
X326676Y53263D01*
X326822Y55119D01*
X326676Y56975D01*
X326242Y58785D01*
X325529Y60504D01*
X324557Y62091D01*
X323348Y63507D01*
X321933Y64715D01*
X320346Y65688D01*
X318626Y66400D01*
X316816Y66835D01*
X314961Y66981D01*
X313105Y66835D01*
X311295Y66400D01*
X309576Y65688D01*
X308542Y65055D01*
X308106Y65299D01*
X308106Y148622D01*
X308029Y149012D01*
X307807Y149343D01*
X307477Y149564D01*
X307087Y149642D01*
X196850D01*
X196460Y149564D01*
X196129Y149343D01*
X195908Y149012D01*
X195831Y148622D01*
X195831Y9843D01*
X195908Y9452D01*
X196129Y9122D01*
X196460Y8901D01*
X196850Y8823D01*
X281263D01*
X285299Y4787D01*
X285761Y4408D01*
X285593Y3937D01*
X151871D01*
X151730Y4437D01*
X153223Y5352D01*
X154756Y6661D01*
X156066Y8195D01*
X157119Y9914D01*
X157891Y11777D01*
X158362Y13738D01*
X158520Y15748D01*
X158362Y17758D01*
X157891Y19719D01*
X157119Y21582D01*
X156066Y23301D01*
X154756Y24835D01*
X153223Y26144D01*
X151503Y27198D01*
X149640Y27970D01*
X147680Y28440D01*
X145669Y28599D01*
X143659Y28440D01*
X141698Y27970D01*
X139835Y27198D01*
X138116Y26144D01*
X136583Y24835D01*
X135273Y23301D01*
X134219Y21582D01*
X133448Y19719D01*
X132977Y17758D01*
X132819Y15748D01*
X132977Y13738D01*
X133448Y11777D01*
X134219Y9914D01*
X135273Y8195D01*
X136583Y6661D01*
X138116Y5352D01*
X139608Y4437D01*
X139467Y3937D01*
X3937D01*
Y543307D01*
X13483D01*
X13624Y542807D01*
X12132Y541892D01*
X10598Y540583D01*
X9289Y539049D01*
X8235Y537330D01*
X7463Y535467D01*
X6993Y533506D01*
X6834Y531496D01*
X6993Y529486D01*
X7463Y527525D01*
X8235Y525662D01*
X9289Y523943D01*
X10598Y522409D01*
X12132Y521100D01*
X13851Y520046D01*
X15714Y519274D01*
X17675Y518804D01*
X19685Y518645D01*
X21695Y518804D01*
X23656Y519274D01*
X25519Y520046D01*
X27239Y521100D01*
X28772Y522409D01*
X30081Y523943D01*
X31135Y525662D01*
X31907Y527525D01*
X32377Y529486D01*
X32536Y531496D01*
X32377Y533506D01*
X31907Y535467D01*
X31135Y537330D01*
X30081Y539049D01*
X28772Y540583D01*
X27239Y541892D01*
X25746Y542807D01*
X25887Y543307D01*
X761515D01*
X761656Y542807D01*
X760163Y541892D01*
X758630Y540583D01*
X757320Y539049D01*
X756266Y537330D01*
X755495Y535467D01*
X755024Y533506D01*
X754866Y531496D01*
X755024Y529486D01*
X755495Y527525D01*
X756266Y525662D01*
X757320Y523943D01*
X758630Y522409D01*
X760163Y521100D01*
X761882Y520046D01*
X763745Y519274D01*
X765706Y518804D01*
X767717Y518645D01*
X769727Y518804D01*
X771688Y519274D01*
X773551Y520046D01*
X775270Y521100D01*
X776803Y522409D01*
X778113Y523943D01*
X779167Y525662D01*
X779938Y527525D01*
X780409Y529486D01*
X780567Y531496D01*
X780409Y533506D01*
X779938Y535467D01*
X779167Y537330D01*
X778113Y539049D01*
X776803Y540583D01*
X775270Y541892D01*
X773777Y542807D01*
X773918Y543307D01*
X783465D01*
Y3937D01*
D02*
G37*
%LPC*%
G36*
X540000Y177513D02*
X538891Y177367D01*
X537858Y176939D01*
X536970Y176258D01*
X536289Y175371D01*
X535861Y174337D01*
X535715Y173228D01*
X535861Y172119D01*
X536289Y171086D01*
X536970Y170199D01*
X537858Y169518D01*
X538891Y169090D01*
X540000Y168944D01*
X541109Y169090D01*
X542142Y169518D01*
X543030Y170199D01*
X543711Y171086D01*
X544139Y172119D01*
X544285Y173228D01*
X544139Y174337D01*
X543711Y175371D01*
X543030Y176258D01*
X542142Y176939D01*
X541109Y177367D01*
X540000Y177513D01*
D02*
G37*
G36*
X484248Y177476D02*
X475752D01*
Y168980D01*
X484248D01*
Y177476D01*
D02*
G37*
G36*
X697413Y180951D02*
X696804Y180871D01*
X695771Y180443D01*
X694884Y179762D01*
X694203Y178875D01*
X693775Y177841D01*
X693694Y177232D01*
X697413D01*
Y180951D01*
D02*
G37*
G36*
X520000Y177513D02*
X518891Y177367D01*
X517858Y176939D01*
X516970Y176258D01*
X516289Y175371D01*
X515861Y174337D01*
X515715Y173228D01*
X515861Y172119D01*
X516289Y171086D01*
X516970Y170199D01*
X517858Y169518D01*
X518891Y169090D01*
X520000Y168944D01*
X521109Y169090D01*
X522142Y169518D01*
X523030Y170199D01*
X523711Y171086D01*
X524139Y172119D01*
X524285Y173228D01*
X524139Y174337D01*
X523711Y175371D01*
X523030Y176258D01*
X522142Y176939D01*
X521109Y177367D01*
X520000Y177513D01*
D02*
G37*
G36*
X510000D02*
X508891Y177367D01*
X507858Y176939D01*
X506970Y176258D01*
X506289Y175371D01*
X505861Y174337D01*
X505715Y173228D01*
X505861Y172119D01*
X506289Y171086D01*
X506970Y170199D01*
X507858Y169518D01*
X508891Y169090D01*
X510000Y168944D01*
X511109Y169090D01*
X512142Y169518D01*
X513030Y170199D01*
X513711Y171086D01*
X514139Y172119D01*
X514285Y173228D01*
X514139Y174337D01*
X513711Y175371D01*
X513030Y176258D01*
X512142Y176939D01*
X511109Y177367D01*
X510000Y177513D01*
D02*
G37*
G36*
X530000D02*
X528891Y177367D01*
X527858Y176939D01*
X526970Y176258D01*
X526289Y175371D01*
X525861Y174337D01*
X525715Y173228D01*
X525861Y172119D01*
X526289Y171086D01*
X526970Y170199D01*
X527858Y169518D01*
X528891Y169090D01*
X530000Y168944D01*
X531109Y169090D01*
X532142Y169518D01*
X533030Y170199D01*
X533711Y171086D01*
X534139Y172119D01*
X534285Y173228D01*
X534139Y174337D01*
X533711Y175371D01*
X533030Y176258D01*
X532142Y176939D01*
X531109Y177367D01*
X530000Y177513D01*
D02*
G37*
G36*
X697913Y191017D02*
X696804Y190871D01*
X695771Y190443D01*
X694884Y189762D01*
X694203Y188875D01*
X693775Y187841D01*
X693629Y186732D01*
X693775Y185623D01*
X694203Y184590D01*
X694884Y183703D01*
X695771Y183022D01*
X696804Y182594D01*
X697913Y182448D01*
X699022Y182594D01*
X700056Y183022D01*
X700943Y183703D01*
X701624Y184590D01*
X702052Y185623D01*
X702198Y186732D01*
X702052Y187841D01*
X701624Y188875D01*
X700943Y189762D01*
X700056Y190443D01*
X699022Y190871D01*
X697913Y191017D01*
D02*
G37*
G36*
X654361Y196350D02*
X650106D01*
Y192095D01*
X650854Y192194D01*
X652017Y192675D01*
X653015Y193442D01*
X653781Y194440D01*
X654263Y195603D01*
X654361Y196350D01*
D02*
G37*
G36*
X697913Y201017D02*
X696804Y200871D01*
X695771Y200443D01*
X694884Y199762D01*
X694203Y198875D01*
X693775Y197841D01*
X693629Y196732D01*
X693775Y195623D01*
X694203Y194590D01*
X694884Y193703D01*
X695771Y193022D01*
X696804Y192594D01*
X697913Y192448D01*
X699022Y192594D01*
X700056Y193022D01*
X700943Y193703D01*
X701624Y194590D01*
X702052Y195623D01*
X702198Y196732D01*
X702052Y197841D01*
X701624Y198875D01*
X700943Y199762D01*
X700056Y200443D01*
X699022Y200871D01*
X697913Y201017D01*
D02*
G37*
G36*
X698413Y180951D02*
Y177232D01*
X702132D01*
X702052Y177841D01*
X701624Y178875D01*
X700943Y179762D01*
X700056Y180443D01*
X699022Y180871D01*
X698413Y180951D01*
D02*
G37*
G36*
X354331Y191068D02*
X133858D01*
X132682Y190953D01*
X131551Y190610D01*
X130509Y190052D01*
X129595Y189303D01*
X128845Y188389D01*
X128288Y187347D01*
X127945Y186216D01*
X127829Y185039D01*
X127945Y183863D01*
X128288Y182732D01*
X128845Y181690D01*
X129595Y180776D01*
X130509Y180026D01*
X131551Y179469D01*
X132682Y179126D01*
X133858Y179010D01*
X354331D01*
X355507Y179126D01*
X356638Y179469D01*
X357680Y180026D01*
X358594Y180776D01*
X359344Y181690D01*
X359901Y182732D01*
X360244Y183863D01*
X360360Y185039D01*
X360244Y186216D01*
X359901Y187347D01*
X359344Y188389D01*
X358594Y189303D01*
X357680Y190052D01*
X356638Y190610D01*
X355507Y190953D01*
X354331Y191068D01*
D02*
G37*
G36*
X687913Y191017D02*
X686804Y190871D01*
X685771Y190443D01*
X684884Y189762D01*
X684203Y188875D01*
X683775Y187841D01*
X683629Y186732D01*
X683775Y185623D01*
X684203Y184590D01*
X684884Y183703D01*
X685771Y183022D01*
X686804Y182594D01*
X687913Y182448D01*
X689022Y182594D01*
X690056Y183022D01*
X690943Y183703D01*
X691624Y184590D01*
X692052Y185623D01*
X692198Y186732D01*
X692052Y187841D01*
X691624Y188875D01*
X690943Y189762D01*
X690056Y190443D01*
X689022Y190871D01*
X687913Y191017D01*
D02*
G37*
G36*
X500000Y177513D02*
X498891Y177367D01*
X497858Y176939D01*
X496970Y176258D01*
X496289Y175371D01*
X495861Y174337D01*
X495715Y173228D01*
X495861Y172119D01*
X496289Y171086D01*
X496970Y170199D01*
X497858Y169518D01*
X498891Y169090D01*
X500000Y168944D01*
X501109Y169090D01*
X502142Y169518D01*
X503030Y170199D01*
X503711Y171086D01*
X504139Y172119D01*
X504285Y173228D01*
X504139Y174337D01*
X503711Y175371D01*
X503030Y176258D01*
X502142Y176939D01*
X501109Y177367D01*
X500000Y177513D01*
D02*
G37*
G36*
X698413Y150951D02*
Y147232D01*
X702132D01*
X702052Y147841D01*
X701624Y148875D01*
X700943Y149762D01*
X700056Y150443D01*
X699022Y150871D01*
X698413Y150951D01*
D02*
G37*
G36*
X412774Y153043D02*
X409949D01*
Y150218D01*
X410326Y150268D01*
X411144Y150606D01*
X411847Y151145D01*
X412386Y151848D01*
X412724Y152666D01*
X412774Y153043D01*
D02*
G37*
G36*
X408949D02*
X406123D01*
X406173Y152666D01*
X406512Y151848D01*
X407051Y151145D01*
X407753Y150606D01*
X408571Y150268D01*
X408949Y150218D01*
Y153043D01*
D02*
G37*
G36*
X702132Y146232D02*
X698413D01*
Y142513D01*
X699022Y142594D01*
X700056Y143022D01*
X700943Y143703D01*
X701624Y144590D01*
X702052Y145623D01*
X702132Y146232D01*
D02*
G37*
G36*
X697413D02*
X693694D01*
X693775Y145623D01*
X694203Y144590D01*
X694884Y143703D01*
X695771Y143022D01*
X696804Y142594D01*
X697413Y142513D01*
Y146232D01*
D02*
G37*
G36*
Y150951D02*
X696804Y150871D01*
X695771Y150443D01*
X694884Y149762D01*
X694203Y148875D01*
X693775Y147841D01*
X693694Y147232D01*
X697413D01*
Y150951D01*
D02*
G37*
G36*
X408949Y156869D02*
X408571Y156819D01*
X407753Y156480D01*
X407051Y155941D01*
X406512Y155239D01*
X406173Y154421D01*
X406123Y154043D01*
X408949D01*
Y156869D01*
D02*
G37*
G36*
X409949Y156869D02*
Y154043D01*
X412774D01*
X412724Y154421D01*
X412386Y155239D01*
X411847Y155941D01*
X411144Y156480D01*
X410326Y156819D01*
X409949Y156869D01*
D02*
G37*
G36*
X490000Y177513D02*
X488891Y177367D01*
X487858Y176939D01*
X486970Y176258D01*
X486289Y175371D01*
X485861Y174337D01*
X485715Y173228D01*
X485861Y172119D01*
X486289Y171086D01*
X486970Y170199D01*
X487858Y169518D01*
X488891Y169090D01*
X490000Y168944D01*
X491109Y169090D01*
X492142Y169518D01*
X493030Y170199D01*
X493711Y171086D01*
X494139Y172119D01*
X494285Y173228D01*
X494139Y174337D01*
X493711Y175371D01*
X493030Y176258D01*
X492142Y176939D01*
X491109Y177367D01*
X490000Y177513D01*
D02*
G37*
G36*
X639606Y154427D02*
X638359Y154263D01*
X637196Y153781D01*
X636198Y153015D01*
X635431Y152017D01*
X634950Y150854D01*
X634886Y150368D01*
X634386Y150401D01*
Y154386D01*
X624827D01*
Y144827D01*
X634386D01*
Y148812D01*
X634886Y148844D01*
X634950Y148359D01*
X635431Y147196D01*
X636198Y146197D01*
X637196Y145431D01*
X638359Y144950D01*
X639606Y144785D01*
X640854Y144950D01*
X642017Y145431D01*
X643015Y146197D01*
X643781Y147196D01*
X644263Y148359D01*
X644354Y149052D01*
X644859D01*
X644950Y148359D01*
X645431Y147196D01*
X646198Y146197D01*
X647196Y145431D01*
X648359Y144950D01*
X649106Y144851D01*
Y149606D01*
Y154361D01*
X648359Y154263D01*
X647196Y153781D01*
X646198Y153015D01*
X645431Y152017D01*
X644950Y150854D01*
X644859Y150160D01*
X644354D01*
X644263Y150854D01*
X643781Y152017D01*
X643015Y153015D01*
X642017Y153781D01*
X640854Y154263D01*
X639606Y154427D01*
D02*
G37*
G36*
X687913Y161017D02*
X686804Y160871D01*
X685771Y160443D01*
X684884Y159762D01*
X684203Y158875D01*
X683775Y157841D01*
X683629Y156732D01*
X683775Y155623D01*
X684203Y154590D01*
X684884Y153703D01*
X685771Y153022D01*
X686804Y152594D01*
X687913Y152448D01*
X689022Y152594D01*
X690056Y153022D01*
X690943Y153703D01*
X691624Y154590D01*
X692052Y155623D01*
X692198Y156732D01*
X692052Y157841D01*
X691624Y158875D01*
X690943Y159762D01*
X690056Y160443D01*
X689022Y160871D01*
X687913Y161017D01*
D02*
G37*
G36*
X697913D02*
X696804Y160871D01*
X695771Y160443D01*
X694884Y159762D01*
X694203Y158875D01*
X693775Y157841D01*
X693629Y156732D01*
X693775Y155623D01*
X694203Y154590D01*
X694884Y153703D01*
X695771Y153022D01*
X696804Y152594D01*
X697913Y152448D01*
X699022Y152594D01*
X700056Y153022D01*
X700943Y153703D01*
X701624Y154590D01*
X702052Y155623D01*
X702198Y156732D01*
X702052Y157841D01*
X701624Y158875D01*
X700943Y159762D01*
X700056Y160443D01*
X699022Y160871D01*
X697913Y161017D01*
D02*
G37*
G36*
X692132Y196232D02*
X688413D01*
Y192513D01*
X689022Y192594D01*
X690056Y193022D01*
X690943Y193703D01*
X691624Y194590D01*
X692052Y195623D01*
X692132Y196232D01*
D02*
G37*
G36*
X324191Y223909D02*
X321366D01*
Y221084D01*
X321744Y221134D01*
X322562Y221473D01*
X323264Y222011D01*
X323803Y222714D01*
X324142Y223532D01*
X324191Y223909D01*
D02*
G37*
G36*
X320366Y227735D02*
X319988Y227685D01*
X319170Y227346D01*
X318468Y226807D01*
X317929Y226105D01*
X317590Y225287D01*
X317541Y224909D01*
X320366D01*
Y227735D01*
D02*
G37*
G36*
X321366Y227735D02*
Y224909D01*
X324191D01*
X324142Y225287D01*
X323803Y226105D01*
X323264Y226807D01*
X322562Y227346D01*
X321744Y227685D01*
X321366Y227735D01*
D02*
G37*
G36*
X697413Y216232D02*
X693694D01*
X693775Y215623D01*
X694203Y214590D01*
X694884Y213703D01*
X695771Y213022D01*
X696804Y212594D01*
X697413Y212513D01*
Y216232D01*
D02*
G37*
G36*
X338008Y227772D02*
X331283D01*
Y221047D01*
X338008D01*
Y227772D01*
D02*
G37*
G36*
X320366Y223909D02*
X317541D01*
X317590Y223532D01*
X317929Y222714D01*
X318468Y222011D01*
X319170Y221473D01*
X319988Y221134D01*
X320366Y221084D01*
Y223909D01*
D02*
G37*
G36*
X779839Y261965D02*
X771343D01*
Y253468D01*
X779839D01*
Y261965D01*
D02*
G37*
G36*
X350378Y257217D02*
X346957D01*
Y253796D01*
X347489Y253866D01*
X348450Y254264D01*
X349276Y254897D01*
X349909Y255723D01*
X350308Y256685D01*
X350378Y257217D01*
D02*
G37*
G36*
X345957D02*
X342536D01*
X342606Y256685D01*
X343004Y255723D01*
X343638Y254897D01*
X344463Y254264D01*
X345425Y253866D01*
X345957Y253796D01*
Y257217D01*
D02*
G37*
G36*
X484252Y243688D02*
X456693D01*
X455779Y243567D01*
X454928Y243215D01*
X454197Y242654D01*
X453636Y241923D01*
X453283Y241071D01*
X453163Y240158D01*
X453283Y239244D01*
X453636Y238392D01*
X454197Y237661D01*
X454928Y237100D01*
X455779Y236748D01*
X456693Y236627D01*
X484252D01*
X485166Y236748D01*
X486017Y237100D01*
X486748Y237661D01*
X487309Y238392D01*
X487662Y239244D01*
X487782Y240158D01*
X487662Y241071D01*
X487309Y241923D01*
X486748Y242654D01*
X486017Y243215D01*
X485166Y243567D01*
X484252Y243688D01*
D02*
G37*
G36*
X346457Y251703D02*
X345425Y251568D01*
X344463Y251169D01*
X343638Y250536D01*
X343004Y249710D01*
X342606Y248748D01*
X342470Y247716D01*
X342606Y246685D01*
X343004Y245723D01*
X343638Y244897D01*
X344463Y244264D01*
X345425Y243865D01*
X346457Y243730D01*
X347489Y243865D01*
X348450Y244264D01*
X349276Y244897D01*
X349909Y245723D01*
X350308Y246685D01*
X350444Y247716D01*
X350308Y248748D01*
X349909Y249710D01*
X349276Y250536D01*
X348450Y251169D01*
X347489Y251568D01*
X346457Y251703D01*
D02*
G37*
G36*
X409449Y263240D02*
X408018Y263099D01*
X406642Y262682D01*
X405374Y262004D01*
X404262Y261092D01*
X403350Y259980D01*
X402673Y258712D01*
X402255Y257336D01*
X402114Y255906D01*
X402255Y254475D01*
X402673Y253099D01*
X403350Y251831D01*
X404262Y250719D01*
X405374Y249807D01*
X406642Y249129D01*
X408018Y248712D01*
X409449Y248571D01*
X410880Y248712D01*
X412256Y249129D01*
X413524Y249807D01*
X414635Y250719D01*
X415547Y251831D01*
X416225Y253099D01*
X416642Y254475D01*
X416783Y255906D01*
X416642Y257336D01*
X416225Y258712D01*
X415547Y259980D01*
X414635Y261092D01*
X413524Y262004D01*
X412256Y262682D01*
X410880Y263099D01*
X409449Y263240D01*
D02*
G37*
G36*
X702132Y216232D02*
X698413D01*
Y212513D01*
X699022Y212594D01*
X700056Y213022D01*
X700943Y213703D01*
X701624Y214590D01*
X702052Y215623D01*
X702132Y216232D01*
D02*
G37*
G36*
X687413Y200951D02*
X686804Y200871D01*
X685771Y200443D01*
X684884Y199762D01*
X684203Y198875D01*
X683775Y197841D01*
X683695Y197232D01*
X687413D01*
Y200951D01*
D02*
G37*
G36*
X688413Y200951D02*
Y197232D01*
X692132D01*
X692052Y197841D01*
X691624Y198875D01*
X690943Y199762D01*
X690056Y200443D01*
X689022Y200871D01*
X688413Y200951D01*
D02*
G37*
G36*
X650106Y201605D02*
Y197350D01*
X654361D01*
X654263Y198098D01*
X653781Y199261D01*
X653015Y200259D01*
X652017Y201025D01*
X650854Y201507D01*
X650106Y201605D01*
D02*
G37*
G36*
X687413Y196232D02*
X683695D01*
X683775Y195623D01*
X684203Y194590D01*
X684884Y193703D01*
X685771Y193022D01*
X686804Y192594D01*
X687413Y192513D01*
Y196232D01*
D02*
G37*
G36*
X736651Y200287D02*
X732783D01*
Y196420D01*
X733431Y196505D01*
X734500Y196948D01*
X735419Y197652D01*
X736123Y198571D01*
X736566Y199640D01*
X736651Y200287D01*
D02*
G37*
G36*
X731783D02*
X727916D01*
X728001Y199640D01*
X728444Y198571D01*
X729148Y197652D01*
X730067Y196948D01*
X731136Y196505D01*
X731783Y196420D01*
Y200287D01*
D02*
G37*
G36*
X687913Y211017D02*
X686804Y210871D01*
X685771Y210443D01*
X684884Y209762D01*
X684203Y208875D01*
X683775Y207841D01*
X683629Y206732D01*
X683775Y205623D01*
X684203Y204590D01*
X684884Y203703D01*
X685771Y203022D01*
X686804Y202594D01*
X687913Y202448D01*
X689022Y202594D01*
X690056Y203022D01*
X690943Y203703D01*
X691624Y204590D01*
X692052Y205623D01*
X692198Y206732D01*
X692052Y207841D01*
X691624Y208875D01*
X690943Y209762D01*
X690056Y210443D01*
X689022Y210871D01*
X687913Y211017D01*
D02*
G37*
G36*
X697913D02*
X696804Y210871D01*
X695771Y210443D01*
X694884Y209762D01*
X694203Y208875D01*
X693775Y207841D01*
X693629Y206732D01*
X693775Y205623D01*
X694203Y204590D01*
X694884Y203703D01*
X695771Y203022D01*
X696804Y202594D01*
X697913Y202448D01*
X699022Y202594D01*
X700056Y203022D01*
X700943Y203703D01*
X701624Y204590D01*
X702052Y205623D01*
X702198Y206732D01*
X702052Y207841D01*
X701624Y208875D01*
X700943Y209762D01*
X700056Y210443D01*
X699022Y210871D01*
X697913Y211017D01*
D02*
G37*
G36*
X607283Y237785D02*
X606308Y237591D01*
X605481Y237039D01*
X604928Y236212D01*
X604735Y235236D01*
X604928Y234261D01*
X605481Y233434D01*
X605754Y233251D01*
Y229347D01*
X605481Y229165D01*
X604928Y228338D01*
X604735Y227362D01*
X604928Y226387D01*
X605481Y225560D01*
X605754Y225377D01*
Y216552D01*
X605481Y216369D01*
X604928Y215542D01*
X604735Y214567D01*
X604928Y213592D01*
X605481Y212765D01*
X606308Y212212D01*
X607283Y212018D01*
X608259Y212212D01*
X609086Y212765D01*
X609638Y213592D01*
X609832Y214567D01*
X609638Y215542D01*
X609086Y216369D01*
X608813Y216552D01*
Y225377D01*
X609086Y225560D01*
X609638Y226387D01*
X609832Y227362D01*
X609638Y228338D01*
X609086Y229165D01*
X608813Y229347D01*
Y233251D01*
X609086Y233434D01*
X609638Y234261D01*
X609832Y235236D01*
X609638Y236212D01*
X609086Y237039D01*
X608259Y237591D01*
X607283Y237785D01*
D02*
G37*
G36*
X639606Y201671D02*
X638359Y201507D01*
X637196Y201025D01*
X636198Y200259D01*
X635431Y199261D01*
X634950Y198098D01*
X634886Y197612D01*
X634386Y197645D01*
Y201630D01*
X624827D01*
Y192071D01*
X634386D01*
Y196056D01*
X634886Y196089D01*
X634950Y195603D01*
X635431Y194440D01*
X636198Y193442D01*
X637196Y192675D01*
X638359Y192194D01*
X639606Y192030D01*
X640854Y192194D01*
X642017Y192675D01*
X643015Y193442D01*
X643781Y194440D01*
X644263Y195603D01*
X644354Y196296D01*
X644859D01*
X644950Y195603D01*
X645431Y194440D01*
X646198Y193442D01*
X647196Y192675D01*
X648359Y192194D01*
X649106Y192095D01*
Y196850D01*
Y201605D01*
X648359Y201507D01*
X647196Y201025D01*
X646198Y200259D01*
X645431Y199261D01*
X644950Y198098D01*
X644859Y197404D01*
X644354D01*
X644263Y198098D01*
X643781Y199261D01*
X643015Y200259D01*
X642017Y201025D01*
X640854Y201507D01*
X639606Y201671D01*
D02*
G37*
G36*
X731783Y205155D02*
X731136Y205070D01*
X730067Y204627D01*
X729148Y203922D01*
X728444Y203004D01*
X728001Y201935D01*
X727916Y201287D01*
X731783D01*
Y205155D01*
D02*
G37*
G36*
X732783Y205155D02*
Y201287D01*
X736651D01*
X736566Y201935D01*
X736123Y203004D01*
X735419Y203922D01*
X734500Y204627D01*
X733431Y205070D01*
X732783Y205155D01*
D02*
G37*
G36*
X523933Y66925D02*
X515437D01*
Y58429D01*
X523933D01*
Y66925D01*
D02*
G37*
G36*
X697913Y71017D02*
X696804Y70871D01*
X695771Y70443D01*
X694884Y69762D01*
X694203Y68875D01*
X693775Y67841D01*
X693629Y66732D01*
X693775Y65623D01*
X694203Y64590D01*
X694884Y63703D01*
X695771Y63022D01*
X696804Y62594D01*
X697819Y62460D01*
X698096Y62252D01*
X698254Y62084D01*
X698238Y62008D01*
X698347Y61464D01*
X697926Y61015D01*
X697913Y61017D01*
X696804Y60871D01*
X695771Y60443D01*
X694884Y59762D01*
X694203Y58875D01*
X693775Y57841D01*
X693629Y56732D01*
X693775Y55623D01*
X694203Y54590D01*
X694884Y53703D01*
X695771Y53022D01*
X696804Y52594D01*
X697913Y52448D01*
X699022Y52594D01*
X700056Y53022D01*
X700943Y53703D01*
X701624Y54590D01*
X702052Y55623D01*
X702198Y56732D01*
X702052Y57841D01*
X701624Y58875D01*
X701412Y59150D01*
X701589Y59618D01*
X701763Y59653D01*
X702590Y60206D01*
X703142Y61032D01*
X703336Y62008D01*
X703142Y62983D01*
X702590Y63810D01*
X701972Y64223D01*
X701760Y64447D01*
X701743Y64877D01*
X702052Y65623D01*
X702198Y66732D01*
X702052Y67841D01*
X701624Y68875D01*
X700943Y69762D01*
X700056Y70443D01*
X699022Y70871D01*
X697913Y71017D01*
D02*
G37*
G36*
X687913D02*
X686804Y70871D01*
X685771Y70443D01*
X684884Y69762D01*
X684203Y68875D01*
X683775Y67841D01*
X683629Y66732D01*
X683775Y65623D01*
X684203Y64590D01*
X684884Y63703D01*
X685771Y63022D01*
X686804Y62594D01*
X687913Y62448D01*
X689022Y62594D01*
X690056Y63022D01*
X690943Y63703D01*
X691624Y64590D01*
X692052Y65623D01*
X692198Y66732D01*
X692052Y67841D01*
X691624Y68875D01*
X690943Y69762D01*
X690056Y70443D01*
X689022Y70871D01*
X687913Y71017D01*
D02*
G37*
G36*
X732783Y55400D02*
Y51681D01*
X736502D01*
X736422Y52290D01*
X735994Y53323D01*
X735313Y54211D01*
X734426Y54892D01*
X733392Y55320D01*
X732783Y55400D01*
D02*
G37*
G36*
X687913Y61017D02*
X686804Y60871D01*
X685771Y60443D01*
X684884Y59762D01*
X684203Y58875D01*
X683775Y57841D01*
X683629Y56732D01*
X683775Y55623D01*
X684203Y54590D01*
X684884Y53703D01*
X685771Y53022D01*
X686804Y52594D01*
X687913Y52448D01*
X689022Y52594D01*
X690056Y53022D01*
X690943Y53703D01*
X691624Y54590D01*
X692052Y55623D01*
X692198Y56732D01*
X692052Y57841D01*
X691624Y58875D01*
X690943Y59762D01*
X690056Y60443D01*
X689022Y60871D01*
X687913Y61017D01*
D02*
G37*
G36*
X732283Y65466D02*
X731175Y65320D01*
X730141Y64892D01*
X729254Y64211D01*
X728573Y63323D01*
X728145Y62290D01*
X727999Y61181D01*
X728145Y60072D01*
X728573Y59039D01*
X729254Y58151D01*
X730141Y57471D01*
X731175Y57042D01*
X732283Y56896D01*
X733392Y57042D01*
X734426Y57471D01*
X735313Y58151D01*
X735994Y59039D01*
X736422Y60072D01*
X736568Y61181D01*
X736422Y62290D01*
X735994Y63323D01*
X735313Y64211D01*
X734426Y64892D01*
X733392Y65320D01*
X732283Y65466D01*
D02*
G37*
G36*
X702132Y76232D02*
X698413D01*
Y72513D01*
X699022Y72594D01*
X700056Y73022D01*
X700943Y73703D01*
X701624Y74590D01*
X702052Y75623D01*
X702132Y76232D01*
D02*
G37*
G36*
X697413D02*
X693694D01*
X693775Y75623D01*
X694203Y74590D01*
X694884Y73703D01*
X695771Y73022D01*
X696804Y72594D01*
X697413Y72513D01*
Y76232D01*
D02*
G37*
G36*
X353756Y82102D02*
X347031D01*
Y75378D01*
X353756D01*
Y82102D01*
D02*
G37*
G36*
X449685Y76962D02*
X448576Y76816D01*
X447543Y76388D01*
X446655Y75707D01*
X445974Y74819D01*
X445546Y73786D01*
X445400Y72677D01*
X445546Y71568D01*
X445974Y70535D01*
X446655Y69647D01*
X447543Y68967D01*
X448576Y68538D01*
X449685Y68392D01*
X450794Y68538D01*
X451827Y68967D01*
X452715Y69647D01*
X453396Y70535D01*
X453824Y71568D01*
X453970Y72677D01*
X453824Y73786D01*
X453396Y74819D01*
X452715Y75707D01*
X451827Y76388D01*
X450794Y76816D01*
X449685Y76962D01*
D02*
G37*
G36*
X519685D02*
X518576Y76816D01*
X517543Y76388D01*
X516655Y75707D01*
X515974Y74819D01*
X515546Y73786D01*
X515400Y72677D01*
X515546Y71568D01*
X515974Y70535D01*
X516655Y69647D01*
X517543Y68967D01*
X518576Y68538D01*
X519685Y68392D01*
X520794Y68538D01*
X521827Y68967D01*
X522715Y69647D01*
X523396Y70535D01*
X523824Y71568D01*
X523970Y72677D01*
X523824Y73786D01*
X523396Y74819D01*
X522715Y75707D01*
X521827Y76388D01*
X520794Y76816D01*
X519685Y76962D01*
D02*
G37*
G36*
X687913Y81017D02*
X686804Y80871D01*
X685771Y80443D01*
X684884Y79762D01*
X684203Y78875D01*
X683775Y77841D01*
X683629Y76732D01*
X683775Y75623D01*
X684203Y74590D01*
X684884Y73703D01*
X685771Y73022D01*
X686804Y72594D01*
X687913Y72448D01*
X689022Y72594D01*
X690056Y73022D01*
X690943Y73703D01*
X691624Y74590D01*
X692052Y75623D01*
X692198Y76732D01*
X692052Y77841D01*
X691624Y78875D01*
X690943Y79762D01*
X690056Y80443D01*
X689022Y80871D01*
X687913Y81017D01*
D02*
G37*
G36*
X731783Y55400D02*
X731175Y55320D01*
X730141Y54892D01*
X729254Y54211D01*
X728573Y53323D01*
X728145Y52290D01*
X728065Y51681D01*
X731783D01*
Y55400D01*
D02*
G37*
G36*
X602362Y27907D02*
X601253Y27761D01*
X600220Y27333D01*
X599333Y26652D01*
X598652Y25764D01*
X598223Y24731D01*
X598077Y23622D01*
X598223Y22513D01*
X598652Y21480D01*
X599333Y20592D01*
X600220Y19911D01*
X601253Y19483D01*
X602362Y19337D01*
X603471Y19483D01*
X604504Y19911D01*
X605392Y20592D01*
X606073Y21480D01*
X606501Y22513D01*
X606647Y23622D01*
X606501Y24731D01*
X606073Y25764D01*
X605392Y26652D01*
X604504Y27333D01*
X603471Y27761D01*
X602362Y27907D01*
D02*
G37*
G36*
X616610Y27870D02*
X608114D01*
Y19374D01*
X616610D01*
Y27870D01*
D02*
G37*
G36*
X409449Y34894D02*
X408018Y34753D01*
X406642Y34335D01*
X405374Y33658D01*
X404262Y32745D01*
X403350Y31634D01*
X402673Y30366D01*
X402255Y28990D01*
X402114Y27559D01*
X402255Y26128D01*
X402673Y24752D01*
X403350Y23484D01*
X404262Y22373D01*
X405374Y21461D01*
X406642Y20783D01*
X408018Y20366D01*
X409449Y20224D01*
X410880Y20366D01*
X412256Y20783D01*
X413524Y21461D01*
X414635Y22373D01*
X415547Y23484D01*
X416225Y24752D01*
X416642Y26128D01*
X416783Y27559D01*
X416642Y28990D01*
X416225Y30366D01*
X415547Y31634D01*
X414635Y32745D01*
X413524Y33658D01*
X412256Y34335D01*
X410880Y34753D01*
X409449Y34894D01*
D02*
G37*
G36*
X19685Y32536D02*
X17675Y32377D01*
X15714Y31907D01*
X13851Y31135D01*
X12132Y30081D01*
X10598Y28772D01*
X9289Y27239D01*
X8235Y25519D01*
X7463Y23656D01*
X6993Y21695D01*
X6834Y19685D01*
X6993Y17675D01*
X7463Y15714D01*
X8235Y13851D01*
X9289Y12132D01*
X10598Y10598D01*
X12132Y9289D01*
X13851Y8235D01*
X15714Y7463D01*
X17675Y6993D01*
X19685Y6834D01*
X21695Y6993D01*
X23656Y7463D01*
X25519Y8235D01*
X27239Y9289D01*
X28772Y10598D01*
X30081Y12132D01*
X31135Y13851D01*
X31907Y15714D01*
X32377Y17675D01*
X32536Y19685D01*
X32377Y21695D01*
X31907Y23656D01*
X31135Y25519D01*
X30081Y27239D01*
X28772Y28772D01*
X27239Y30081D01*
X25519Y31135D01*
X23656Y31907D01*
X21695Y32377D01*
X19685Y32536D01*
D02*
G37*
G36*
X767717D02*
X765706Y32377D01*
X763745Y31907D01*
X761882Y31135D01*
X760163Y30081D01*
X758630Y28772D01*
X757320Y27239D01*
X756266Y25519D01*
X755495Y23656D01*
X755024Y21695D01*
X754866Y19685D01*
X755024Y17675D01*
X755495Y15714D01*
X756266Y13851D01*
X757320Y12132D01*
X758630Y10598D01*
X760163Y9289D01*
X761882Y8235D01*
X763745Y7463D01*
X765706Y6993D01*
X767717Y6834D01*
X769727Y6993D01*
X771688Y7463D01*
X773551Y8235D01*
X775270Y9289D01*
X776803Y10598D01*
X778113Y12132D01*
X779167Y13851D01*
X779938Y15714D01*
X780409Y17675D01*
X780567Y19685D01*
X780409Y21695D01*
X779938Y23656D01*
X779167Y25519D01*
X778113Y27239D01*
X776803Y28772D01*
X775270Y30081D01*
X773551Y31135D01*
X771688Y31907D01*
X769727Y32377D01*
X767717Y32536D01*
D02*
G37*
G36*
X592362Y27907D02*
X591253Y27761D01*
X590220Y27333D01*
X589332Y26652D01*
X588652Y25764D01*
X588224Y24731D01*
X588077Y23622D01*
X588224Y22513D01*
X588652Y21480D01*
X589332Y20592D01*
X590220Y19911D01*
X591253Y19483D01*
X592362Y19337D01*
X593471Y19483D01*
X594504Y19911D01*
X595392Y20592D01*
X596073Y21480D01*
X596501Y22513D01*
X596647Y23622D01*
X596501Y24731D01*
X596073Y25764D01*
X595392Y26652D01*
X594504Y27333D01*
X593471Y27761D01*
X592362Y27907D01*
D02*
G37*
G36*
X731783Y50681D02*
X728065D01*
X728145Y50072D01*
X728573Y49039D01*
X729254Y48151D01*
X730141Y47470D01*
X731175Y47042D01*
X731783Y46962D01*
Y50681D01*
D02*
G37*
G36*
X687413Y50951D02*
X686804Y50871D01*
X685771Y50443D01*
X684884Y49762D01*
X684203Y48875D01*
X683775Y47841D01*
X683695Y47232D01*
X687413D01*
Y50951D01*
D02*
G37*
G36*
X688413Y50951D02*
Y47232D01*
X692132D01*
X692052Y47841D01*
X691624Y48875D01*
X690943Y49762D01*
X690056Y50443D01*
X689022Y50871D01*
X688413Y50951D01*
D02*
G37*
G36*
X748032Y34894D02*
X746601Y34753D01*
X745225Y34335D01*
X743957Y33658D01*
X742845Y32745D01*
X741933Y31634D01*
X741255Y30366D01*
X740838Y28990D01*
X740697Y27559D01*
X740838Y26128D01*
X741255Y24752D01*
X741933Y23484D01*
X742845Y22373D01*
X743957Y21461D01*
X745225Y20783D01*
X746601Y20366D01*
X748032Y20224D01*
X749462Y20366D01*
X750838Y20783D01*
X752106Y21461D01*
X753218Y22373D01*
X754130Y23484D01*
X754808Y24752D01*
X755225Y26128D01*
X755366Y27559D01*
X755225Y28990D01*
X754808Y30366D01*
X754130Y31634D01*
X753218Y32745D01*
X752106Y33658D01*
X750838Y34335D01*
X749462Y34753D01*
X748032Y34894D01*
D02*
G37*
G36*
X371220Y34507D02*
X369932Y34337D01*
X368731Y33840D01*
X367699Y33049D01*
X366908Y32017D01*
X366491Y31011D01*
X365950D01*
X365533Y32017D01*
X364742Y33049D01*
X363710Y33840D01*
X362509Y34337D01*
X361720Y34441D01*
Y29528D01*
Y24614D01*
X362509Y24718D01*
X363710Y25215D01*
X364742Y26006D01*
X365533Y27038D01*
X365950Y28044D01*
X366491D01*
X366908Y27038D01*
X367699Y26006D01*
X368731Y25215D01*
X369932Y24718D01*
X371220Y24548D01*
X372509Y24718D01*
X373710Y25215D01*
X374742Y26006D01*
X375533Y27038D01*
X376030Y28239D01*
X376200Y29528D01*
X376030Y30816D01*
X375533Y32017D01*
X374742Y33049D01*
X373710Y33840D01*
X372509Y34337D01*
X371220Y34507D01*
D02*
G37*
G36*
X736502Y50681D02*
X732783D01*
Y46962D01*
X733392Y47042D01*
X734426Y47470D01*
X735313Y48151D01*
X735994Y49039D01*
X736422Y50072D01*
X736502Y50681D01*
D02*
G37*
G36*
X363673Y78240D02*
X360848D01*
X360898Y77863D01*
X361236Y77045D01*
X361775Y76342D01*
X362478Y75803D01*
X363296Y75464D01*
X363673Y75415D01*
Y78240D01*
D02*
G37*
G36*
X698413Y100951D02*
Y97232D01*
X702132D01*
X702052Y97841D01*
X701624Y98875D01*
X700943Y99762D01*
X700056Y100443D01*
X699022Y100871D01*
X698413Y100951D01*
D02*
G37*
G36*
X449685Y106962D02*
X448576Y106816D01*
X447543Y106388D01*
X446655Y105707D01*
X445974Y104820D01*
X445546Y103786D01*
X445400Y102677D01*
X445546Y101568D01*
X445974Y100535D01*
X446655Y99647D01*
X447543Y98966D01*
X448576Y98539D01*
X449685Y98392D01*
X450794Y98539D01*
X451827Y98966D01*
X452715Y99647D01*
X453396Y100535D01*
X453824Y101568D01*
X453970Y102677D01*
X453824Y103786D01*
X453396Y104820D01*
X452715Y105707D01*
X451827Y106388D01*
X450794Y106816D01*
X449685Y106962D01*
D02*
G37*
G36*
X639606Y107183D02*
X638359Y107019D01*
X637196Y106537D01*
X636198Y105771D01*
X635431Y104773D01*
X634950Y103610D01*
X634886Y103124D01*
X634386Y103157D01*
Y107142D01*
X624827D01*
Y97583D01*
X634386D01*
Y101568D01*
X634886Y101600D01*
X634950Y101114D01*
X635431Y99952D01*
X636198Y98953D01*
X637196Y98187D01*
X638359Y97706D01*
X639606Y97541D01*
X640854Y97706D01*
X642017Y98187D01*
X643015Y98953D01*
X643781Y99952D01*
X644263Y101114D01*
X644354Y101808D01*
X644859D01*
X644950Y101114D01*
X645431Y99952D01*
X646198Y98953D01*
X647196Y98187D01*
X648359Y97706D01*
X649106Y97607D01*
Y102362D01*
Y107117D01*
X648359Y107019D01*
X647196Y106537D01*
X646198Y105771D01*
X645431Y104773D01*
X644950Y103610D01*
X644859Y102916D01*
X644354D01*
X644263Y103610D01*
X643781Y104773D01*
X643015Y105771D01*
X642017Y106537D01*
X640854Y107019D01*
X639606Y107183D01*
D02*
G37*
G36*
X702132Y96232D02*
X698413D01*
Y92513D01*
X699022Y92594D01*
X700056Y93022D01*
X700943Y93703D01*
X701624Y94590D01*
X702052Y95623D01*
X702132Y96232D01*
D02*
G37*
G36*
X697413D02*
X693694D01*
X693775Y95623D01*
X694203Y94590D01*
X694884Y93703D01*
X695771Y93022D01*
X696804Y92594D01*
X697413Y92513D01*
Y96232D01*
D02*
G37*
G36*
Y100951D02*
X696804Y100871D01*
X695771Y100443D01*
X694884Y99762D01*
X694203Y98875D01*
X693775Y97841D01*
X693694Y97232D01*
X697413D01*
Y100951D01*
D02*
G37*
G36*
X665748Y142080D02*
X664639Y141934D01*
X663606Y141506D01*
X662718Y140825D01*
X662037Y139938D01*
X661609Y138904D01*
X661463Y137795D01*
X661609Y136686D01*
X662037Y135653D01*
X662718Y134766D01*
X663606Y134085D01*
X664639Y133657D01*
X665748Y133511D01*
X666857Y133657D01*
X667890Y134085D01*
X668778Y134766D01*
X669459Y135653D01*
X669607Y136011D01*
X676426D01*
X681809Y130628D01*
X681809Y130628D01*
X682388Y130241D01*
X683071Y130105D01*
X683071Y130105D01*
X684549D01*
X684559Y130095D01*
X684763Y129605D01*
X684203Y128875D01*
X683775Y127841D01*
X683629Y126732D01*
X683775Y125623D01*
X684203Y124590D01*
X684884Y123703D01*
X685771Y123022D01*
X686804Y122594D01*
X687913Y122448D01*
X689022Y122594D01*
X690056Y123022D01*
X690943Y123703D01*
X691624Y124590D01*
X692052Y125623D01*
X692198Y126732D01*
X692052Y127841D01*
X691624Y128875D01*
X691183Y129450D01*
X691429Y129950D01*
X694398D01*
X694644Y129450D01*
X694203Y128875D01*
X693775Y127841D01*
X693629Y126732D01*
X693775Y125623D01*
X694203Y124590D01*
X694884Y123703D01*
X695771Y123022D01*
X696804Y122594D01*
X697913Y122448D01*
X699022Y122594D01*
X700056Y123022D01*
X700943Y123703D01*
X701624Y124590D01*
X702052Y125623D01*
X702198Y126732D01*
X702052Y127841D01*
X701624Y128875D01*
X701063Y129605D01*
X701267Y130095D01*
X701278Y130105D01*
X727837D01*
X727999Y129921D01*
X728145Y128812D01*
X728573Y127779D01*
X729254Y126892D01*
X730141Y126211D01*
X731175Y125783D01*
X732283Y125637D01*
X733392Y125783D01*
X734426Y126211D01*
X735313Y126892D01*
X735994Y127779D01*
X736422Y128812D01*
X736568Y129921D01*
X736422Y131030D01*
X735994Y132064D01*
X735313Y132951D01*
X734426Y133632D01*
X733392Y134060D01*
X732283Y134206D01*
X731175Y134060D01*
X730243Y133674D01*
X701551D01*
X701305Y134174D01*
X701624Y134590D01*
X702052Y135623D01*
X702198Y136732D01*
X702052Y137841D01*
X701624Y138875D01*
X700943Y139762D01*
X700056Y140443D01*
X699022Y140871D01*
X697913Y141017D01*
X696804Y140871D01*
X695771Y140443D01*
X694884Y139762D01*
X694203Y138875D01*
X693775Y137841D01*
X693629Y136732D01*
X693775Y135623D01*
X694203Y134590D01*
X694641Y134019D01*
X694395Y133519D01*
X691432D01*
X691186Y134019D01*
X691624Y134590D01*
X692052Y135623D01*
X692198Y136732D01*
X692052Y137841D01*
X691624Y138875D01*
X690943Y139762D01*
X690056Y140443D01*
X689022Y140871D01*
X687913Y141017D01*
X686804Y140871D01*
X685771Y140443D01*
X684884Y139762D01*
X684203Y138875D01*
X683775Y137841D01*
X683629Y136732D01*
X683775Y135623D01*
X684203Y134590D01*
X684522Y134174D01*
X684275Y133674D01*
X683810D01*
X678427Y139057D01*
X677848Y139444D01*
X677165Y139580D01*
X669607D01*
X669459Y139938D01*
X668778Y140825D01*
X667890Y141506D01*
X666857Y141934D01*
X665748Y142080D01*
D02*
G37*
G36*
X412811Y143126D02*
X406087D01*
Y136402D01*
X412811D01*
Y143126D01*
D02*
G37*
G36*
X687913Y151017D02*
X686804Y150871D01*
X685771Y150443D01*
X684884Y149762D01*
X684203Y148875D01*
X683775Y147841D01*
X683629Y146732D01*
X683775Y145623D01*
X684203Y144590D01*
X684884Y143703D01*
X685771Y143022D01*
X686804Y142594D01*
X687913Y142448D01*
X689022Y142594D01*
X690056Y143022D01*
X690943Y143703D01*
X691624Y144590D01*
X692052Y145623D01*
X692198Y146732D01*
X692052Y147841D01*
X691624Y148875D01*
X690943Y149762D01*
X690056Y150443D01*
X689022Y150871D01*
X687913Y151017D01*
D02*
G37*
G36*
X519685Y116962D02*
X518576Y116816D01*
X517543Y116388D01*
X516655Y115707D01*
X515974Y114820D01*
X515546Y113786D01*
X515400Y112677D01*
X515546Y111568D01*
X515974Y110535D01*
X516655Y109647D01*
X517543Y108967D01*
X518576Y108538D01*
X519685Y108393D01*
X520794Y108538D01*
X521827Y108967D01*
X522715Y109647D01*
X523396Y110535D01*
X523824Y111568D01*
X523970Y112677D01*
X523824Y113786D01*
X523396Y114820D01*
X522715Y115707D01*
X521827Y116388D01*
X520794Y116816D01*
X519685Y116962D01*
D02*
G37*
G36*
X687413Y120951D02*
X686804Y120871D01*
X685771Y120443D01*
X684884Y119762D01*
X684203Y118875D01*
X683775Y117841D01*
X683695Y117232D01*
X687413D01*
Y120951D01*
D02*
G37*
G36*
X688413Y120951D02*
Y117232D01*
X692132D01*
X692052Y117841D01*
X691624Y118875D01*
X690943Y119762D01*
X690056Y120443D01*
X689022Y120871D01*
X688413Y120951D01*
D02*
G37*
G36*
X449685Y96962D02*
X448576Y96816D01*
X447543Y96388D01*
X446655Y95707D01*
X445974Y94819D01*
X445546Y93786D01*
X445400Y92677D01*
X445546Y91568D01*
X445974Y90535D01*
X446655Y89647D01*
X447543Y88967D01*
X448576Y88538D01*
X449685Y88393D01*
X450794Y88538D01*
X451827Y88967D01*
X452715Y89647D01*
X453396Y90535D01*
X453824Y91568D01*
X453970Y92677D01*
X453824Y93786D01*
X453396Y94819D01*
X452715Y95707D01*
X451827Y96388D01*
X450794Y96816D01*
X449685Y96962D01*
D02*
G37*
G36*
Y86962D02*
X448576Y86816D01*
X447543Y86388D01*
X446655Y85707D01*
X445974Y84820D01*
X445546Y83786D01*
X445400Y82677D01*
X445546Y81568D01*
X445974Y80535D01*
X446655Y79647D01*
X447543Y78966D01*
X448576Y78539D01*
X449685Y78392D01*
X450794Y78539D01*
X451827Y78966D01*
X452715Y79647D01*
X453396Y80535D01*
X453824Y81568D01*
X453970Y82677D01*
X453824Y83786D01*
X453396Y84820D01*
X452715Y85707D01*
X451827Y86388D01*
X450794Y86816D01*
X449685Y86962D01*
D02*
G37*
G36*
X523904Y82177D02*
X520185D01*
Y78458D01*
X520794Y78539D01*
X521827Y78966D01*
X522715Y79647D01*
X523396Y80535D01*
X523824Y81568D01*
X523904Y82177D01*
D02*
G37*
G36*
X519185D02*
X515466D01*
X515546Y81568D01*
X515974Y80535D01*
X516655Y79647D01*
X517543Y78966D01*
X518576Y78539D01*
X519185Y78458D01*
Y82177D01*
D02*
G37*
G36*
X367499Y78240D02*
X364673D01*
Y75415D01*
X365051Y75464D01*
X365869Y75803D01*
X366571Y76342D01*
X367110Y77045D01*
X367449Y77863D01*
X367499Y78240D01*
D02*
G37*
G36*
X697413Y80951D02*
X696804Y80871D01*
X695771Y80443D01*
X694884Y79762D01*
X694203Y78875D01*
X693775Y77841D01*
X693694Y77232D01*
X697413D01*
Y80951D01*
D02*
G37*
G36*
X698413Y80951D02*
Y77232D01*
X702132D01*
X702052Y77841D01*
X701624Y78875D01*
X700943Y79762D01*
X700056Y80443D01*
X699022Y80871D01*
X698413Y80951D01*
D02*
G37*
G36*
X697913Y91017D02*
X696804Y90871D01*
X695771Y90443D01*
X694884Y89762D01*
X694203Y88875D01*
X693775Y87841D01*
X693629Y86732D01*
X693775Y85623D01*
X694203Y84590D01*
X694884Y83703D01*
X695771Y83022D01*
X696804Y82594D01*
X697913Y82448D01*
X699022Y82594D01*
X700056Y83022D01*
X700943Y83703D01*
X701624Y84590D01*
X702052Y85623D01*
X702198Y86732D01*
X702052Y87841D01*
X701624Y88875D01*
X700943Y89762D01*
X700056Y90443D01*
X699022Y90871D01*
X697913Y91017D01*
D02*
G37*
G36*
X519185Y86896D02*
X518576Y86816D01*
X517543Y86388D01*
X516655Y85707D01*
X515974Y84820D01*
X515546Y83786D01*
X515466Y83177D01*
X519185D01*
Y86896D01*
D02*
G37*
G36*
X520185D02*
Y83177D01*
X523904D01*
X523824Y83786D01*
X523396Y84820D01*
X522715Y85707D01*
X521827Y86388D01*
X520794Y86816D01*
X520185Y86896D01*
D02*
G37*
G36*
X363673Y82065D02*
X363296Y82016D01*
X362478Y81677D01*
X361775Y81138D01*
X361236Y80436D01*
X360898Y79618D01*
X360848Y79240D01*
X363673D01*
Y82065D01*
D02*
G37*
G36*
X364673D02*
Y79240D01*
X367499D01*
X367449Y79618D01*
X367110Y80436D01*
X366571Y81138D01*
X365869Y81677D01*
X365051Y82016D01*
X364673Y82065D01*
D02*
G37*
G36*
X687913Y91017D02*
X686804Y90871D01*
X685771Y90443D01*
X684884Y89762D01*
X684203Y88875D01*
X683775Y87841D01*
X683629Y86732D01*
X683775Y85623D01*
X684203Y84590D01*
X684884Y83703D01*
X685771Y83022D01*
X686804Y82594D01*
X687913Y82448D01*
X689022Y82594D01*
X690056Y83022D01*
X690943Y83703D01*
X691624Y84590D01*
X692052Y85623D01*
X692198Y86732D01*
X692052Y87841D01*
X691624Y88875D01*
X690943Y89762D01*
X690056Y90443D01*
X689022Y90871D01*
X687913Y91017D01*
D02*
G37*
G36*
X728346Y349006D02*
X727371Y348812D01*
X726544Y348259D01*
X725991Y347432D01*
X725798Y346457D01*
X725991Y345481D01*
X726544Y344654D01*
X726817Y344472D01*
Y332694D01*
X726544Y332511D01*
X725991Y331684D01*
X725798Y330709D01*
X725991Y329733D01*
X726544Y328906D01*
X726817Y328724D01*
Y316945D01*
X726544Y316763D01*
X725991Y315936D01*
X725798Y314961D01*
X725991Y313985D01*
X726544Y313158D01*
X726817Y312976D01*
Y301197D01*
X726544Y301015D01*
X725991Y300188D01*
X725798Y299213D01*
X725991Y298237D01*
X726544Y297410D01*
X726817Y297228D01*
Y293941D01*
X690881Y258005D01*
X690420Y258251D01*
X690541Y258858D01*
X690347Y259834D01*
X689794Y260661D01*
X688968Y261213D01*
X687992Y261407D01*
X687017Y261213D01*
X686190Y260661D01*
X686007Y260388D01*
X667956D01*
X650151Y278192D01*
Y304485D01*
X652499Y306832D01*
X652830Y307328D01*
X652947Y307913D01*
Y311165D01*
X653220Y311347D01*
X653772Y312174D01*
X653966Y313150D01*
X653772Y314125D01*
X653220Y314952D01*
X652947Y315134D01*
Y320039D01*
X652830Y320625D01*
X652499Y321121D01*
X645766Y327853D01*
X645270Y328185D01*
X644685Y328301D01*
X635843D01*
X635661Y328574D01*
X634834Y329127D01*
X633858Y329321D01*
X632883Y329127D01*
X632056Y328574D01*
X631503Y327747D01*
X631309Y326772D01*
X631503Y325796D01*
X632056Y324969D01*
X632883Y324417D01*
X633261Y324341D01*
X633337Y324219D01*
X633411Y323802D01*
X630243Y320635D01*
X629921Y320699D01*
X628946Y320505D01*
X628119Y319952D01*
X627566Y319125D01*
X627372Y318150D01*
X627566Y317174D01*
X628119Y316347D01*
X628392Y316165D01*
Y268953D01*
X628119Y268771D01*
X627936Y268498D01*
X624252D01*
X623667Y268382D01*
X623171Y268050D01*
X597391Y242270D01*
X597059Y241774D01*
X596943Y241189D01*
Y204326D01*
X596502Y204090D01*
X596448Y204127D01*
X595472Y204321D01*
X594497Y204127D01*
X593670Y203574D01*
X593612Y203487D01*
X593112Y203639D01*
Y208920D01*
X592996Y209505D01*
X592664Y210001D01*
X587293Y215373D01*
X586796Y215704D01*
X586211Y215821D01*
X582969D01*
X582787Y216094D01*
X581960Y216646D01*
X580984Y216840D01*
X580009Y216646D01*
X579182Y216094D01*
X578629Y215267D01*
X578435Y214291D01*
X578499Y213969D01*
X576903Y212373D01*
X576571Y211877D01*
X576455Y211291D01*
Y114316D01*
X576571Y113731D01*
X576903Y113234D01*
X582815Y107322D01*
X582751Y107000D01*
X582945Y106025D01*
X583498Y105198D01*
X584325Y104645D01*
X585300Y104451D01*
X586275Y104645D01*
X587102Y105198D01*
X587655Y106025D01*
X587849Y107000D01*
X587655Y107975D01*
X587102Y108802D01*
X586275Y109355D01*
X585300Y109549D01*
X584978Y109485D01*
X579514Y114949D01*
Y117249D01*
X579955Y117484D01*
X580009Y117448D01*
X580984Y117254D01*
X581960Y117448D01*
X582230Y117629D01*
X582671Y117393D01*
Y116587D01*
X582787Y116002D01*
X583119Y115506D01*
X590901Y107724D01*
X590837Y107402D01*
X591031Y106426D01*
X591583Y105599D01*
X592410Y105047D01*
X593386Y104853D01*
X594361Y105047D01*
X595188Y105599D01*
X595741Y106426D01*
X595935Y107402D01*
X595741Y108377D01*
X595188Y109204D01*
X594361Y109757D01*
X593386Y109950D01*
X593064Y109887D01*
X585729Y117221D01*
Y152115D01*
X586002Y152298D01*
X586555Y153124D01*
X586749Y154100D01*
X586555Y155076D01*
X586002Y155902D01*
X585729Y156085D01*
Y199115D01*
X586002Y199298D01*
X586555Y200125D01*
X586749Y201100D01*
X586555Y202076D01*
X586002Y202902D01*
X585176Y203455D01*
X585112Y203468D01*
X584966Y203946D01*
X587261Y206241D01*
X587590Y206307D01*
X588417Y206859D01*
X588969Y207686D01*
X589131Y208501D01*
X589623Y208716D01*
X590053Y208286D01*
Y156449D01*
X590170Y155864D01*
X590501Y155367D01*
X590901Y154968D01*
X590837Y154646D01*
X591031Y153670D01*
X591583Y152843D01*
X592410Y152291D01*
X593386Y152097D01*
X594361Y152291D01*
X595188Y152843D01*
X595741Y153670D01*
X595935Y154646D01*
X595741Y155621D01*
X595188Y156448D01*
X594361Y157001D01*
X593386Y157195D01*
X593112Y157419D01*
Y199904D01*
X593612Y200056D01*
X593670Y199969D01*
X594497Y199417D01*
X595472Y199223D01*
X596448Y199417D01*
X596502Y199453D01*
X596943Y199217D01*
Y70440D01*
X596481Y70249D01*
X562971Y103759D01*
X562475Y104090D01*
X561890Y104207D01*
X523650D01*
X523396Y104820D01*
X522715Y105707D01*
X521827Y106388D01*
X520794Y106816D01*
X519685Y106962D01*
X518576Y106816D01*
X517543Y106388D01*
X516655Y105707D01*
X515974Y104820D01*
X515546Y103786D01*
X515400Y102677D01*
X515546Y101568D01*
X515974Y100535D01*
X516655Y99647D01*
X517543Y98966D01*
X518576Y98539D01*
X519685Y98392D01*
X520794Y98539D01*
X521827Y98966D01*
X522715Y99647D01*
X523396Y100535D01*
X523650Y101148D01*
X561256D01*
X595547Y66857D01*
X595482Y66535D01*
X595677Y65560D01*
X596229Y64733D01*
X597056Y64180D01*
X598032Y63986D01*
X599007Y64180D01*
X599834Y64733D01*
X600386Y65560D01*
X600581Y66535D01*
X600386Y67511D01*
X600002Y68086D01*
Y240556D01*
X600333Y240886D01*
X600833Y240679D01*
Y70079D01*
X600949Y69494D01*
X601281Y68997D01*
X603421Y66857D01*
X603357Y66535D01*
X603421Y66213D01*
X598776Y61569D01*
X592169D01*
X559979Y93759D01*
X559483Y94090D01*
X558898Y94207D01*
X523650D01*
X523396Y94819D01*
X522715Y95707D01*
X521827Y96388D01*
X520794Y96816D01*
X519685Y96962D01*
X518576Y96816D01*
X517543Y96388D01*
X516655Y95707D01*
X515974Y94819D01*
X515546Y93786D01*
X515400Y92677D01*
X515546Y91568D01*
X515974Y90535D01*
X516655Y89647D01*
X517543Y88967D01*
X518576Y88538D01*
X519685Y88393D01*
X520794Y88538D01*
X521827Y88967D01*
X522715Y89647D01*
X523396Y90535D01*
X523650Y91148D01*
X558264D01*
X590454Y58958D01*
X590950Y58626D01*
X591535Y58510D01*
X598947D01*
X599154Y58010D01*
X591099Y49955D01*
X577575D01*
X577393Y50228D01*
X576566Y50780D01*
X575591Y50974D01*
X574615Y50780D01*
X573788Y50228D01*
X573236Y49401D01*
X573042Y48425D01*
X573236Y47450D01*
X573788Y46623D01*
X574615Y46070D01*
X575591Y45876D01*
X576566Y46070D01*
X577393Y46623D01*
X577575Y46896D01*
X591732D01*
X592318Y47012D01*
X592814Y47344D01*
X604763Y59293D01*
X604930Y59180D01*
X605905Y58987D01*
X606881Y59180D01*
X607695Y59724D01*
X607936Y59679D01*
X608195Y59600D01*
Y42396D01*
X397638D01*
X396855Y42293D01*
X396125Y41991D01*
X395498Y41510D01*
X383687Y29699D01*
X383206Y29072D01*
X382904Y28342D01*
X382801Y27559D01*
Y24875D01*
X380636Y22711D01*
X359521D01*
X355386Y26846D01*
X355533Y27038D01*
X355950Y28044D01*
X356491D01*
X356908Y27038D01*
X357699Y26006D01*
X358731Y25215D01*
X359932Y24718D01*
X360720Y24614D01*
Y29528D01*
Y34441D01*
X359932Y34337D01*
X358731Y33840D01*
X357699Y33049D01*
X356908Y32017D01*
X356491Y31011D01*
X355950D01*
X355533Y32017D01*
X354742Y33049D01*
X353710Y33840D01*
X352509Y34337D01*
X351220Y34507D01*
X349932Y34337D01*
X348731Y33840D01*
X347699Y33049D01*
X346908Y32017D01*
X346410Y30816D01*
X346241Y29528D01*
X346410Y28239D01*
X346908Y27038D01*
X347699Y26006D01*
X348542Y25360D01*
X348600Y25219D01*
X349081Y24593D01*
X356128Y17545D01*
X356128Y17545D01*
X356755Y17064D01*
X357485Y16762D01*
X358268Y16659D01*
X358268Y16659D01*
X381890D01*
X382673Y16762D01*
X383403Y17064D01*
X384029Y17545D01*
X387966Y21482D01*
X388447Y22109D01*
X388750Y22839D01*
X388853Y23622D01*
Y26306D01*
X398891Y36344D01*
X708661D01*
X709445Y36447D01*
X710174Y36750D01*
X710801Y37231D01*
X718675Y45104D01*
X718675Y45105D01*
X719156Y45731D01*
X719458Y46461D01*
X719561Y47244D01*
X719561Y47244D01*
Y65676D01*
X727573Y73688D01*
X728035Y73497D01*
Y66933D01*
X736531D01*
Y75429D01*
X729968D01*
X729777Y75891D01*
X744423Y90538D01*
X744904Y91164D01*
X745206Y91894D01*
X745309Y92677D01*
Y96299D01*
X745206Y97082D01*
X744904Y97812D01*
X744423Y98439D01*
X736563Y106299D01*
X746234Y115971D01*
X746715Y116597D01*
X747017Y117327D01*
X747120Y118110D01*
Y129921D01*
X747017Y130704D01*
X746715Y131434D01*
X746234Y132061D01*
X746234Y132061D01*
X737468Y140827D01*
X746234Y149593D01*
X746234Y149593D01*
X746715Y150219D01*
X747017Y150949D01*
X747120Y151732D01*
Y163543D01*
X747017Y164327D01*
X746715Y165056D01*
X746234Y165683D01*
X736531Y175386D01*
Y179602D01*
X728035D01*
Y171106D01*
X732252D01*
X733357Y170002D01*
X733123Y169528D01*
X732283Y169639D01*
X731175Y169493D01*
X730141Y169065D01*
X729254Y168384D01*
X728573Y167497D01*
X728425Y167139D01*
X725148D01*
X719295Y172992D01*
X718716Y173379D01*
X718034Y173515D01*
X701429D01*
X701183Y174015D01*
X701624Y174590D01*
X702052Y175623D01*
X702132Y176232D01*
X697913D01*
X693694D01*
X693775Y175623D01*
X694203Y174590D01*
X694644Y174015D01*
X694398Y173515D01*
X691429D01*
X691183Y174015D01*
X691624Y174590D01*
X692052Y175623D01*
X692198Y176732D01*
X692052Y177841D01*
X691624Y178875D01*
X690943Y179762D01*
X690056Y180443D01*
X689022Y180871D01*
X687913Y181017D01*
X686804Y180871D01*
X685771Y180443D01*
X684884Y179762D01*
X684203Y178875D01*
X683775Y177841D01*
X683629Y176732D01*
X683775Y175623D01*
X684203Y174590D01*
X684644Y174015D01*
X684398Y173515D01*
X679796D01*
X669738Y183572D01*
X669887Y183930D01*
X670033Y185039D01*
X669887Y186148D01*
X669459Y187182D01*
X668778Y188069D01*
X667890Y188750D01*
X666857Y189178D01*
X665748Y189324D01*
X664639Y189178D01*
X663606Y188750D01*
X662718Y188069D01*
X662037Y187182D01*
X661609Y186148D01*
X661463Y185039D01*
X661609Y183930D01*
X662037Y182897D01*
X662718Y182010D01*
X663606Y181329D01*
X664639Y180901D01*
X665748Y180755D01*
X666857Y180901D01*
X667215Y181049D01*
X677795Y170469D01*
X678374Y170082D01*
X679057Y169946D01*
X679057Y169946D01*
X684395D01*
X684641Y169446D01*
X684203Y168875D01*
X683775Y167841D01*
X683629Y166732D01*
X683775Y165623D01*
X684203Y164590D01*
X684884Y163703D01*
X685771Y163022D01*
X686804Y162594D01*
X687913Y162448D01*
X689022Y162594D01*
X690056Y163022D01*
X690943Y163703D01*
X691624Y164590D01*
X692052Y165623D01*
X692198Y166732D01*
X692052Y167841D01*
X691624Y168875D01*
X691186Y169446D01*
X691432Y169946D01*
X694395D01*
X694641Y169446D01*
X694203Y168875D01*
X693775Y167841D01*
X693629Y166732D01*
X693775Y165623D01*
X694203Y164590D01*
X694884Y163703D01*
X695771Y163022D01*
X696804Y162594D01*
X697913Y162448D01*
X699022Y162594D01*
X700056Y163022D01*
X700943Y163703D01*
X701624Y164590D01*
X702052Y165623D01*
X702198Y166732D01*
X702052Y167841D01*
X701624Y168875D01*
X701186Y169446D01*
X701432Y169946D01*
X717294D01*
X723148Y164093D01*
X723727Y163706D01*
X724409Y163570D01*
X728425D01*
X728573Y163212D01*
X729254Y162325D01*
X730141Y161644D01*
X731175Y161216D01*
X732283Y161070D01*
X733392Y161216D01*
X734426Y161644D01*
X735313Y162325D01*
X735994Y163212D01*
X736422Y164245D01*
X736568Y165354D01*
X736458Y166194D01*
X736931Y166427D01*
X741069Y162290D01*
Y152986D01*
X732776Y144693D01*
X732283Y144758D01*
X731500Y144655D01*
X730770Y144353D01*
X730531Y144169D01*
X728035D01*
Y135673D01*
X734063D01*
X741069Y128668D01*
Y119364D01*
X730441Y108736D01*
X728035D01*
Y101913D01*
X727573Y101722D01*
X716299Y112996D01*
X715720Y113383D01*
X715037Y113519D01*
X701432D01*
X701186Y114018D01*
X701624Y114590D01*
X702052Y115623D01*
X702198Y116732D01*
X702052Y117841D01*
X701624Y118875D01*
X700943Y119762D01*
X700056Y120443D01*
X699022Y120871D01*
X697913Y121017D01*
X696804Y120871D01*
X695771Y120443D01*
X694884Y119762D01*
X694203Y118875D01*
X693775Y117841D01*
X693629Y116732D01*
X693775Y115623D01*
X694203Y114590D01*
X694641Y114018D01*
X694395Y113519D01*
X691432D01*
X691186Y114018D01*
X691624Y114590D01*
X692052Y115623D01*
X692132Y116232D01*
X687913D01*
X683695D01*
X683775Y115623D01*
X684203Y114590D01*
X684641Y114018D01*
X684395Y113519D01*
X676695D01*
X676695Y113519D01*
X676012Y113383D01*
X675433Y112996D01*
X675433Y112996D01*
X664486Y102049D01*
X664100Y101470D01*
X663964Y100787D01*
Y94410D01*
X663606Y94262D01*
X662718Y93581D01*
X662037Y92694D01*
X661609Y91660D01*
X661463Y90551D01*
X661609Y89442D01*
X662037Y88409D01*
X662718Y87521D01*
X663606Y86840D01*
X664639Y86413D01*
X665748Y86266D01*
X666857Y86413D01*
X667890Y86840D01*
X668778Y87521D01*
X669459Y88409D01*
X669887Y89442D01*
X670033Y90551D01*
X669887Y91660D01*
X669459Y92694D01*
X668778Y93581D01*
X667890Y94262D01*
X667532Y94410D01*
Y100048D01*
X677434Y109950D01*
X684398D01*
X684644Y109450D01*
X684203Y108875D01*
X683775Y107841D01*
X683629Y106732D01*
X683775Y105623D01*
X684203Y104590D01*
X684884Y103703D01*
X685200Y103460D01*
X685180Y102845D01*
X685085Y102781D01*
X682084Y99780D01*
X681752Y99284D01*
X681749Y99266D01*
X666056Y83573D01*
X665345Y84048D01*
X664370Y84242D01*
X663395Y84048D01*
X662568Y83495D01*
X662015Y82668D01*
X661821Y81693D01*
X662015Y80717D01*
X662568Y79891D01*
X663395Y79338D01*
X664370Y79144D01*
X665345Y79338D01*
X666173Y79891D01*
X666357Y80167D01*
X666924Y80280D01*
X667420Y80611D01*
X683173Y96364D01*
X683701Y96185D01*
X683775Y95623D01*
X684203Y94590D01*
X684884Y93703D01*
X685771Y93022D01*
X686804Y92594D01*
X687913Y92448D01*
X689022Y92594D01*
X690056Y93022D01*
X690943Y93703D01*
X691624Y94590D01*
X692052Y95623D01*
X692198Y96732D01*
X692052Y97841D01*
X691624Y98875D01*
X691013Y99671D01*
X691159Y100171D01*
X692881D01*
X693466Y100287D01*
X693962Y100619D01*
X696192Y102848D01*
X696804Y102594D01*
X697913Y102448D01*
X699022Y102594D01*
X700056Y103022D01*
X700943Y103703D01*
X701624Y104590D01*
X702052Y105623D01*
X702198Y106732D01*
X702052Y107841D01*
X701624Y108875D01*
X701183Y109450D01*
X701429Y109950D01*
X714298D01*
X728293Y95955D01*
X728145Y95597D01*
X727999Y94488D01*
X728145Y93379D01*
X728573Y92346D01*
X729254Y91458D01*
X730141Y90777D01*
X731175Y90350D01*
X732283Y90203D01*
X733392Y90350D01*
X734426Y90777D01*
X735313Y91458D01*
X735994Y92346D01*
X736422Y93379D01*
X736568Y94488D01*
X736422Y95597D01*
X735994Y96631D01*
X735313Y97518D01*
X734426Y98199D01*
X733392Y98627D01*
X732283Y98773D01*
X731175Y98627D01*
X730816Y98479D01*
X729517Y99778D01*
X729708Y100240D01*
X734063D01*
X739258Y95046D01*
Y93931D01*
X714396Y69069D01*
X713915Y68442D01*
X713613Y67712D01*
X713510Y66929D01*
Y48498D01*
X707408Y42396D01*
X699852D01*
X699752Y42896D01*
X700056Y43022D01*
X700943Y43703D01*
X701624Y44590D01*
X702052Y45623D01*
X702198Y46732D01*
X702052Y47841D01*
X701624Y48875D01*
X700943Y49762D01*
X700056Y50443D01*
X699022Y50871D01*
X697913Y51017D01*
X696804Y50871D01*
X695771Y50443D01*
X694884Y49762D01*
X694203Y48875D01*
X693775Y47841D01*
X693629Y46732D01*
X693775Y45623D01*
X694203Y44590D01*
X694884Y43703D01*
X695771Y43022D01*
X696074Y42896D01*
X695975Y42396D01*
X689852D01*
X689752Y42896D01*
X690056Y43022D01*
X690943Y43703D01*
X691624Y44590D01*
X692052Y45623D01*
X692132Y46232D01*
X687913D01*
X683695D01*
X683775Y45623D01*
X684203Y44590D01*
X684884Y43703D01*
X685771Y43022D01*
X686074Y42896D01*
X685975Y42396D01*
X645586D01*
X645537Y42896D01*
X645660Y42921D01*
X646487Y43473D01*
X647040Y44300D01*
X647234Y45276D01*
X647040Y46251D01*
X646487Y47078D01*
X645660Y47631D01*
X644685Y47825D01*
X644363Y47760D01*
X643831Y48292D01*
X644078Y48753D01*
X644685Y48632D01*
X645660Y48826D01*
X646487Y49379D01*
X647040Y50206D01*
X647234Y51181D01*
X647040Y52157D01*
X646487Y52983D01*
X645660Y53536D01*
X644685Y53730D01*
X644363Y53666D01*
X642277Y55752D01*
Y57258D01*
X642777Y57410D01*
X642883Y57253D01*
X643710Y56700D01*
X644685Y56506D01*
X645660Y56700D01*
X646487Y57253D01*
X647040Y58080D01*
X647234Y59055D01*
X647170Y59377D01*
X656593Y68800D01*
X656925Y69297D01*
X657041Y69882D01*
Y164370D01*
X656925Y164955D01*
X656593Y165452D01*
X645845Y176200D01*
X645349Y176531D01*
X644764Y176647D01*
X638717D01*
X638535Y176920D01*
X637708Y177473D01*
X636732Y177667D01*
X635757Y177473D01*
X634930Y176920D01*
X634377Y176094D01*
X634183Y175118D01*
X634377Y174143D01*
X634930Y173316D01*
X635757Y172763D01*
X636732Y172569D01*
X637708Y172763D01*
X638535Y173316D01*
X638717Y173589D01*
X644130D01*
X653982Y163737D01*
Y152576D01*
X653482Y152406D01*
X653015Y153015D01*
X652017Y153781D01*
X650854Y154263D01*
X650106Y154361D01*
Y149606D01*
Y144851D01*
X650854Y144950D01*
X652017Y145431D01*
X653015Y146197D01*
X653482Y146807D01*
X653982Y146637D01*
Y105332D01*
X653482Y105162D01*
X653015Y105771D01*
X652017Y106537D01*
X650854Y107019D01*
X650106Y107117D01*
Y102362D01*
Y97607D01*
X650854Y97706D01*
X652017Y98187D01*
X653015Y98953D01*
X653482Y99562D01*
X653982Y99393D01*
Y70515D01*
X645007Y61540D01*
X644685Y61604D01*
X643710Y61410D01*
X642883Y60857D01*
X642777Y60700D01*
X642277Y60852D01*
Y85630D01*
X642161Y86215D01*
X641829Y86711D01*
X639861Y88680D01*
X639365Y89011D01*
X638779Y89128D01*
X628586D01*
X622592Y95122D01*
Y111571D01*
X636410Y125389D01*
X636732Y125325D01*
X637708Y125519D01*
X638535Y126072D01*
X639087Y126899D01*
X639281Y127874D01*
X639087Y128849D01*
X638535Y129676D01*
X637708Y130229D01*
X636732Y130423D01*
X635757Y130229D01*
X634930Y129676D01*
X634377Y128849D01*
X634183Y127874D01*
X634247Y127552D01*
X619981Y113286D01*
X619650Y112790D01*
X619534Y112205D01*
Y94488D01*
X619650Y93903D01*
X619981Y93407D01*
X626871Y86517D01*
X627367Y86185D01*
X627953Y86069D01*
X638146D01*
X639219Y84996D01*
Y82309D01*
X638719Y82157D01*
X638535Y82432D01*
X637708Y82985D01*
X636732Y83179D01*
X635757Y82985D01*
X634930Y82432D01*
X634377Y81605D01*
X634183Y80630D01*
X634377Y79655D01*
X634930Y78828D01*
X635203Y78645D01*
Y53228D01*
X635319Y52643D01*
X635651Y52147D01*
X642200Y45598D01*
X642136Y45276D01*
X642330Y44300D01*
X642883Y43473D01*
X643710Y42921D01*
X643834Y42896D01*
X643784Y42396D01*
X614246D01*
Y86303D01*
X614484D01*
Y94799D01*
X613262D01*
Y133547D01*
X614484D01*
Y142043D01*
X613262D01*
Y180791D01*
X614484D01*
Y189287D01*
X605988D01*
Y180791D01*
X607210D01*
Y142043D01*
X605988D01*
Y133547D01*
X607210D01*
Y94799D01*
X605988D01*
Y86303D01*
X608195D01*
Y68471D01*
X607936Y68392D01*
X607695Y68347D01*
X606881Y68890D01*
X605905Y69084D01*
X605583Y69020D01*
X603892Y70712D01*
Y240508D01*
X622681Y259297D01*
X636266D01*
Y239001D01*
X635766Y238850D01*
X635661Y239007D01*
X634834Y239560D01*
X633858Y239754D01*
X632883Y239560D01*
X632056Y239007D01*
X631716Y238498D01*
X618363D01*
X618180Y238771D01*
X617353Y239323D01*
X616378Y239517D01*
X615403Y239323D01*
X614576Y238771D01*
X614023Y237944D01*
X613829Y236968D01*
X614023Y235993D01*
X614576Y235166D01*
X615403Y234613D01*
X616378Y234419D01*
X617353Y234613D01*
X618180Y235166D01*
X618363Y235439D01*
X632031D01*
X632056Y235402D01*
X632883Y234850D01*
X633858Y234656D01*
X634834Y234850D01*
X635661Y235402D01*
X635766Y235560D01*
X636266Y235408D01*
Y229331D01*
X636382Y228745D01*
X636714Y228249D01*
X638529Y226434D01*
X638364Y225892D01*
X637804Y225780D01*
X636977Y225228D01*
X636425Y224401D01*
X636231Y223425D01*
X636425Y222450D01*
X636977Y221623D01*
X637250Y221440D01*
Y218520D01*
X636977Y218338D01*
X636425Y217511D01*
X636231Y216535D01*
X636425Y215560D01*
X636977Y214733D01*
X637804Y214180D01*
X638779Y213986D01*
X639755Y214180D01*
X640582Y214733D01*
X641135Y215560D01*
X641328Y216535D01*
X641135Y217511D01*
X640582Y218338D01*
X640309Y218520D01*
Y221440D01*
X640582Y221623D01*
X641135Y222450D01*
X641246Y223010D01*
X641788Y223175D01*
X644144Y220819D01*
X644641Y220487D01*
X645226Y220371D01*
X684899D01*
X685060Y219897D01*
X684884Y219762D01*
X684203Y218875D01*
X683775Y217841D01*
X683629Y216732D01*
X683775Y215623D01*
X684203Y214590D01*
X684884Y213703D01*
X685771Y213022D01*
X686804Y212594D01*
X687913Y212448D01*
X689022Y212594D01*
X690056Y213022D01*
X690943Y213703D01*
X691624Y214590D01*
X692052Y215623D01*
X692198Y216732D01*
X692052Y217841D01*
X691624Y218875D01*
X690943Y219762D01*
X690767Y219897D01*
X690928Y220371D01*
X694899D01*
X695060Y219897D01*
X694884Y219762D01*
X694203Y218875D01*
X693775Y217841D01*
X693694Y217232D01*
X697913D01*
X702132D01*
X702052Y217841D01*
X701624Y218875D01*
X700943Y219762D01*
X700767Y219897D01*
X700928Y220371D01*
X703648D01*
X714312Y209706D01*
X714808Y209374D01*
X715394Y209258D01*
X728159D01*
X728444Y208571D01*
X729148Y207652D01*
X730067Y206948D01*
X731136Y206505D01*
X732283Y206354D01*
X733431Y206505D01*
X734500Y206948D01*
X735419Y207652D01*
X736123Y208571D01*
X736566Y209640D01*
X736717Y210787D01*
X736566Y211935D01*
X736123Y213004D01*
X735419Y213922D01*
X734500Y214627D01*
X733431Y215070D01*
X732283Y215221D01*
X731136Y215070D01*
X730067Y214627D01*
X729148Y213922D01*
X728444Y213004D01*
X728159Y212317D01*
X716027D01*
X705363Y222981D01*
X704866Y223313D01*
X704281Y223429D01*
X701364D01*
X701117Y223929D01*
X701624Y224590D01*
X702052Y225623D01*
X702198Y226732D01*
X702052Y227841D01*
X701624Y228875D01*
X700943Y229762D01*
X700939Y229765D01*
Y233700D01*
X700943Y233703D01*
X701624Y234590D01*
X702052Y235623D01*
X702198Y236732D01*
X702173Y236924D01*
X702621Y237145D01*
X720060Y219706D01*
X720556Y219374D01*
X721142Y219258D01*
X728159D01*
X728444Y218571D01*
X729148Y217652D01*
X730067Y216948D01*
X731136Y216505D01*
X732283Y216354D01*
X733431Y216505D01*
X734500Y216948D01*
X735419Y217652D01*
X736123Y218571D01*
X736566Y219640D01*
X736717Y220787D01*
X736566Y221935D01*
X736123Y223004D01*
X735419Y223922D01*
X734500Y224627D01*
X733431Y225070D01*
X732283Y225221D01*
X731136Y225070D01*
X730067Y224627D01*
X729148Y223922D01*
X728444Y223004D01*
X728159Y222317D01*
X721775D01*
X714999Y229093D01*
X715318Y229481D01*
X715478Y229374D01*
X716063Y229258D01*
X727888D01*
Y226392D01*
X736679D01*
Y235183D01*
X727888D01*
Y232317D01*
X716697D01*
X696383Y252631D01*
X696447Y252953D01*
X696253Y253928D01*
X695700Y254755D01*
X694873Y255308D01*
X693898Y255502D01*
X693290Y255381D01*
X693044Y255842D01*
X729428Y292226D01*
X729759Y292722D01*
X729876Y293307D01*
Y297228D01*
X730149Y297410D01*
X730701Y298237D01*
X730895Y299213D01*
X730701Y300188D01*
X730149Y301015D01*
X729876Y301197D01*
Y312976D01*
X730149Y313158D01*
X730701Y313985D01*
X730895Y314961D01*
X730701Y315936D01*
X730149Y316763D01*
X729876Y316945D01*
Y328724D01*
X730149Y328906D01*
X730701Y329733D01*
X730895Y330709D01*
X730701Y331684D01*
X730149Y332511D01*
X729876Y332694D01*
Y344472D01*
X730149Y344654D01*
X730701Y345481D01*
X730895Y346457D01*
X730701Y347432D01*
X730149Y348259D01*
X729322Y348812D01*
X728346Y349006D01*
D02*
G37*
G36*
X748032Y336962D02*
X746922Y336816D01*
X745889Y336388D01*
X745002Y335707D01*
X744321Y334820D01*
X743893Y333786D01*
X743747Y332677D01*
X743893Y331568D01*
X744321Y330535D01*
X745002Y329647D01*
X745889Y328966D01*
X746922Y328538D01*
X748032Y328393D01*
X749141Y328538D01*
X750174Y328966D01*
X751061Y329647D01*
X751742Y330535D01*
X752170Y331568D01*
X752316Y332677D01*
X752170Y333786D01*
X751742Y334820D01*
X751061Y335707D01*
X750174Y336388D01*
X749141Y336816D01*
X748032Y336962D01*
D02*
G37*
G36*
Y346804D02*
X746922Y346658D01*
X745889Y346230D01*
X745002Y345549D01*
X744321Y344662D01*
X743893Y343629D01*
X743747Y342520D01*
X743893Y341411D01*
X744321Y340377D01*
X745002Y339490D01*
X745889Y338809D01*
X746922Y338381D01*
X748032Y338235D01*
X749141Y338381D01*
X750174Y338809D01*
X751061Y339490D01*
X751742Y340377D01*
X752170Y341411D01*
X752316Y342520D01*
X752170Y343629D01*
X751742Y344662D01*
X751061Y345549D01*
X750174Y346230D01*
X749141Y346658D01*
X748032Y346804D01*
D02*
G37*
G36*
X728346Y415935D02*
X727371Y415741D01*
X726544Y415188D01*
X725991Y414361D01*
X725798Y413386D01*
X725991Y412410D01*
X726544Y411583D01*
X726817Y411401D01*
Y399623D01*
X726544Y399440D01*
X725991Y398613D01*
X725798Y397638D01*
X725991Y396662D01*
X726544Y395835D01*
X726817Y395653D01*
Y383875D01*
X726544Y383692D01*
X725991Y382865D01*
X725798Y381890D01*
X725991Y380914D01*
X726544Y380087D01*
X726817Y379905D01*
Y368127D01*
X726544Y367944D01*
X726359Y367667D01*
X725793Y367555D01*
X725296Y367223D01*
X653865Y295792D01*
X653543Y295856D01*
X652568Y295662D01*
X651741Y295110D01*
X651188Y294283D01*
X650994Y293307D01*
X651188Y292332D01*
X651741Y291505D01*
X652568Y290952D01*
X653543Y290758D01*
X654519Y290952D01*
X655346Y291505D01*
X655898Y292332D01*
X656092Y293307D01*
X656028Y293629D01*
X662465Y300066D01*
X662926Y299820D01*
X662805Y299213D01*
X662999Y298237D01*
X663552Y297410D01*
X664379Y296858D01*
X665354Y296664D01*
X666330Y296858D01*
X667157Y297410D01*
X667339Y297683D01*
X671243D01*
X671426Y297410D01*
X672253Y296858D01*
X673228Y296664D01*
X674204Y296858D01*
X675031Y297410D01*
X675583Y298237D01*
X675777Y299213D01*
X675583Y300188D01*
X675031Y301015D01*
X674204Y301568D01*
X673228Y301762D01*
X672253Y301568D01*
X671426Y301015D01*
X671243Y300742D01*
X667339D01*
X667157Y301015D01*
X666330Y301568D01*
X665354Y301762D01*
X664747Y301641D01*
X664501Y302102D01*
X726317Y363918D01*
X726817Y363711D01*
Y359268D01*
X726544Y359086D01*
X725991Y358259D01*
X725798Y357283D01*
X725991Y356308D01*
X726544Y355481D01*
X727371Y354928D01*
X728346Y354734D01*
X729322Y354928D01*
X730149Y355481D01*
X730701Y356308D01*
X730895Y357283D01*
X730701Y358259D01*
X730149Y359086D01*
X729876Y359268D01*
Y364157D01*
X730149Y364339D01*
X730701Y365166D01*
X730895Y366142D01*
X730701Y367117D01*
X730149Y367944D01*
X729876Y368127D01*
Y379905D01*
X730149Y380087D01*
X730701Y380914D01*
X730895Y381890D01*
X730701Y382865D01*
X730149Y383692D01*
X729876Y383875D01*
Y395653D01*
X730149Y395835D01*
X730701Y396662D01*
X730895Y397638D01*
X730701Y398613D01*
X730149Y399440D01*
X729876Y399623D01*
Y411401D01*
X730149Y411583D01*
X730701Y412410D01*
X730895Y413386D01*
X730701Y414361D01*
X730149Y415188D01*
X729322Y415741D01*
X728346Y415935D01*
D02*
G37*
G36*
X555618Y321305D02*
Y317587D01*
X559337D01*
X559257Y318196D01*
X558829Y319229D01*
X558148Y320116D01*
X557260Y320797D01*
X556227Y321225D01*
X555618Y321305D01*
D02*
G37*
G36*
X748032Y327119D02*
X746922Y326973D01*
X745889Y326545D01*
X745002Y325864D01*
X744321Y324977D01*
X743893Y323944D01*
X743747Y322835D01*
X743893Y321726D01*
X744321Y320692D01*
X745002Y319805D01*
X745889Y319124D01*
X746922Y318696D01*
X748032Y318550D01*
X749141Y318696D01*
X750174Y319124D01*
X751061Y319805D01*
X751742Y320692D01*
X752170Y321726D01*
X752316Y322835D01*
X752170Y323944D01*
X751742Y324977D01*
X751061Y325864D01*
X750174Y326545D01*
X749141Y326973D01*
X748032Y327119D01*
D02*
G37*
G36*
X708661Y329321D02*
X707686Y329127D01*
X706859Y328574D01*
X706677Y328301D01*
X698835D01*
X698653Y328574D01*
X697826Y329127D01*
X696850Y329321D01*
X695875Y329127D01*
X695048Y328574D01*
X694495Y327747D01*
X694301Y326772D01*
X694495Y325796D01*
X695048Y324969D01*
X695875Y324417D01*
X696850Y324223D01*
X697826Y324417D01*
X698653Y324969D01*
X698835Y325242D01*
X706677D01*
X706859Y324969D01*
X707686Y324417D01*
X708661Y324223D01*
X709637Y324417D01*
X710464Y324969D01*
X711016Y325796D01*
X711210Y326772D01*
X711016Y327747D01*
X710464Y328574D01*
X709637Y329127D01*
X708661Y329321D01*
D02*
G37*
G36*
X752280Y374327D02*
X743784D01*
Y365831D01*
X752280D01*
Y374327D01*
D02*
G37*
G36*
X382172Y387138D02*
X378453D01*
Y383419D01*
X379062Y383499D01*
X380095Y383927D01*
X380982Y384608D01*
X381663Y385495D01*
X382091Y386529D01*
X382172Y387138D01*
D02*
G37*
G36*
X748032Y394049D02*
X746922Y393902D01*
X745889Y393474D01*
X745002Y392793D01*
X744321Y391906D01*
X743893Y390873D01*
X743747Y389764D01*
X743893Y388655D01*
X744321Y387621D01*
X745002Y386734D01*
X745889Y386053D01*
X746922Y385625D01*
X748032Y385479D01*
X749141Y385625D01*
X750174Y386053D01*
X751061Y386734D01*
X751742Y387621D01*
X752170Y388655D01*
X752316Y389764D01*
X752170Y390873D01*
X751742Y391906D01*
X751061Y392793D01*
X750174Y393474D01*
X749141Y393902D01*
X748032Y394049D01*
D02*
G37*
G36*
X377453Y391857D02*
X376844Y391776D01*
X375810Y391349D01*
X374923Y390668D01*
X374242Y389780D01*
X373814Y388747D01*
X373734Y388138D01*
X377453D01*
Y391857D01*
D02*
G37*
G36*
X748032Y384206D02*
X746922Y384060D01*
X745889Y383632D01*
X745002Y382951D01*
X744321Y382064D01*
X743893Y381030D01*
X743747Y379921D01*
X743893Y378812D01*
X744321Y377779D01*
X745002Y376891D01*
X745889Y376211D01*
X746922Y375783D01*
X748032Y375637D01*
X749141Y375783D01*
X750174Y376211D01*
X751061Y376891D01*
X751742Y377779D01*
X752170Y378812D01*
X752316Y379921D01*
X752170Y381030D01*
X751742Y382064D01*
X751061Y382951D01*
X750174Y383632D01*
X749141Y384060D01*
X748032Y384206D01*
D02*
G37*
G36*
X708661Y380502D02*
X707686Y380308D01*
X706859Y379755D01*
X706677Y379482D01*
X694898D01*
X694716Y379755D01*
X693889Y380308D01*
X692913Y380502D01*
X691938Y380308D01*
X691111Y379755D01*
X690558Y378928D01*
X690364Y377953D01*
X690558Y376977D01*
X691111Y376150D01*
X691938Y375598D01*
X692913Y375404D01*
X693889Y375598D01*
X694716Y376150D01*
X694898Y376423D01*
X706677D01*
X706859Y376150D01*
X707686Y375598D01*
X708661Y375404D01*
X709637Y375598D01*
X710464Y376150D01*
X711016Y376977D01*
X711210Y377953D01*
X711016Y378928D01*
X710464Y379755D01*
X709637Y380308D01*
X708661Y380502D01*
D02*
G37*
G36*
X377453Y387138D02*
X373734D01*
X373814Y386529D01*
X374242Y385495D01*
X374923Y384608D01*
X375810Y383927D01*
X376844Y383499D01*
X377453Y383419D01*
Y387138D01*
D02*
G37*
G36*
X476878Y321305D02*
Y317587D01*
X480597D01*
X480517Y318196D01*
X480089Y319229D01*
X479408Y320116D01*
X478520Y320797D01*
X477487Y321225D01*
X476878Y321305D01*
D02*
G37*
G36*
X507374Y321305D02*
X506765Y321225D01*
X505732Y320797D01*
X504844Y320116D01*
X504163Y319229D01*
X503735Y318196D01*
X503655Y317587D01*
X507374D01*
Y321305D01*
D02*
G37*
G36*
X523122D02*
X522513Y321225D01*
X521480Y320797D01*
X520592Y320116D01*
X519911Y319229D01*
X519483Y318196D01*
X519403Y317587D01*
X523122D01*
Y321305D01*
D02*
G37*
G36*
X508374Y321305D02*
Y317587D01*
X512093D01*
X512013Y318196D01*
X511585Y319229D01*
X510904Y320116D01*
X510016Y320797D01*
X508983Y321225D01*
X508374Y321305D01*
D02*
G37*
G36*
X538870Y321305D02*
X538261Y321225D01*
X537228Y320797D01*
X536340Y320116D01*
X535659Y319229D01*
X535231Y318196D01*
X535151Y317587D01*
X538870D01*
Y321305D01*
D02*
G37*
G36*
X461130Y321305D02*
Y317587D01*
X464849D01*
X464769Y318196D01*
X464341Y319229D01*
X463660Y320116D01*
X462772Y320797D01*
X461739Y321225D01*
X461130Y321305D01*
D02*
G37*
G36*
X539870D02*
Y317587D01*
X543589D01*
X543509Y318196D01*
X543081Y319229D01*
X542400Y320116D01*
X541512Y320797D01*
X540479Y321225D01*
X539870Y321305D01*
D02*
G37*
G36*
X524122D02*
Y317587D01*
X527841D01*
X527761Y318196D01*
X527333Y319229D01*
X526652Y320116D01*
X525764Y320797D01*
X524731Y321225D01*
X524122Y321305D01*
D02*
G37*
G36*
X571366D02*
Y317587D01*
X575085D01*
X575005Y318196D01*
X574577Y319229D01*
X573896Y320116D01*
X573008Y320797D01*
X571975Y321225D01*
X571366Y321305D01*
D02*
G37*
G36*
X475878D02*
X475269Y321225D01*
X474236Y320797D01*
X473348Y320116D01*
X472667Y319229D01*
X472239Y318196D01*
X472159Y317587D01*
X475878D01*
Y321305D01*
D02*
G37*
G36*
X554618D02*
X554009Y321225D01*
X552976Y320797D01*
X552088Y320116D01*
X551407Y319229D01*
X550979Y318196D01*
X550899Y317587D01*
X554618D01*
Y321305D01*
D02*
G37*
G36*
X491626D02*
X491017Y321225D01*
X489984Y320797D01*
X489096Y320116D01*
X488415Y319229D01*
X487987Y318196D01*
X487907Y317587D01*
X491626D01*
Y321305D01*
D02*
G37*
G36*
X570366D02*
X569757Y321225D01*
X568724Y320797D01*
X567836Y320116D01*
X567156Y319229D01*
X566727Y318196D01*
X566647Y317587D01*
X570366D01*
Y321305D01*
D02*
G37*
G36*
X492626D02*
Y317587D01*
X496345D01*
X496265Y318196D01*
X495837Y319229D01*
X495156Y320116D01*
X494268Y320797D01*
X493235Y321225D01*
X492626Y321305D01*
D02*
G37*
G36*
X748032Y403891D02*
X746922Y403745D01*
X745889Y403317D01*
X745002Y402636D01*
X744321Y401749D01*
X743893Y400715D01*
X743747Y399606D01*
X743893Y398497D01*
X744321Y397464D01*
X745002Y396577D01*
X745889Y395896D01*
X746922Y395468D01*
X748032Y395322D01*
X749141Y395468D01*
X750174Y395896D01*
X751061Y396577D01*
X751742Y397464D01*
X752170Y398497D01*
X752316Y399606D01*
X752170Y400715D01*
X751742Y401749D01*
X751061Y402636D01*
X750174Y403317D01*
X749141Y403745D01*
X748032Y403891D01*
D02*
G37*
G36*
X720498Y491626D02*
X701287D01*
Y472416D01*
X703364Y472552D01*
X705897Y473056D01*
X708343Y473886D01*
X710659Y475028D01*
X712806Y476463D01*
X714748Y478166D01*
X716451Y480107D01*
X717885Y482255D01*
X719028Y484571D01*
X719858Y487016D01*
X720362Y489549D01*
X720498Y491626D01*
D02*
G37*
G36*
X647138Y509865D02*
X645319Y509722D01*
X643056Y509178D01*
X640907Y508288D01*
X638924Y507073D01*
X637155Y505562D01*
X635644Y503793D01*
X634428Y501809D01*
X633538Y499660D01*
X632995Y497398D01*
X632813Y495079D01*
Y479831D01*
X647138D01*
Y509865D01*
D02*
G37*
G36*
X648138D02*
Y479831D01*
X662463D01*
Y495079D01*
X662281Y497398D01*
X661737Y499660D01*
X660847Y501809D01*
X659632Y503793D01*
X658121Y505562D01*
X656352Y507073D01*
X654368Y508288D01*
X652219Y509178D01*
X649957Y509722D01*
X648138Y509865D01*
D02*
G37*
G36*
X700287Y491626D02*
X681077D01*
X681213Y489549D01*
X681717Y487016D01*
X682547Y484571D01*
X683689Y482255D01*
X685124Y480107D01*
X686827Y478166D01*
X688769Y476463D01*
X690916Y475028D01*
X693232Y473886D01*
X695678Y473056D01*
X698210Y472552D01*
X700287Y472416D01*
Y491626D01*
D02*
G37*
G36*
X777584Y491626D02*
X758374D01*
Y472416D01*
X760451Y472552D01*
X762984Y473056D01*
X765429Y473886D01*
X767745Y475028D01*
X769893Y476463D01*
X771834Y478166D01*
X773537Y480107D01*
X774972Y482255D01*
X776114Y484571D01*
X776944Y487016D01*
X777448Y489549D01*
X777584Y491626D01*
D02*
G37*
G36*
X757374D02*
X738164D01*
X738300Y489549D01*
X738804Y487016D01*
X739634Y484571D01*
X740776Y482255D01*
X742211Y480107D01*
X743914Y478166D01*
X745855Y476463D01*
X748002Y475028D01*
X750319Y473886D01*
X752764Y473056D01*
X755297Y472552D01*
X757374Y472416D01*
Y491626D01*
D02*
G37*
G36*
Y511836D02*
X755297Y511700D01*
X752764Y511196D01*
X750319Y510366D01*
X748002Y509224D01*
X745855Y507789D01*
X743914Y506086D01*
X742211Y504145D01*
X740776Y501998D01*
X739634Y499681D01*
X738804Y497236D01*
X738300Y494703D01*
X738164Y492626D01*
X757374D01*
Y511836D01*
D02*
G37*
G36*
X311024Y503988D02*
X309168Y503841D01*
X307358Y503407D01*
X306762Y503160D01*
X260167D01*
X259571Y503407D01*
X257761Y503841D01*
X255906Y503988D01*
X254050Y503841D01*
X252240Y503407D01*
X250520Y502695D01*
X248933Y501722D01*
X247518Y500513D01*
X246309Y499098D01*
X245337Y497511D01*
X244624Y495791D01*
X244190Y493982D01*
X244044Y492126D01*
X244190Y490270D01*
X244624Y488460D01*
X244871Y487864D01*
Y350719D01*
X244624Y350123D01*
X244190Y348313D01*
X244044Y346458D01*
X244190Y344602D01*
X244624Y342792D01*
X245337Y341073D01*
X246309Y339486D01*
X247518Y338070D01*
X248933Y336861D01*
X250520Y335889D01*
X252240Y335177D01*
X254050Y334742D01*
X255906Y334596D01*
X257761Y334742D01*
X259571Y335177D01*
X260167Y335424D01*
X306760D01*
X307358Y335176D01*
X309168Y334741D01*
X311024Y334595D01*
X312879Y334741D01*
X314689Y335176D01*
X315285Y335423D01*
X361880D01*
X362476Y335176D01*
X364286Y334741D01*
X366142Y334595D01*
X367997Y334741D01*
X369807Y335176D01*
X370404Y335423D01*
X417000D01*
X417594Y335177D01*
X419404Y334742D01*
X421260Y334596D01*
X423115Y334742D01*
X424925Y335177D01*
X426645Y335889D01*
X428232Y336861D01*
X429647Y338070D01*
X430856Y339486D01*
X431829Y341073D01*
X432541Y342792D01*
X432975Y344602D01*
X433121Y346458D01*
X432975Y348313D01*
X432541Y350123D01*
X431829Y351843D01*
X430856Y353430D01*
X429647Y354845D01*
X428232Y356054D01*
X426645Y357026D01*
X424925Y357739D01*
X423115Y358173D01*
X421260Y358319D01*
X419404Y358173D01*
X417594Y357739D01*
X416996Y357491D01*
X370404D01*
X369807Y357738D01*
X367997Y358172D01*
X366142Y358318D01*
X364286Y358172D01*
X362476Y357738D01*
X361880Y357491D01*
X315285D01*
X314689Y357738D01*
X312879Y358172D01*
X311024Y358318D01*
X309168Y358172D01*
X307358Y357738D01*
X306764Y357492D01*
X266939D01*
Y481092D01*
X306762D01*
X307358Y480845D01*
X309168Y480410D01*
X311024Y480264D01*
X312879Y480410D01*
X314689Y480845D01*
X315283Y481091D01*
X361880D01*
X362476Y480844D01*
X364286Y480409D01*
X366142Y480264D01*
X367997Y480409D01*
X369807Y480844D01*
X370404Y481091D01*
X416998D01*
X417594Y480844D01*
X419404Y480409D01*
X421260Y480264D01*
X423115Y480409D01*
X424925Y480844D01*
X425522Y481091D01*
X522990D01*
X593442Y410638D01*
Y385039D01*
X593625Y382720D01*
X594168Y380458D01*
X595058Y378309D01*
X596274Y376325D01*
X597785Y374556D01*
X599554Y373045D01*
X601537Y371830D01*
X603687Y370940D01*
X605948Y370397D01*
X608268Y370214D01*
X610587Y370397D01*
X612849Y370940D01*
X614998Y371830D01*
X616982Y373045D01*
X618751Y374556D01*
X620262Y376325D01*
X621477Y378309D01*
X622367Y380458D01*
X622910Y382720D01*
X623093Y385039D01*
Y416535D01*
X622910Y418855D01*
X622367Y421117D01*
X621477Y423266D01*
X620262Y425249D01*
X618751Y427018D01*
X616982Y428529D01*
X614998Y429745D01*
X612849Y430635D01*
X610587Y431178D01*
X608268Y431361D01*
X605948Y431178D01*
X604467Y430823D01*
X535362Y499927D01*
X534046Y501052D01*
X532569Y501956D01*
X530970Y502619D01*
X529286Y503023D01*
X527560Y503159D01*
X425522D01*
X424925Y503406D01*
X423115Y503841D01*
X421260Y503987D01*
X419404Y503841D01*
X417594Y503406D01*
X416998Y503159D01*
X370404D01*
X369807Y503406D01*
X367997Y503841D01*
X366142Y503987D01*
X364286Y503841D01*
X362476Y503406D01*
X361880Y503159D01*
X315288D01*
X314689Y503407D01*
X312879Y503841D01*
X311024Y503988D01*
D02*
G37*
G36*
X124016Y542384D02*
X121697Y542202D01*
X119434Y541659D01*
X117285Y540768D01*
X115302Y539553D01*
X113533Y538042D01*
X112022Y536273D01*
X110806Y534290D01*
X109916Y532140D01*
X109373Y529878D01*
X109190Y527559D01*
X109373Y525240D01*
X109916Y522978D01*
X110806Y520828D01*
X112022Y518845D01*
X113533Y517076D01*
X115302Y515565D01*
X117285Y514350D01*
X119434Y513459D01*
X121697Y512916D01*
X124016Y512734D01*
X126335Y512916D01*
X128597Y513459D01*
X130746Y514350D01*
X132730Y515565D01*
X134499Y517076D01*
X136010Y518845D01*
X137225Y520828D01*
X138115Y522978D01*
X138658Y525240D01*
X138841Y527559D01*
X138658Y529878D01*
X138115Y532140D01*
X137225Y534290D01*
X136010Y536273D01*
X134499Y538042D01*
X132730Y539553D01*
X130746Y540768D01*
X128597Y541659D01*
X126335Y542202D01*
X124016Y542384D01*
D02*
G37*
G36*
X608268Y541597D02*
X605948Y541414D01*
X603687Y540871D01*
X601537Y539981D01*
X599554Y538765D01*
X597785Y537255D01*
X596274Y535486D01*
X595058Y533502D01*
X594168Y531353D01*
X594016Y530719D01*
X425522D01*
X424925Y530966D01*
X423115Y531401D01*
X421260Y531547D01*
X419404Y531401D01*
X417594Y530966D01*
X416998Y530719D01*
X370404D01*
X369807Y530966D01*
X367997Y531401D01*
X366142Y531547D01*
X364286Y531401D01*
X362476Y530966D01*
X361880Y530719D01*
X315288D01*
X314689Y530967D01*
X312879Y531401D01*
X311024Y531547D01*
X309168Y531401D01*
X307358Y530967D01*
X306762Y530720D01*
X260167D01*
X259571Y530967D01*
X257761Y531401D01*
X255906Y531547D01*
X254050Y531401D01*
X252240Y530967D01*
X251644Y530720D01*
X220473D01*
X218747Y530584D01*
X217064Y530180D01*
X215464Y529517D01*
X213988Y528613D01*
X212671Y527488D01*
X211547Y526172D01*
X210642Y524695D01*
X209979Y523096D01*
X209575Y521412D01*
X209439Y519686D01*
Y318899D01*
X209575Y317173D01*
X209979Y315489D01*
X210642Y313889D01*
X211547Y312413D01*
X212671Y311096D01*
X212672Y311095D01*
X213989Y309971D01*
X215465Y309066D01*
X217065Y308404D01*
X218748Y307999D01*
X220474Y307864D01*
X251644D01*
X252240Y307617D01*
X254050Y307182D01*
X255906Y307036D01*
X257761Y307182D01*
X259571Y307617D01*
X260167Y307864D01*
X306760D01*
X307358Y307616D01*
X309168Y307181D01*
X311024Y307035D01*
X312879Y307181D01*
X314689Y307616D01*
X315285Y307863D01*
X361880D01*
X362476Y307616D01*
X364286Y307181D01*
X366142Y307035D01*
X367997Y307181D01*
X369807Y307616D01*
X370404Y307863D01*
X417000D01*
X417594Y307617D01*
X419404Y307182D01*
X421260Y307036D01*
X423115Y307182D01*
X424925Y307617D01*
X426645Y308329D01*
X428232Y309301D01*
X429647Y310510D01*
X430856Y311926D01*
X431829Y313513D01*
X432541Y315232D01*
X432975Y317042D01*
X433121Y318898D01*
X432975Y320753D01*
X432541Y322563D01*
X431829Y324283D01*
X430856Y325870D01*
X429647Y327285D01*
X428232Y328494D01*
X426645Y329466D01*
X424925Y330179D01*
X423115Y330613D01*
X421260Y330759D01*
X419404Y330613D01*
X417594Y330179D01*
X416996Y329931D01*
X370404D01*
X369807Y330178D01*
X367997Y330612D01*
X366142Y330758D01*
X364286Y330612D01*
X362476Y330178D01*
X361880Y329931D01*
X315285D01*
X314689Y330178D01*
X312879Y330612D01*
X311024Y330758D01*
X309168Y330612D01*
X307358Y330178D01*
X306764Y329932D01*
X260167D01*
X259571Y330179D01*
X257761Y330613D01*
X255906Y330759D01*
X254050Y330613D01*
X252240Y330179D01*
X251644Y329932D01*
X231507D01*
Y508652D01*
X251644D01*
X252240Y508405D01*
X254050Y507970D01*
X255906Y507824D01*
X257761Y507970D01*
X259571Y508405D01*
X260167Y508652D01*
X306762D01*
X307358Y508405D01*
X309168Y507970D01*
X311024Y507824D01*
X312879Y507970D01*
X314689Y508405D01*
X315283Y508651D01*
X361880D01*
X362476Y508404D01*
X364286Y507970D01*
X366142Y507824D01*
X367997Y507970D01*
X369807Y508404D01*
X370404Y508651D01*
X416998D01*
X417594Y508404D01*
X419404Y507970D01*
X421260Y507824D01*
X423115Y507970D01*
X424925Y508404D01*
X425522Y508651D01*
X593442D01*
Y495276D01*
X593625Y492956D01*
X594168Y490694D01*
X595058Y488545D01*
X596274Y486561D01*
X597785Y484793D01*
X599554Y483282D01*
X601537Y482066D01*
X603687Y481176D01*
X605948Y480633D01*
X608268Y480450D01*
X610587Y480633D01*
X612849Y481176D01*
X614998Y482066D01*
X616982Y483282D01*
X618751Y484793D01*
X620262Y486561D01*
X621477Y488545D01*
X622367Y490694D01*
X622910Y492956D01*
X623093Y495276D01*
Y526772D01*
X622910Y529091D01*
X622367Y531353D01*
X621477Y533502D01*
X620262Y535486D01*
X618751Y537255D01*
X616982Y538765D01*
X614998Y539981D01*
X612849Y540871D01*
X610587Y541414D01*
X608268Y541597D01*
D02*
G37*
G36*
X758374Y511836D02*
Y492626D01*
X777584D01*
X777448Y494703D01*
X776944Y497236D01*
X776114Y499681D01*
X774972Y501998D01*
X773537Y504145D01*
X771834Y506086D01*
X769893Y507789D01*
X767745Y509224D01*
X765429Y510366D01*
X762984Y511196D01*
X760451Y511700D01*
X758374Y511836D01*
D02*
G37*
G36*
X700287D02*
X698210Y511700D01*
X695678Y511196D01*
X693232Y510366D01*
X690916Y509224D01*
X688769Y507789D01*
X686827Y506086D01*
X685124Y504145D01*
X683689Y501998D01*
X682547Y499681D01*
X681717Y497236D01*
X681213Y494703D01*
X681077Y492626D01*
X700287D01*
Y511836D01*
D02*
G37*
G36*
X701287D02*
Y492626D01*
X720498D01*
X720362Y494703D01*
X719858Y497236D01*
X719028Y499681D01*
X717885Y501998D01*
X716451Y504145D01*
X714748Y506086D01*
X712806Y507789D01*
X710659Y509224D01*
X708343Y510366D01*
X705897Y511196D01*
X703364Y511700D01*
X701287Y511836D01*
D02*
G37*
G36*
X662463Y478831D02*
X648138D01*
Y448797D01*
X649957Y448940D01*
X652219Y449483D01*
X654368Y450373D01*
X656352Y451589D01*
X658121Y453100D01*
X659632Y454869D01*
X660847Y456852D01*
X661737Y459001D01*
X662281Y461264D01*
X662463Y463583D01*
Y478831D01*
D02*
G37*
G36*
X345957Y426665D02*
X343131D01*
X343181Y426288D01*
X343520Y425470D01*
X344059Y424767D01*
X344761Y424228D01*
X345579Y423890D01*
X345957Y423840D01*
Y426665D01*
D02*
G37*
G36*
Y430491D02*
X345579Y430441D01*
X344761Y430102D01*
X344059Y429563D01*
X343520Y428861D01*
X343181Y428043D01*
X343131Y427665D01*
X345957D01*
Y430491D01*
D02*
G37*
G36*
X346957Y430491D02*
Y427665D01*
X349782D01*
X349732Y428043D01*
X349394Y428861D01*
X348855Y429563D01*
X348152Y430102D01*
X347334Y430441D01*
X346957Y430491D01*
D02*
G37*
G36*
X748032Y413733D02*
X746922Y413588D01*
X745889Y413160D01*
X745002Y412478D01*
X744321Y411591D01*
X743893Y410558D01*
X743747Y409449D01*
X743893Y408340D01*
X744321Y407306D01*
X745002Y406419D01*
X745889Y405738D01*
X746922Y405310D01*
X748032Y405164D01*
X749141Y405310D01*
X750174Y405738D01*
X751061Y406419D01*
X751742Y407306D01*
X752170Y408340D01*
X752316Y409449D01*
X752170Y410558D01*
X751742Y411591D01*
X751061Y412478D01*
X750174Y413160D01*
X749141Y413588D01*
X748032Y413733D01*
D02*
G37*
G36*
X349819Y416748D02*
X343094D01*
Y410024D01*
X349819D01*
Y416748D01*
D02*
G37*
G36*
X349782Y426665D02*
X346957D01*
Y423840D01*
X347334Y423890D01*
X348152Y424228D01*
X348855Y424767D01*
X349394Y425470D01*
X349732Y426288D01*
X349782Y426665D01*
D02*
G37*
G36*
X403543Y472124D02*
X351378D01*
X349712Y471960D01*
X348109Y471474D01*
X346633Y470684D01*
X345339Y469622D01*
X336480Y460764D01*
X335418Y459470D01*
X334629Y457993D01*
X334143Y456391D01*
X333979Y454724D01*
X334128Y453209D01*
X334068Y452756D01*
X334189Y451842D01*
X334541Y450991D01*
X335102Y450260D01*
X335383Y450044D01*
X335418Y449979D01*
X336480Y448685D01*
X337774Y447623D01*
X339251Y446833D01*
X340853Y446347D01*
X342520Y446183D01*
X344186Y446347D01*
X345788Y446833D01*
X347265Y447623D01*
X348559Y448685D01*
X354916Y455042D01*
X400005D01*
X412268Y442779D01*
X413562Y441717D01*
X415038Y440928D01*
X416641Y440442D01*
X418307Y440278D01*
X485635D01*
X574669Y351244D01*
X575963Y350182D01*
X577440Y349393D01*
X579042Y348906D01*
X580709Y348742D01*
X633548D01*
X634428Y346616D01*
X635644Y344632D01*
X637155Y342863D01*
X638924Y341353D01*
X640907Y340137D01*
X643056Y339247D01*
X645319Y338704D01*
X647638Y338521D01*
X649957Y338704D01*
X652219Y339247D01*
X654368Y340137D01*
X656352Y341353D01*
X658121Y342863D01*
X659632Y344632D01*
X660847Y346616D01*
X661737Y348765D01*
X662281Y351027D01*
X662463Y353346D01*
Y384842D01*
X662304Y386858D01*
X704156Y428709D01*
X705897Y429056D01*
X707460Y429586D01*
X751201D01*
X752764Y429056D01*
X755297Y428552D01*
X757874Y428383D01*
X760451Y428552D01*
X762984Y429056D01*
X765429Y429886D01*
X767745Y431028D01*
X769893Y432463D01*
X771834Y434166D01*
X773537Y436107D01*
X774972Y438254D01*
X776114Y440571D01*
X776944Y443016D01*
X777448Y445549D01*
X777617Y448126D01*
X777448Y450703D01*
X776944Y453236D01*
X776114Y455681D01*
X774972Y457998D01*
X773537Y460145D01*
X771834Y462086D01*
X769893Y463789D01*
X767745Y465224D01*
X765429Y466366D01*
X762984Y467196D01*
X760451Y467700D01*
X757874Y467869D01*
X755297Y467700D01*
X752764Y467196D01*
X751201Y466666D01*
X707460D01*
X705897Y467196D01*
X703364Y467700D01*
X700787Y467869D01*
X698210Y467700D01*
X695678Y467196D01*
X693232Y466366D01*
X690916Y465224D01*
X688769Y463789D01*
X686827Y462086D01*
X685124Y460145D01*
X683689Y457998D01*
X682547Y455681D01*
X681717Y453236D01*
X681213Y450703D01*
X681044Y448126D01*
X681213Y445549D01*
X681717Y443016D01*
X682547Y440571D01*
X683294Y439056D01*
X643219Y398981D01*
X643056Y398942D01*
X640907Y398052D01*
X638924Y396836D01*
X637155Y395325D01*
X635644Y393557D01*
X634428Y391573D01*
X633538Y389424D01*
X632995Y387162D01*
X632813Y384842D01*
Y365825D01*
X584246D01*
X495213Y454858D01*
X493918Y455921D01*
X492442Y456710D01*
X490839Y457196D01*
X489173Y457360D01*
X421845D01*
X409583Y469622D01*
X408288Y470684D01*
X406812Y471474D01*
X405210Y471960D01*
X403543Y472124D01*
D02*
G37*
G36*
X378453Y443038D02*
Y439319D01*
X382172D01*
X382091Y439928D01*
X381663Y440961D01*
X380982Y441849D01*
X380095Y442530D01*
X379062Y442958D01*
X378453Y443038D01*
D02*
G37*
G36*
X382201Y453067D02*
X373705D01*
Y444571D01*
X382201D01*
Y453067D01*
D02*
G37*
G36*
X647138Y478831D02*
X632813D01*
Y463583D01*
X632995Y461264D01*
X633538Y459001D01*
X634428Y456852D01*
X635644Y454869D01*
X637155Y453100D01*
X638924Y451589D01*
X640907Y450373D01*
X643056Y449483D01*
X645319Y448940D01*
X647138Y448797D01*
Y478831D01*
D02*
G37*
G36*
X382172Y438319D02*
X378453D01*
Y434600D01*
X379062Y434680D01*
X380095Y435108D01*
X380982Y435789D01*
X381663Y436677D01*
X382091Y437710D01*
X382172Y438319D01*
D02*
G37*
G36*
X377453D02*
X373734D01*
X373814Y437710D01*
X374242Y436677D01*
X374923Y435789D01*
X375810Y435108D01*
X376844Y434680D01*
X377453Y434600D01*
Y438319D01*
D02*
G37*
G36*
Y443038D02*
X376844Y442958D01*
X375810Y442530D01*
X374923Y441849D01*
X374242Y440961D01*
X373814Y439928D01*
X373734Y439319D01*
X377453D01*
Y443038D01*
D02*
G37*
G36*
X460130Y321305D02*
X459521Y321225D01*
X458488Y320797D01*
X457600Y320116D01*
X456919Y319229D01*
X456491Y318196D01*
X456411Y317587D01*
X460130D01*
Y321305D01*
D02*
G37*
G36*
X692913Y280108D02*
X691938Y279914D01*
X691111Y279362D01*
X690929Y279088D01*
X672260D01*
X672078Y279362D01*
X671251Y279914D01*
X670276Y280108D01*
X669300Y279914D01*
X668473Y279362D01*
X667921Y278535D01*
X667727Y277559D01*
X667921Y276584D01*
X668473Y275757D01*
X669300Y275204D01*
X670276Y275010D01*
X671251Y275204D01*
X672078Y275757D01*
X672260Y276030D01*
X690929D01*
X691111Y275757D01*
X691938Y275204D01*
X692913Y275010D01*
X693889Y275204D01*
X694716Y275757D01*
X695268Y276584D01*
X695462Y277559D01*
X695268Y278535D01*
X694716Y279362D01*
X693889Y279914D01*
X692913Y280108D01*
D02*
G37*
G36*
X464878Y301335D02*
X456382D01*
Y292839D01*
X464878D01*
Y301335D01*
D02*
G37*
G36*
X346957Y281638D02*
Y278217D01*
X350378D01*
X350308Y278748D01*
X349909Y279710D01*
X349276Y280536D01*
X348450Y281169D01*
X347489Y281568D01*
X346957Y281638D01*
D02*
G37*
G36*
X345957Y277217D02*
X342536D01*
X342606Y276685D01*
X343004Y275723D01*
X343638Y274897D01*
X344463Y274264D01*
X345425Y273866D01*
X345957Y273796D01*
Y277217D01*
D02*
G37*
G36*
Y281638D02*
X345425Y281568D01*
X344463Y281169D01*
X343638Y280536D01*
X343004Y279710D01*
X342606Y278748D01*
X342536Y278217D01*
X345957D01*
Y281638D01*
D02*
G37*
G36*
X480626Y301335D02*
X472130D01*
Y292839D01*
X480626D01*
Y301335D01*
D02*
G37*
G36*
X752280Y307398D02*
X743784D01*
Y298902D01*
X752280D01*
Y307398D01*
D02*
G37*
G36*
X460630Y311371D02*
X459521Y311225D01*
X458488Y310797D01*
X457600Y310116D01*
X456919Y309229D01*
X456491Y308196D01*
X456345Y307087D01*
X456491Y305978D01*
X456919Y304944D01*
X457600Y304057D01*
X458488Y303376D01*
X459521Y302948D01*
X460630Y302802D01*
X461739Y302948D01*
X462772Y303376D01*
X463660Y304057D01*
X464341Y304944D01*
X464769Y305978D01*
X464915Y307087D01*
X464769Y308196D01*
X464341Y309229D01*
X463660Y310116D01*
X462772Y310797D01*
X461739Y311225D01*
X460630Y311371D01*
D02*
G37*
G36*
X124016Y325849D02*
X121697Y325666D01*
X119434Y325123D01*
X117285Y324233D01*
X115302Y323018D01*
X113533Y321507D01*
X112022Y319738D01*
X110806Y317754D01*
X109916Y315605D01*
X109373Y313343D01*
X109190Y311024D01*
X109373Y308704D01*
X109916Y306442D01*
X110806Y304293D01*
X112022Y302310D01*
X113533Y300541D01*
X115302Y299030D01*
X117285Y297814D01*
X119434Y296924D01*
X121697Y296381D01*
X124016Y296198D01*
X126335Y296381D01*
X128597Y296924D01*
X130746Y297814D01*
X132730Y299030D01*
X134499Y300541D01*
X136010Y302310D01*
X137225Y304293D01*
X138115Y306442D01*
X138658Y308704D01*
X138841Y311024D01*
X138658Y313343D01*
X138115Y315605D01*
X137225Y317754D01*
X136010Y319738D01*
X134499Y321507D01*
X132730Y323018D01*
X130746Y324233D01*
X128597Y325123D01*
X126335Y325666D01*
X124016Y325849D01*
D02*
G37*
G36*
X543618Y301335D02*
X535122D01*
Y292839D01*
X543618D01*
Y301335D01*
D02*
G37*
G36*
X559366D02*
X550870D01*
Y292839D01*
X559366D01*
Y301335D01*
D02*
G37*
G36*
X350378Y277217D02*
X346957D01*
Y273796D01*
X347489Y273866D01*
X348450Y274264D01*
X349276Y274897D01*
X349909Y275723D01*
X350308Y276685D01*
X350378Y277217D01*
D02*
G37*
G36*
X393701Y288441D02*
X391690Y288283D01*
X389730Y287812D01*
X387867Y287040D01*
X386147Y285987D01*
X384614Y284677D01*
X383304Y283144D01*
X382251Y281425D01*
X381479Y279562D01*
X381008Y277601D01*
X380850Y275590D01*
X381008Y273580D01*
X381479Y271620D01*
X382251Y269757D01*
X383304Y268037D01*
X384614Y266504D01*
X386147Y265194D01*
X387867Y264141D01*
X389730Y263369D01*
X391690Y262898D01*
X393701Y262740D01*
X395711Y262898D01*
X397672Y263369D01*
X399535Y264141D01*
X401254Y265194D01*
X402788Y266504D01*
X404097Y268037D01*
X405151Y269757D01*
X405923Y271620D01*
X406393Y273580D01*
X406551Y275590D01*
X406393Y277601D01*
X405923Y279562D01*
X405151Y281425D01*
X404097Y283144D01*
X402788Y284677D01*
X401254Y285987D01*
X399535Y287040D01*
X397672Y287812D01*
X395711Y288283D01*
X393701Y288441D01*
D02*
G37*
G36*
X775091Y267217D02*
X771372D01*
X771452Y266608D01*
X771880Y265574D01*
X772561Y264687D01*
X773448Y264006D01*
X774482Y263578D01*
X775091Y263498D01*
Y267217D01*
D02*
G37*
G36*
X145669Y288441D02*
X143659Y288283D01*
X141698Y287812D01*
X139835Y287040D01*
X138116Y285987D01*
X136583Y284677D01*
X135273Y283144D01*
X134219Y281425D01*
X133448Y279562D01*
X132977Y277601D01*
X132819Y275590D01*
X132977Y273580D01*
X133448Y271620D01*
X134219Y269757D01*
X135273Y268037D01*
X136583Y266504D01*
X138116Y265194D01*
X139835Y264141D01*
X141698Y263369D01*
X143659Y262898D01*
X145669Y262740D01*
X147680Y262898D01*
X149640Y263369D01*
X151503Y264141D01*
X153223Y265194D01*
X154756Y266504D01*
X156066Y268037D01*
X157119Y269757D01*
X157891Y271620D01*
X158362Y273580D01*
X158520Y275590D01*
X158362Y277601D01*
X157891Y279562D01*
X157119Y281425D01*
X156066Y283144D01*
X154756Y284677D01*
X153223Y285987D01*
X151503Y287040D01*
X149640Y287812D01*
X147680Y288283D01*
X145669Y288441D01*
D02*
G37*
G36*
X345957Y261638D02*
X345425Y261567D01*
X344463Y261169D01*
X343638Y260536D01*
X343004Y259710D01*
X342606Y258748D01*
X342536Y258217D01*
X345957D01*
Y261638D01*
D02*
G37*
G36*
X346957Y261638D02*
Y258217D01*
X350378D01*
X350308Y258748D01*
X349909Y259710D01*
X349276Y260536D01*
X348450Y261169D01*
X347489Y261567D01*
X346957Y261638D01*
D02*
G37*
G36*
X779809Y267217D02*
X776091D01*
Y263498D01*
X776699Y263578D01*
X777733Y264006D01*
X778620Y264687D01*
X779301Y265574D01*
X779729Y266608D01*
X779809Y267217D01*
D02*
G37*
G36*
X575114Y301335D02*
X566618D01*
Y295002D01*
X542831Y271214D01*
X521654D01*
X521068Y271098D01*
X520908Y270991D01*
X520590Y271380D01*
X524704Y275493D01*
X525035Y275990D01*
X525151Y276575D01*
Y292839D01*
X527870D01*
Y301335D01*
X519374D01*
Y292839D01*
X522093D01*
Y277208D01*
X510019Y265134D01*
X509687Y264638D01*
X509571Y264053D01*
Y224385D01*
X509298Y224202D01*
X508875Y223571D01*
X508790Y223535D01*
X508321Y223756D01*
Y292839D01*
X512122D01*
Y301335D01*
X503626D01*
Y292839D01*
X505262D01*
Y223343D01*
X504989Y223161D01*
X504436Y222334D01*
X504242Y221358D01*
X504314Y220997D01*
X503854Y220750D01*
X503498Y221106D01*
Y281480D01*
X503771Y281662D01*
X504323Y282489D01*
X504518Y283465D01*
X504323Y284440D01*
X503771Y285267D01*
X502944Y285820D01*
X501968Y286014D01*
X501655Y285951D01*
X501354Y286401D01*
X501371Y286426D01*
X501565Y287402D01*
X501371Y288377D01*
X500818Y289204D01*
X499991Y289756D01*
X499016Y289951D01*
X498040Y289756D01*
X497213Y289204D01*
X496661Y288377D01*
X496467Y287402D01*
X496582Y286821D01*
X496502Y286417D01*
Y219291D01*
X496619Y218706D01*
X496950Y218210D01*
X503786Y211374D01*
X503631Y210822D01*
X503562Y210805D01*
X493655Y220712D01*
Y292839D01*
X496374D01*
Y301335D01*
X487878D01*
Y292839D01*
X490597D01*
Y220079D01*
X490713Y219494D01*
X491045Y218997D01*
X501747Y208295D01*
X501683Y207972D01*
X501877Y206997D01*
X502430Y206170D01*
X503257Y205617D01*
X504232Y205423D01*
X505208Y205617D01*
X506035Y206170D01*
X506514Y206887D01*
X506679Y206925D01*
X506904D01*
X507069Y206887D01*
X507548Y206170D01*
X508375Y205617D01*
X509350Y205423D01*
X510326Y205617D01*
X511153Y206170D01*
X511632Y206887D01*
X511797Y206925D01*
X512022D01*
X512187Y206887D01*
X512666Y206170D01*
X513493Y205617D01*
X514468Y205423D01*
X515444Y205617D01*
X516271Y206170D01*
X516823Y206997D01*
X517018Y207972D01*
X516823Y208948D01*
X516271Y209775D01*
X515444Y210327D01*
X514468Y210521D01*
X514147Y210457D01*
X506183Y218420D01*
X506430Y218881D01*
X506791Y218809D01*
X507767Y219003D01*
X508594Y219556D01*
X509036Y220217D01*
X509150Y220383D01*
X509652Y220361D01*
X510124Y220045D01*
X511100Y219851D01*
X512076Y220045D01*
X512902Y220598D01*
X513172Y221001D01*
X513260Y221024D01*
X513751Y220967D01*
X514198Y220298D01*
X515025Y219745D01*
X516000Y219551D01*
X516975Y219745D01*
X517030Y219781D01*
X517471Y219546D01*
Y217323D01*
X517587Y216738D01*
X517919Y216241D01*
X523132Y211028D01*
X523090Y210464D01*
X522998Y210402D01*
X522445Y209576D01*
X522251Y208600D01*
X522445Y207625D01*
X522998Y206798D01*
X523825Y206245D01*
X523888Y206232D01*
X524034Y205754D01*
X522491Y204211D01*
X522275Y204355D01*
X521300Y204549D01*
X520325Y204355D01*
X519498Y203802D01*
X518945Y202976D01*
X518751Y202000D01*
X518945Y201025D01*
X519498Y200198D01*
X520325Y199645D01*
X521300Y199451D01*
X522275Y199645D01*
X523102Y200198D01*
X523655Y201025D01*
X523661Y201056D01*
X526298Y203693D01*
X531121D01*
X531706Y203809D01*
X532202Y204141D01*
X533960Y205898D01*
X534291Y206394D01*
X534408Y206980D01*
Y262397D01*
X534291Y262983D01*
X533979Y263449D01*
X534045Y263779D01*
X533851Y264755D01*
X533298Y265582D01*
X532472Y266135D01*
X531496Y266329D01*
X530521Y266135D01*
X529694Y265582D01*
X529141Y264755D01*
X528947Y263779D01*
X529141Y262804D01*
X529694Y261977D01*
X530521Y261425D01*
X531349Y261260D01*
Y234673D01*
X530849Y234406D01*
X530502Y234638D01*
X529527Y234832D01*
X528551Y234638D01*
X527724Y234085D01*
X527620Y233929D01*
X527120Y234081D01*
Y238173D01*
X527393Y238355D01*
X527946Y239182D01*
X528139Y240158D01*
X527946Y241133D01*
X527393Y241960D01*
X526566Y242512D01*
X525591Y242706D01*
X524615Y242512D01*
X524029Y242121D01*
X523529Y242388D01*
Y254213D01*
X524009Y254930D01*
X524202Y255906D01*
X524009Y256881D01*
X523456Y257708D01*
X522629Y258260D01*
X521654Y258454D01*
X520678Y258260D01*
X519851Y257708D01*
X519299Y256881D01*
X519105Y255906D01*
X519299Y254930D01*
X519851Y254103D01*
X520471Y253689D01*
Y250386D01*
X520030Y250150D01*
X519676Y250387D01*
X518701Y250581D01*
X517725Y250387D01*
X516898Y249834D01*
X516793Y249676D01*
X516293Y249828D01*
Y262162D01*
X522287Y268156D01*
X543465D01*
X544050Y268272D01*
X544546Y268604D01*
X568781Y292839D01*
X575114D01*
Y301335D01*
D02*
G37*
G36*
X775591Y282001D02*
X774482Y281855D01*
X773448Y281427D01*
X772561Y280746D01*
X771880Y279859D01*
X771452Y278825D01*
X771306Y277716D01*
X771452Y276608D01*
X771880Y275574D01*
X772561Y274687D01*
X773448Y274006D01*
X774482Y273578D01*
X775591Y273432D01*
X776699Y273578D01*
X777733Y274006D01*
X778620Y274687D01*
X779301Y275574D01*
X779729Y276608D01*
X779875Y277716D01*
X779729Y278825D01*
X779301Y279859D01*
X778620Y280746D01*
X777733Y281427D01*
X776699Y281855D01*
X775591Y282001D01*
D02*
G37*
G36*
X776091Y271935D02*
Y268217D01*
X779809D01*
X779729Y268826D01*
X779301Y269859D01*
X778620Y270746D01*
X777733Y271427D01*
X776699Y271855D01*
X776091Y271935D01*
D02*
G37*
G36*
X346457Y271703D02*
X345425Y271568D01*
X344463Y271169D01*
X343638Y270536D01*
X343004Y269710D01*
X342606Y268748D01*
X342470Y267717D01*
X342606Y266685D01*
X343004Y265723D01*
X343638Y264897D01*
X344463Y264264D01*
X345425Y263865D01*
X346457Y263730D01*
X347489Y263865D01*
X348450Y264264D01*
X349276Y264897D01*
X349909Y265723D01*
X350308Y266685D01*
X350444Y267717D01*
X350308Y268748D01*
X349909Y269710D01*
X349276Y270536D01*
X348450Y271169D01*
X347489Y271568D01*
X346457Y271703D01*
D02*
G37*
G36*
X775091Y271935D02*
X774482Y271855D01*
X773448Y271427D01*
X772561Y270746D01*
X771880Y269859D01*
X771452Y268826D01*
X771372Y268217D01*
X775091D01*
Y271935D01*
D02*
G37*
G36*
X476378Y311371D02*
X475269Y311225D01*
X474236Y310797D01*
X473348Y310116D01*
X472667Y309229D01*
X472239Y308196D01*
X472093Y307087D01*
X472239Y305978D01*
X472667Y304944D01*
X473348Y304057D01*
X474236Y303376D01*
X475269Y302948D01*
X476378Y302802D01*
X477487Y302948D01*
X478520Y303376D01*
X479408Y304057D01*
X480089Y304944D01*
X480517Y305978D01*
X480663Y307087D01*
X480517Y308196D01*
X480089Y309229D01*
X479408Y310116D01*
X478520Y310797D01*
X477487Y311225D01*
X476378Y311371D01*
D02*
G37*
G36*
X554618Y316587D02*
X550899D01*
X550979Y315978D01*
X551407Y314944D01*
X552088Y314057D01*
X552976Y313376D01*
X554009Y312948D01*
X554618Y312868D01*
Y316587D01*
D02*
G37*
G36*
X480597D02*
X476878D01*
Y312868D01*
X477487Y312948D01*
X478520Y313376D01*
X479408Y314057D01*
X480089Y314944D01*
X480517Y315978D01*
X480597Y316587D01*
D02*
G37*
G36*
X559337D02*
X555618D01*
Y312868D01*
X556227Y312948D01*
X557260Y313376D01*
X558148Y314057D01*
X558829Y314944D01*
X559257Y315978D01*
X559337Y316587D01*
D02*
G37*
G36*
X491626Y316587D02*
X487907D01*
X487987Y315978D01*
X488415Y314944D01*
X489096Y314057D01*
X489984Y313376D01*
X491017Y312948D01*
X491626Y312868D01*
Y316587D01*
D02*
G37*
G36*
X570366D02*
X566647D01*
X566727Y315978D01*
X567156Y314944D01*
X567836Y314057D01*
X568724Y313376D01*
X569757Y312948D01*
X570366Y312868D01*
Y316587D01*
D02*
G37*
G36*
X475878Y316587D02*
X472159D01*
X472239Y315978D01*
X472667Y314944D01*
X473348Y314057D01*
X474236Y313376D01*
X475269Y312948D01*
X475878Y312868D01*
Y316587D01*
D02*
G37*
G36*
X527841Y316587D02*
X524122D01*
Y312868D01*
X524731Y312948D01*
X525764Y313376D01*
X526652Y314057D01*
X527333Y314944D01*
X527761Y315978D01*
X527841Y316587D01*
D02*
G37*
G36*
X464849Y316587D02*
X461130D01*
Y312868D01*
X461739Y312948D01*
X462772Y313376D01*
X463660Y314057D01*
X464341Y314944D01*
X464769Y315978D01*
X464849Y316587D01*
D02*
G37*
G36*
X543589D02*
X539870D01*
Y312868D01*
X540479Y312948D01*
X541512Y313376D01*
X542400Y314057D01*
X543081Y314944D01*
X543509Y315978D01*
X543589Y316587D01*
D02*
G37*
G36*
X496345Y316587D02*
X492626D01*
Y312868D01*
X493235Y312948D01*
X494268Y313376D01*
X495156Y314057D01*
X495837Y314944D01*
X496265Y315978D01*
X496345Y316587D01*
D02*
G37*
G36*
X575085D02*
X571366D01*
Y312868D01*
X571975Y312948D01*
X573008Y313376D01*
X573896Y314057D01*
X574577Y314944D01*
X575005Y315978D01*
X575085Y316587D01*
D02*
G37*
G36*
X512093Y316587D02*
X508374D01*
Y312868D01*
X508983Y312948D01*
X510016Y313376D01*
X510904Y314057D01*
X511585Y314944D01*
X512013Y315978D01*
X512093Y316587D01*
D02*
G37*
G36*
X523122D02*
X519403D01*
X519483Y315978D01*
X519911Y314944D01*
X520592Y314057D01*
X521480Y313376D01*
X522513Y312948D01*
X523122Y312868D01*
Y316587D01*
D02*
G37*
G36*
X570866Y311371D02*
X569757Y311225D01*
X568724Y310797D01*
X567836Y310116D01*
X567156Y309229D01*
X566727Y308196D01*
X566581Y307087D01*
X566727Y305978D01*
X567156Y304944D01*
X567836Y304057D01*
X568724Y303376D01*
X569757Y302948D01*
X570866Y302802D01*
X571975Y302948D01*
X573008Y303376D01*
X573896Y304057D01*
X574577Y304944D01*
X575005Y305978D01*
X575151Y307087D01*
X575005Y308196D01*
X574577Y309229D01*
X573896Y310116D01*
X573008Y310797D01*
X571975Y311225D01*
X570866Y311371D01*
D02*
G37*
G36*
X555118D02*
X554009Y311225D01*
X552976Y310797D01*
X552088Y310116D01*
X551407Y309229D01*
X550979Y308196D01*
X550833Y307087D01*
X550979Y305978D01*
X551407Y304944D01*
X552088Y304057D01*
X552976Y303376D01*
X554009Y302948D01*
X555118Y302802D01*
X556227Y302948D01*
X557260Y303376D01*
X558148Y304057D01*
X558829Y304944D01*
X559257Y305978D01*
X559403Y307087D01*
X559257Y308196D01*
X558829Y309229D01*
X558148Y310116D01*
X557260Y310797D01*
X556227Y311225D01*
X555118Y311371D01*
D02*
G37*
G36*
X460130Y316587D02*
X456411D01*
X456491Y315978D01*
X456919Y314944D01*
X457600Y314057D01*
X458488Y313376D01*
X459521Y312948D01*
X460130Y312868D01*
Y316587D01*
D02*
G37*
G36*
X748032Y317277D02*
X746922Y317131D01*
X745889Y316703D01*
X745002Y316022D01*
X744321Y315135D01*
X743893Y314101D01*
X743747Y312992D01*
X743893Y311883D01*
X744321Y310850D01*
X745002Y309962D01*
X745889Y309281D01*
X746922Y308853D01*
X748032Y308707D01*
X749141Y308853D01*
X750174Y309281D01*
X751061Y309962D01*
X751742Y310850D01*
X752170Y311883D01*
X752316Y312992D01*
X752170Y314101D01*
X751742Y315135D01*
X751061Y316022D01*
X750174Y316703D01*
X749141Y317131D01*
X748032Y317277D01*
D02*
G37*
G36*
X507874Y311371D02*
X506765Y311225D01*
X505732Y310797D01*
X504844Y310116D01*
X504163Y309229D01*
X503735Y308196D01*
X503589Y307087D01*
X503735Y305978D01*
X504163Y304944D01*
X504844Y304057D01*
X505732Y303376D01*
X506765Y302948D01*
X507874Y302802D01*
X508983Y302948D01*
X510016Y303376D01*
X510904Y304057D01*
X511585Y304944D01*
X512013Y305978D01*
X512159Y307087D01*
X512013Y308196D01*
X511585Y309229D01*
X510904Y310116D01*
X510016Y310797D01*
X508983Y311225D01*
X507874Y311371D01*
D02*
G37*
G36*
X492126D02*
X491017Y311225D01*
X489984Y310797D01*
X489096Y310116D01*
X488415Y309229D01*
X487987Y308196D01*
X487841Y307087D01*
X487987Y305978D01*
X488415Y304944D01*
X489096Y304057D01*
X489984Y303376D01*
X491017Y302948D01*
X492126Y302802D01*
X493235Y302948D01*
X494268Y303376D01*
X495156Y304057D01*
X495837Y304944D01*
X496265Y305978D01*
X496411Y307087D01*
X496265Y308196D01*
X495837Y309229D01*
X495156Y310116D01*
X494268Y310797D01*
X493235Y311225D01*
X492126Y311371D01*
D02*
G37*
G36*
X539370D02*
X538261Y311225D01*
X537228Y310797D01*
X536340Y310116D01*
X535659Y309229D01*
X535231Y308196D01*
X535085Y307087D01*
X535231Y305978D01*
X535659Y304944D01*
X536340Y304057D01*
X537228Y303376D01*
X538261Y302948D01*
X539370Y302802D01*
X540479Y302948D01*
X541512Y303376D01*
X542400Y304057D01*
X543081Y304944D01*
X543509Y305978D01*
X543655Y307087D01*
X543509Y308196D01*
X543081Y309229D01*
X542400Y310116D01*
X541512Y310797D01*
X540479Y311225D01*
X539370Y311371D01*
D02*
G37*
G36*
X523622D02*
X522513Y311225D01*
X521480Y310797D01*
X520592Y310116D01*
X519911Y309229D01*
X519483Y308196D01*
X519337Y307087D01*
X519483Y305978D01*
X519911Y304944D01*
X520592Y304057D01*
X521480Y303376D01*
X522513Y302948D01*
X523622Y302802D01*
X524731Y302948D01*
X525764Y303376D01*
X526652Y304057D01*
X527333Y304944D01*
X527761Y305978D01*
X527907Y307087D01*
X527761Y308196D01*
X527333Y309229D01*
X526652Y310116D01*
X525764Y310797D01*
X524731Y311225D01*
X523622Y311371D01*
D02*
G37*
G36*
X538870Y316587D02*
X535151D01*
X535231Y315978D01*
X535659Y314944D01*
X536340Y314057D01*
X537228Y313376D01*
X538261Y312948D01*
X538870Y312868D01*
Y316587D01*
D02*
G37*
G36*
X507374Y316587D02*
X503655D01*
X503735Y315978D01*
X504163Y314944D01*
X504844Y314057D01*
X505732Y313376D01*
X506765Y312948D01*
X507374Y312868D01*
Y316587D01*
D02*
G37*
%LPD*%
G36*
X586669Y211670D02*
X586454Y211178D01*
X585639Y211016D01*
X584812Y210464D01*
X584259Y209637D01*
X584065Y208661D01*
X584259Y207686D01*
X584308Y207613D01*
X580014Y203319D01*
X579576Y203456D01*
X579514Y203504D01*
Y210658D01*
X580662Y211806D01*
X580984Y211742D01*
X581960Y211936D01*
X582787Y212489D01*
X582969Y212762D01*
X585578D01*
X586669Y211670D01*
D02*
G37*
G36*
X691469Y253560D02*
X691349Y252953D01*
X691543Y251977D01*
X692095Y251150D01*
X692922Y250598D01*
X693898Y250404D01*
X694220Y250468D01*
X699883Y244805D01*
X699564Y244416D01*
X699404Y244523D01*
X698819Y244640D01*
X682495D01*
X682304Y245102D01*
X691009Y253806D01*
X691469Y253560D01*
D02*
G37*
G36*
X639219Y78951D02*
Y55118D01*
X639335Y54533D01*
X639667Y54037D01*
X642200Y51503D01*
X642136Y51181D01*
X642257Y50574D01*
X641796Y50327D01*
X638262Y53862D01*
Y78645D01*
X638535Y78828D01*
X638719Y79103D01*
X639219Y78951D01*
D02*
G37*
G36*
X649888Y319406D02*
Y315134D01*
X649615Y314952D01*
X649062Y314125D01*
X648868Y313150D01*
X649062Y312174D01*
X649615Y311347D01*
X649888Y311165D01*
Y308547D01*
X647541Y306200D01*
X647209Y305703D01*
X647093Y305118D01*
Y277559D01*
X647209Y276974D01*
X647541Y276478D01*
X666241Y257777D01*
X666738Y257445D01*
X667323Y257329D01*
X686007D01*
X686190Y257056D01*
X687017Y256503D01*
X687992Y256309D01*
X688599Y256430D01*
X688846Y255969D01*
X676532Y243655D01*
X653560D01*
X653377Y243928D01*
X652550Y244481D01*
X651575Y244675D01*
X650599Y244481D01*
X649772Y243928D01*
X649220Y243101D01*
X649026Y242126D01*
X649220Y241150D01*
X649772Y240324D01*
X650599Y239771D01*
X651575Y239577D01*
X652550Y239771D01*
X653377Y240324D01*
X653560Y240597D01*
X675772D01*
X675964Y240135D01*
X671611Y235781D01*
X648271D01*
X645230Y238823D01*
Y320866D01*
X645114Y321451D01*
X644782Y321948D01*
X642814Y323916D01*
X642318Y324248D01*
X641732Y324364D01*
X635655D01*
X635503Y324864D01*
X635661Y324969D01*
X635843Y325242D01*
X644052D01*
X649888Y319406D01*
D02*
G37*
G36*
X642171Y320233D02*
Y238189D01*
X642288Y237604D01*
X642619Y237107D01*
X646556Y233171D01*
X647052Y232839D01*
X647638Y232723D01*
X672244D01*
X672829Y232839D01*
X673325Y233171D01*
X681736Y241581D01*
X697838D01*
X697887Y241502D01*
X697623Y240979D01*
X696804Y240871D01*
X695771Y240443D01*
X694884Y239762D01*
X694203Y238875D01*
X693775Y237841D01*
X693629Y236732D01*
X693775Y235623D01*
X694203Y234590D01*
X694884Y233703D01*
X694887Y233700D01*
Y229765D01*
X694884Y229762D01*
X694203Y228875D01*
X693775Y227841D01*
X693629Y226732D01*
X693775Y225623D01*
X694203Y224590D01*
X694710Y223929D01*
X694463Y223429D01*
X691364D01*
X691117Y223929D01*
X691624Y224590D01*
X692052Y225623D01*
X692198Y226732D01*
X692052Y227841D01*
X691624Y228875D01*
X690943Y229762D01*
X690056Y230443D01*
X689022Y230871D01*
X687913Y231017D01*
X686804Y230871D01*
X685771Y230443D01*
X684884Y229762D01*
X684203Y228875D01*
X683775Y227841D01*
X683629Y226732D01*
X683775Y225623D01*
X684203Y224590D01*
X684710Y223929D01*
X684463Y223429D01*
X645859D01*
X639325Y229964D01*
Y260827D01*
Y264984D01*
X639598Y265166D01*
X640150Y265993D01*
X640344Y266968D01*
X640150Y267944D01*
X639598Y268771D01*
X639325Y268953D01*
Y316165D01*
X639598Y316347D01*
X640150Y317174D01*
X640344Y318150D01*
X640150Y319125D01*
X639598Y319952D01*
X638771Y320505D01*
X637795Y320699D01*
X636820Y320505D01*
X635993Y319952D01*
X635440Y319125D01*
X635246Y318150D01*
X635440Y317174D01*
X635993Y316347D01*
X636266Y316165D01*
Y268953D01*
X635993Y268771D01*
X635440Y267944D01*
X635246Y266968D01*
X635440Y265993D01*
X635993Y265166D01*
X636266Y264984D01*
Y262356D01*
X622510D01*
X622302Y262856D01*
X624886Y265439D01*
X627936D01*
X628119Y265166D01*
X628946Y264614D01*
X629921Y264420D01*
X630897Y264614D01*
X631724Y265166D01*
X632276Y265993D01*
X632470Y266968D01*
X632276Y267944D01*
X631724Y268771D01*
X631451Y268953D01*
Y316165D01*
X631724Y316347D01*
X632276Y317174D01*
X632470Y318150D01*
X632406Y318472D01*
X635240Y321305D01*
X641099D01*
X642171Y320233D01*
D02*
G37*
%LPC*%
G36*
X692161Y240980D02*
X683665D01*
Y232484D01*
X692161D01*
Y240980D01*
D02*
G37*
%LPD*%
G36*
X500166Y281662D02*
X500439Y281480D01*
Y220472D01*
X500556Y219887D01*
X500887Y219391D01*
X508904Y211374D01*
X508749Y210822D01*
X508681Y210805D01*
X499561Y219925D01*
Y281668D01*
X500061Y281820D01*
X500166Y281662D01*
D02*
G37*
G36*
X513458Y263540D02*
X513351Y263381D01*
X513234Y262795D01*
Y241142D01*
X513351Y240557D01*
X513682Y240060D01*
X514937Y238806D01*
X514919Y238787D01*
X514587Y238291D01*
X514471Y237705D01*
Y224085D01*
X514198Y223902D01*
X513928Y223499D01*
X513840Y223476D01*
X513349Y223533D01*
X512902Y224202D01*
X512629Y224385D01*
Y263419D01*
X513069Y263859D01*
X513458Y263540D01*
D02*
G37*
G36*
X525398Y221298D02*
X526225Y220745D01*
X527200Y220551D01*
X528175Y220745D01*
X528230Y220781D01*
X528671Y220546D01*
Y211184D01*
X528024Y211055D01*
X527198Y210502D01*
X526661Y210458D01*
X526329Y210762D01*
Y211523D01*
X526213Y212108D01*
X525881Y212604D01*
X520529Y217956D01*
Y219946D01*
X520970Y220181D01*
X521025Y220145D01*
X522000Y219951D01*
X522975Y220145D01*
X523802Y220698D01*
X524355Y221525D01*
X524424Y221873D01*
X524952Y221964D01*
X525398Y221298D01*
D02*
G37*
D21*
X700787Y492126D02*
X757874D01*
X700787Y448126D02*
X757874D01*
X660433Y492126D02*
X700787D01*
D22*
X647638Y479331D02*
X660433Y492126D01*
X696158Y448126D02*
X700787D01*
X599606Y519685D02*
X608268Y511024D01*
X647638Y369094D02*
Y387795D01*
X728346Y397638D02*
Y413386D01*
Y381890D02*
Y397638D01*
Y366142D02*
Y381890D01*
X728346Y330709D02*
Y346457D01*
Y314961D02*
Y330709D01*
Y299213D02*
Y314961D01*
X665354Y299213D02*
X673228D01*
X692913Y377953D02*
X708661D01*
X653543Y293307D02*
X726378Y366142D01*
X728346D01*
X696850Y326772D02*
X708661D01*
X664370Y81693D02*
X666339D01*
X672244Y234252D02*
X681102Y243110D01*
X647638Y234252D02*
X672244D01*
X643701Y238189D02*
X647638Y234252D01*
X715394Y210787D02*
X732283D01*
X643701Y238189D02*
Y320866D01*
X629921Y318150D02*
X634606Y322835D01*
X641732D01*
X643701Y320866D01*
X492126Y220079D02*
Y297087D01*
Y220079D02*
X504232Y207972D01*
X506791Y296004D02*
X507874Y297087D01*
X523622Y276575D02*
Y297087D01*
X501968Y220472D02*
X514468Y207972D01*
X501968Y220472D02*
Y283465D01*
X521654Y269685D02*
X543465D01*
X570866Y297087D01*
X638779Y216535D02*
Y223425D01*
X519685Y92677D02*
X558898D01*
X591535Y60039D01*
X599409D01*
X605905Y66535D01*
X519685Y102677D02*
X561890D01*
X598032Y66535D01*
X645226Y221900D02*
X704281D01*
X715394Y210787D01*
X666339Y81693D02*
X683165Y98520D01*
Y98699D01*
X686166Y101700D01*
X506791Y221358D02*
Y296004D01*
X498032Y219291D02*
X509350Y207972D01*
X498032Y219291D02*
Y286417D01*
X499016Y287402D01*
X351220Y26732D02*
Y29528D01*
X629921Y266968D02*
Y318150D01*
X607283Y227362D02*
Y235236D01*
Y227362D02*
X607283Y227362D01*
X637795Y260827D02*
Y266968D01*
X624252D02*
X629921D01*
X602362Y70079D02*
X605905Y66535D01*
X602362Y70079D02*
Y241142D01*
X622047Y260827D01*
X607283Y227362D02*
X607283Y227362D01*
X607283Y214567D02*
Y227362D01*
X622047Y260827D02*
X637795D01*
Y229331D02*
X645226Y221900D01*
X637795Y229331D02*
Y260827D01*
Y266968D02*
Y318150D01*
X633858Y326772D02*
X644685D01*
X651417Y320039D01*
Y313150D02*
Y320039D01*
X670276Y277559D02*
X692913D01*
X681102Y243110D02*
X698819D01*
X721142Y220787D01*
X732283D01*
X716063Y230787D02*
X732283D01*
X693898Y252953D02*
X716063Y230787D01*
X651575Y242126D02*
X677165D01*
X728346Y293307D01*
Y299213D01*
X651417Y307913D02*
Y313150D01*
X648622Y305118D02*
X651417Y307913D01*
X648622Y277559D02*
Y305118D01*
Y277559D02*
X667323Y258858D01*
X687992D01*
X575591Y48425D02*
X591732D01*
X604843Y61535D01*
X605905D01*
X610236Y90551D02*
X611221Y89567D01*
X636732Y53228D02*
Y80630D01*
Y53228D02*
X644685Y45276D01*
X621063Y112205D02*
X636732Y127874D01*
X621063Y94488D02*
Y112205D01*
Y94488D02*
X627953Y87598D01*
X638779D01*
X640748Y85630D01*
Y55118D02*
Y85630D01*
Y55118D02*
X644685Y51181D01*
X636732Y175118D02*
X644764D01*
X655512Y164370D01*
Y69882D02*
Y164370D01*
X644685Y59055D02*
X655512Y69882D01*
X728346Y357283D02*
Y366142D01*
X616378Y236968D02*
X633622D01*
X633858Y237205D01*
X686166Y101700D02*
X692881D01*
X697913Y106732D01*
X580984Y214291D02*
X586211D01*
X580984Y119803D02*
Y167047D01*
X598472Y241189D02*
X624252Y266968D01*
X598032Y66535D02*
X598472Y66976D01*
Y241189D01*
X591583Y156449D02*
X593386Y154646D01*
X591583Y156449D02*
Y208920D01*
X586211Y214291D02*
X591583Y208920D01*
X588583Y133858D02*
X590551Y131890D01*
X588583Y133858D02*
Y201772D01*
X521654Y255906D02*
X522000Y255559D01*
X534449Y196063D02*
X537700D01*
X525665Y205222D02*
X531121D01*
X532878Y206980D01*
Y262397D01*
X531496Y263779D02*
X532878Y262397D01*
X522000Y222500D02*
Y255559D01*
X529000Y208700D02*
X530200Y209900D01*
Y231610D01*
X529527Y232283D02*
X530200Y231610D01*
X525591Y224710D02*
Y240158D01*
Y224710D02*
X527200Y223100D01*
X586614Y207757D02*
Y208661D01*
X580984Y167047D02*
Y202127D01*
X586614Y207757D01*
X584200Y116587D02*
X593386Y107402D01*
X584200Y116587D02*
Y154100D01*
Y201100D01*
X577984Y211291D02*
X580984Y214291D01*
X577984Y114316D02*
Y211291D01*
Y114316D02*
X585300Y107000D01*
X525400Y198025D02*
X525591Y197835D01*
X525400Y198025D02*
Y199900D01*
X522443Y202000D02*
X525665Y205222D01*
X521300Y202000D02*
X522443D01*
X514764Y262795D02*
X521654Y269685D01*
X514764Y241142D02*
Y262795D01*
Y241142D02*
X517100Y238806D01*
X516000Y237705D02*
X517100Y238806D01*
X518701Y248031D02*
X519100Y247632D01*
X524800Y208600D02*
Y211523D01*
X519000Y217323D02*
X524800Y211523D01*
X519100Y223843D02*
Y247632D01*
X519000Y223743D02*
X519100Y223843D01*
X519000Y217323D02*
Y223743D01*
X516000Y222100D02*
Y237705D01*
X511100Y222400D02*
Y264053D01*
X523622Y276575D01*
X696158Y448126D02*
X700787Y443496D01*
D25*
X421260Y519685D02*
X599606D01*
X421260Y492125D02*
X527560D01*
X608268Y411417D01*
Y400787D02*
Y411417D01*
X366142Y492125D02*
X421260D01*
X311025D02*
X366142D01*
X311024Y492126D02*
X311025Y492125D01*
X255906Y492126D02*
X311024D01*
X255906Y346458D02*
X311023D01*
X311024Y346457D01*
X366142D01*
X421259D01*
X421260Y346458D01*
X366142Y519685D02*
X421260D01*
X311025D02*
X366142D01*
X311024Y519686D02*
X311025Y519685D01*
X255906Y519686D02*
X311024D01*
X220473D02*
X255906D01*
X220473Y318899D02*
Y519686D01*
Y318899D02*
X220474Y318898D01*
X255906D01*
X311023D01*
X311024Y318897D01*
X366142D01*
X421259D01*
X421260Y318898D01*
X647638Y387795D02*
X700787Y440945D01*
Y443496D01*
X255906Y346458D02*
Y492126D01*
D26*
X377953Y397638D02*
X389764Y385827D01*
X314961Y27559D02*
X330709Y43307D01*
X381890D01*
X389764Y385827D02*
X425197D01*
X732283Y175354D02*
X744095Y163543D01*
Y151732D02*
Y163543D01*
X732283Y106299D02*
X744095Y118110D01*
Y129921D01*
X732283Y139921D02*
X733189Y140827D01*
X744095Y151732D01*
X381890Y19685D02*
X385827Y23622D01*
X351220Y26732D02*
X358268Y19685D01*
X381890D01*
X385827Y23622D02*
Y27559D01*
X732283Y104488D02*
X734094D01*
X742283Y96299D01*
X716535Y47244D02*
Y66929D01*
X742283Y92677D01*
Y96299D01*
X385827Y27559D02*
X397638Y39370D01*
X708661D02*
X716535Y47244D01*
X381890Y43307D02*
X433071Y94488D01*
Y118110D01*
X425197Y385827D02*
X444882Y366142D01*
X433071Y118110D02*
X444882Y129921D01*
Y366142D01*
X611221Y39370D02*
Y89567D01*
X397638Y39370D02*
X611221D01*
X708661D01*
X610236Y90551D02*
Y137795D01*
Y185039D01*
X732283Y141732D02*
X733189Y140827D01*
X744095Y129921D01*
X697913Y226732D02*
Y236732D01*
D27*
X724409Y165354D02*
X732283D01*
X665748Y90551D02*
Y100787D01*
Y137795D02*
X677165D01*
X665748Y185039D02*
X679057Y171730D01*
X718034D01*
X724409Y165354D01*
X677165Y137795D02*
X683071Y131890D01*
X685688D01*
X685843Y131734D01*
X699984D01*
X700139Y131890D01*
X730315D01*
X665748Y100787D02*
X676695Y111734D01*
X715037D02*
X732283Y94488D01*
X676695Y111734D02*
X715037D01*
D29*
X456693Y240158D02*
X484252D01*
D30*
X706693Y7874D02*
X774606Y75787D01*
X294291Y7874D02*
X303150D01*
X313976D01*
X324803D01*
X334646D01*
X706693D01*
X334646Y185039D02*
X342520D01*
X350394D01*
X354331D01*
X133858D02*
X137795D01*
X145669D01*
X153543D01*
X334646D01*
X774606Y75787D02*
Y242126D01*
X729100D02*
X735600D01*
X718504D02*
X729100D01*
X735600D02*
X774606D01*
D31*
X272638Y29528D02*
X291339Y10827D01*
X452756Y448819D02*
X489173D01*
X418307D02*
X421260D01*
X452756D01*
X403543Y463583D02*
X418307Y448819D01*
X377461Y463583D02*
X403543D01*
X342520Y454724D02*
X351378Y463583D01*
X377461D01*
X489173Y448819D02*
X580709Y357283D01*
X635827D01*
D32*
X527362Y196063D02*
X534449D01*
X525591Y197835D02*
X527362Y196063D01*
D33*
X592362Y23622D02*
D03*
X602362D02*
D03*
X519685Y112677D02*
D03*
Y102677D02*
D03*
Y92677D02*
D03*
Y82677D02*
D03*
Y72677D02*
D03*
X449685Y102677D02*
D03*
Y92677D02*
D03*
Y82677D02*
D03*
Y72677D02*
D03*
X570866Y317087D02*
D03*
Y307087D02*
D03*
X555118Y317087D02*
D03*
Y307087D02*
D03*
X539370Y317087D02*
D03*
Y307087D02*
D03*
X523622Y317087D02*
D03*
Y307087D02*
D03*
X507874Y317087D02*
D03*
Y307087D02*
D03*
X492126Y317087D02*
D03*
Y307087D02*
D03*
X476378Y317087D02*
D03*
Y307087D02*
D03*
X460630Y317087D02*
D03*
Y307087D02*
D03*
X732283Y165354D02*
D03*
Y129921D02*
D03*
Y94488D02*
D03*
Y61181D02*
D03*
Y51181D02*
D03*
X775591Y277716D02*
D03*
Y267717D02*
D03*
X748032Y409449D02*
D03*
Y399606D02*
D03*
Y389764D02*
D03*
Y379921D02*
D03*
X748032Y342520D02*
D03*
Y332677D02*
D03*
Y322835D02*
D03*
Y312992D02*
D03*
X697913Y46732D02*
D03*
X687913D02*
D03*
X697913Y56732D02*
D03*
X687913D02*
D03*
X697913Y66732D02*
D03*
X687913D02*
D03*
X697913Y76732D02*
D03*
X687913D02*
D03*
X697913Y86732D02*
D03*
X687913D02*
D03*
X697913Y96732D02*
D03*
X687913D02*
D03*
X697913Y106732D02*
D03*
X687913D02*
D03*
X697913Y116732D02*
D03*
X687913D02*
D03*
X697913Y126732D02*
D03*
X687913D02*
D03*
X697913Y136732D02*
D03*
X687913D02*
D03*
X697913Y146732D02*
D03*
X687913D02*
D03*
X697913Y156732D02*
D03*
X687913D02*
D03*
X697913Y166732D02*
D03*
X687913D02*
D03*
X697913Y176732D02*
D03*
X687913D02*
D03*
X697913Y186732D02*
D03*
X687913D02*
D03*
X697913Y196732D02*
D03*
X687913D02*
D03*
X697913Y206732D02*
D03*
X687913D02*
D03*
X697913Y216732D02*
D03*
X687913D02*
D03*
X697913Y226732D02*
D03*
X687913D02*
D03*
X697913Y236732D02*
D03*
X377953Y438819D02*
D03*
Y387638D02*
D03*
X665748Y137795D02*
D03*
Y185039D02*
D03*
Y90551D02*
D03*
X540000Y173228D02*
D03*
X530000D02*
D03*
X520000D02*
D03*
X510000D02*
D03*
X500000D02*
D03*
X490000D02*
D03*
D34*
X612362Y23622D02*
D03*
X610236Y137795D02*
D03*
Y185039D02*
D03*
Y90551D02*
D03*
X480000Y173228D02*
D03*
D35*
X519685Y62677D02*
D03*
X570866Y297087D02*
D03*
X555118D02*
D03*
X539370D02*
D03*
X523622D02*
D03*
X507874D02*
D03*
X492126D02*
D03*
X476378D02*
D03*
X460630D02*
D03*
X732283Y175354D02*
D03*
Y139921D02*
D03*
Y104488D02*
D03*
Y71181D02*
D03*
X775591Y257716D02*
D03*
X748032Y370079D02*
D03*
X748032Y303150D02*
D03*
X687913Y236732D02*
D03*
X377953Y448819D02*
D03*
Y397638D02*
D03*
D36*
X767717Y531496D02*
D03*
Y19685D02*
D03*
X19685D02*
D03*
Y531496D02*
D03*
X393701Y275590D02*
D03*
D37*
X732283Y230787D02*
D03*
D38*
Y220787D02*
D03*
Y210787D02*
D03*
Y200787D02*
D03*
D39*
X700787Y448126D02*
D03*
Y492126D02*
D03*
X757874Y448126D02*
D03*
Y492126D02*
D03*
D40*
X255906Y519686D02*
D03*
Y492126D02*
D03*
X311024Y519686D02*
D03*
Y492126D02*
D03*
X366142Y519685D02*
D03*
Y492125D02*
D03*
X421260Y519685D02*
D03*
Y492125D02*
D03*
X255906Y318898D02*
D03*
Y346458D02*
D03*
X311024Y318897D02*
D03*
Y346457D02*
D03*
X366142Y318897D02*
D03*
Y346457D02*
D03*
X421260Y318898D02*
D03*
Y346458D02*
D03*
X314961Y27559D02*
D03*
Y55119D02*
D03*
D41*
X346457Y427165D02*
D03*
X409449Y153543D02*
D03*
X364173Y78740D02*
D03*
X320866Y224410D02*
D03*
D42*
X346457Y413386D02*
D03*
X409449Y139764D02*
D03*
D43*
X647638Y369094D02*
D03*
X608268Y400787D02*
D03*
X647638Y479331D02*
D03*
X608268Y511024D02*
D03*
D44*
X748032Y255906D02*
D03*
Y27559D02*
D03*
X409449Y255906D02*
D03*
Y27559D02*
D03*
D45*
X629606Y196850D02*
D03*
Y149606D02*
D03*
Y102362D02*
D03*
D46*
X639606Y196850D02*
D03*
X649606D02*
D03*
X639606Y149606D02*
D03*
X649606D02*
D03*
X639606Y102362D02*
D03*
X649606D02*
D03*
D47*
X124016Y527559D02*
D03*
Y311024D02*
D03*
X145669Y275590D02*
D03*
Y15748D02*
D03*
D48*
X350394Y78740D02*
D03*
X334646Y224410D02*
D03*
D49*
X371220Y29528D02*
D03*
X361221D02*
D03*
X351220D02*
D03*
D50*
X346457Y277716D02*
D03*
Y267717D02*
D03*
Y257716D02*
D03*
Y247716D02*
D03*
D51*
X728346Y413386D02*
D03*
Y397638D02*
D03*
Y381890D02*
D03*
Y366142D02*
D03*
X728346Y346457D02*
D03*
Y330709D02*
D03*
Y314961D02*
D03*
Y299213D02*
D03*
X673228D02*
D03*
X665354D02*
D03*
X708661Y377953D02*
D03*
X692913D02*
D03*
X653543Y293307D02*
D03*
X708661Y326772D02*
D03*
X696850D02*
D03*
X651575Y242126D02*
D03*
X664370Y81693D02*
D03*
X629921Y318150D02*
D03*
X637795Y266968D02*
D03*
X629921D02*
D03*
X598032Y66535D02*
D03*
X605905D02*
D03*
X593386Y154646D02*
D03*
X580984Y214291D02*
D03*
X593386Y107402D02*
D03*
X521654Y255906D02*
D03*
X531496Y263779D02*
D03*
X525591Y240158D02*
D03*
X504232Y207972D02*
D03*
X509350D02*
D03*
X514468D02*
D03*
X499016Y287402D02*
D03*
X501968Y283465D02*
D03*
X638779Y223425D02*
D03*
Y216535D02*
D03*
X637795Y318150D02*
D03*
X506791Y221358D02*
D03*
X529527Y232283D02*
D03*
X518701Y248031D02*
D03*
X607283Y227362D02*
D03*
X607283Y235236D02*
D03*
Y214567D02*
D03*
X651417Y313150D02*
D03*
X633858Y326772D02*
D03*
X670276Y277559D02*
D03*
X692913D02*
D03*
X693898Y252953D02*
D03*
X687992Y258858D02*
D03*
X605905Y61535D02*
D03*
X575591Y48425D02*
D03*
X636732Y80630D02*
D03*
Y127874D02*
D03*
Y175118D02*
D03*
X700787Y62008D02*
D03*
X644685Y59055D02*
D03*
Y51181D02*
D03*
Y45276D02*
D03*
X728346Y357283D02*
D03*
X616378Y236968D02*
D03*
X633858Y237205D02*
D03*
X661417Y322835D02*
D03*
X655512Y303150D02*
D03*
X661417Y271654D02*
D03*
X653543Y253937D02*
D03*
X631890Y251969D02*
D03*
X580984Y119803D02*
D03*
X612205Y242126D02*
D03*
X624016Y273622D02*
D03*
X586614Y208661D02*
D03*
X580984Y167047D02*
D03*
X595472Y201772D02*
D03*
X588583D02*
D03*
X537700Y196063D02*
D03*
X524800Y208600D02*
D03*
X529000Y208700D02*
D03*
X522000Y222500D02*
D03*
X527200Y223100D02*
D03*
X584200Y201100D02*
D03*
Y154100D02*
D03*
X585300Y107000D02*
D03*
X525400Y199900D02*
D03*
X521300Y202000D02*
D03*
X516000Y222100D02*
D03*
X511100Y222400D02*
D03*
D52*
X200787Y143701D02*
D03*
X208661D02*
D03*
X224410D02*
D03*
X216535D02*
D03*
X248031D02*
D03*
X255906D02*
D03*
X240158D02*
D03*
X232283D02*
D03*
X279528D02*
D03*
X287402D02*
D03*
X271654D02*
D03*
X263779D02*
D03*
X295276D02*
D03*
X303150D02*
D03*
Y135827D02*
D03*
X295276D02*
D03*
X263779D02*
D03*
X271654D02*
D03*
X287402D02*
D03*
X279528D02*
D03*
X232283D02*
D03*
X240158D02*
D03*
X255906D02*
D03*
X248031D02*
D03*
X216535D02*
D03*
X224410D02*
D03*
X208661D02*
D03*
X200787D02*
D03*
Y120079D02*
D03*
X208661D02*
D03*
X224410D02*
D03*
X216535D02*
D03*
X248031D02*
D03*
X255906D02*
D03*
X240158D02*
D03*
X232283D02*
D03*
X279528D02*
D03*
X287402D02*
D03*
X271654D02*
D03*
X263779D02*
D03*
X295276D02*
D03*
X303150D02*
D03*
Y127953D02*
D03*
X295276D02*
D03*
X263779D02*
D03*
X271654D02*
D03*
X287402D02*
D03*
X279528D02*
D03*
X232283D02*
D03*
X240158D02*
D03*
X255906D02*
D03*
X248031D02*
D03*
X216535D02*
D03*
X224410D02*
D03*
X208661D02*
D03*
X200787D02*
D03*
Y104331D02*
D03*
X208661D02*
D03*
X224410D02*
D03*
X216535D02*
D03*
X248031D02*
D03*
X255906D02*
D03*
X240158D02*
D03*
X232283D02*
D03*
X279528D02*
D03*
X287402D02*
D03*
X271654D02*
D03*
X263779D02*
D03*
X295276D02*
D03*
X303150D02*
D03*
Y112205D02*
D03*
X295276D02*
D03*
X263779D02*
D03*
X271654D02*
D03*
X287402D02*
D03*
X279528D02*
D03*
X232283D02*
D03*
X240158D02*
D03*
X255906D02*
D03*
X248031D02*
D03*
X216535D02*
D03*
X224410D02*
D03*
X208661D02*
D03*
X200787D02*
D03*
Y88583D02*
D03*
X208661D02*
D03*
X224410D02*
D03*
X216535D02*
D03*
X248031D02*
D03*
X255906D02*
D03*
X240158D02*
D03*
X232283D02*
D03*
X279528D02*
D03*
X287402D02*
D03*
X271654D02*
D03*
X263779D02*
D03*
X295276D02*
D03*
X303150D02*
D03*
Y96457D02*
D03*
X295276D02*
D03*
X263779D02*
D03*
X271654D02*
D03*
X287402D02*
D03*
X279528D02*
D03*
X232283D02*
D03*
X240158D02*
D03*
X255906D02*
D03*
X248031D02*
D03*
X216535D02*
D03*
X224410D02*
D03*
X208661D02*
D03*
X200787D02*
D03*
X716535Y242126D02*
D03*
X303150Y7874D02*
D03*
X313976D02*
D03*
X324803D02*
D03*
X334646D02*
D03*
X610236Y358268D02*
D03*
X590551D02*
D03*
X570866Y366142D02*
D03*
X551181Y389764D02*
D03*
X531496Y409449D02*
D03*
X511811Y425197D02*
D03*
X452756Y448819D02*
D03*
X492126Y445866D02*
D03*
X421260Y448819D02*
D03*
X377461Y463583D02*
D03*
X334646Y185039D02*
D03*
X350394D02*
D03*
X342520D02*
D03*
X145669D02*
D03*
X137795D02*
D03*
X153543D02*
D03*
X456693Y240158D02*
D03*
X484252D02*
D03*
X337598Y452756D02*
D03*
X742600Y242100D02*
D03*
X735600Y242126D02*
D03*
X729100D02*
D03*
X722900Y242200D02*
D03*
M02*
