  0
SECTION
  2
HEADER
  9
$ACADVER
  1
AC1015
  9
$ACADMAINTVER
 70
     6
  9
$DWGCODEPAGE
  3
ANSI_1252
  9
$INSBASE
 10
0.0
 20
0.0
 30
0.0
  9
$EXTMIN
 10
0.0
 20
0.0
 30
0.0
  9
$EXTMAX
 10
420.0
 20
297.0
 30
0.0
  9
$LIMMIN
 10
0.0
 20
0.0
  9
$LIMMAX
 10
420.0
 20
297.0
  9
$ORTHOMODE
 70
     0
  9
$REGENMODE
 70
     1
  9
$FILLMODE
 70
     1
  9
$QTEXTMODE
 70
     0
  9
$MIRRTEXT
 70
     1
  9
$LTSCALE
 40
1.0
  9
$ATTMODE
 70
     1
  9
$TEXTSIZE
 40
3.5
  9
$TRACEWID
 40
1.0
  9
$TEXTSTYLE
  7
Standard
  9
$CLAYER
  8
0
  9
$CELTYPE
  6
ByLayer
  9
$CECOLOR
 62
   256
  9
$CELTSCALE
 40
1.0
  9
$DISPSILH
 70
     0
  9
$DIMSCALE
 40
1.0
  9
$DIMASZ
 40
3.302
  9
$DIMEXO
 40
1.0
  9
$DIMDLI
 40
3.75
  9
$DIMRND
 40
0.0
  9
$DIMDLE
 40
0.0
  9
$DIMEXE
 40
1.0
  9
$DIMTP
 40
0.0
  9
$DIMTM
 40
0.0
  9
$DIMTXT
 40
3.5
  9
$DIMCEN
 40
2.5
  9
$DIMTSZ
 40
0.0
  9
$DIMTOL
 70
     0
  9
$DIMLIM
 70
     0
  9
$DIMTIH
 70
     1
  9
$DIMTOH
 70
     1
  9
$DIMSE1
 70
     0
  9
$DIMSE2
 70
     0
  9
$DIMTAD
 70
     1
  9
$DIMZIN
 70
     1
  9
$DIMBLK
  1

  9
$DIMASO
 70
     1
  9
$DIMSHO
 70
     1
  9
$DIMPOST
  1

  9
$DIMAPOST
  1

  9
$DIMALT
 70
     0
  9
$DIMALTD
 70
     3
  9
$DIMALTF
 40
0.0393700787
  9
$DIMLFAC
 40
1.0
  9
$DIMTOFL
 70
     1
  9
$DIMTVP
 40
0.0
  9
$DIMTIX
 70
     0
  9
$DIMSOXD
 70
     0
  9
$DIMSAH
 70
     0
  9
$DIMBLK1
  1

  9
$DIMBLK2
  1

  9
$DIMSTYLE
  2
ISO-25
  9
$DIMCLRD
 70
     0
  9
$DIMCLRE
 70
     0
  9
$DIMCLRT
 70
     0
  9
$DIMTFAC
 40
1.0
  9
$DIMGAP
 40
1.524
  9
$DIMJUST
 70
     0
  9
$DIMSD1
 70
     0
  9
$DIMSD2
 70
     0
  9
$DIMTOLJ
 70
     0
  9
$DIMTZIN
 70
     1
  9
$DIMALTZ
 70
     0
  9
$DIMALTTZ
 70
     0
  9
$DIMUPT
 70
     0
  9
$DIMDEC
 70
     2
  9
$DIMTDEC
 70
     2
  9
$DIMALTU
 70
     2
  9
$DIMALTTD
 70
     3
  9
$DIMTXSTY
  7
Standard
  9
$DIMAUNIT
 70
     0
  9
$DIMADEC
 70
     2
  9
$DIMALTRND
 40
0.0
  9
$DIMAZIN
 70
     0
  9
$DIMDSEP
 70
    44
  9
$DIMATFIT
 70
     3
  9
$DIMFRAC
 70
     0
  9
$DIMLDRBLK
  1

  9
$DIMLUNIT
 70
     2
  9
$DIMLWD
 70
    -2
  9
$DIMLWE
 70
    -2
  9
$DIMTMOVE
 70
     0
  9
$LUNITS
 70
     2
  9
$LUPREC
 70
     2
  9
$SKETCHINC
 40
1.0
  9
$FILLETRAD
 40
10.0
  9
$AUNITS
 70
     0
  9
$AUPREC
 70
     2
  9
$MENU
  1
.
  9
$ELEVATION
 40
0.0
  9
$PELEVATION
 40
0.0
  9
$THICKNESS
 40
0.0
  9
$LIMCHECK
 70
     0
  9
$CHAMFERA
 40
0.0
  9
$CHAMFERB
 40
0.0
  9
$CHAMFERC
 40
0.0
  9
$CHAMFERD
 40
0.0
  9
$SKPOLY
 70
     0
  9
$TDCREATE
 40
2458870.958005197
  9
$TDUCREATE
 40
2458871.16633853
  9
$TDUPDATE
 40
2458870.958005671
  9
$TDUUPDATE
 40
2458871.166339004
  9
$TDINDWG
 40
0.0000000116
  9
$TDUSRTIMER
 40
0.0000000116
  9
$USRTIMER
 70
     1
  9
$ANGBASE
 50
0.0
  9
$ANGDIR
 70
     0
  9
$PDMODE
 70
     0
  9
$PDSIZE
 40
-1.0
  9
$PLINEWID
 40
0.0
  9
$SPLFRAME
 70
     0
  9
$SPLINETYPE
 70
     6
  9
$SPLINESEGS
 70
     8
  9
$HANDSEED
  5
F5
  9
$SURFTAB1
 70
     6
  9
$SURFTAB2
 70
     6
  9
$SURFTYPE
 70
     6
  9
$SURFU
 70
     6
  9
$SURFV
 70
     6
  9
$UCSBASE
  2

  9
$UCSNAME
  2

  9
$UCSORG
 10
0.0
 20
0.0
 30
0.0
  9
$UCSXDIR
 10
1.0
 20
0.0
 30
0.0
  9
$UCSYDIR
 10
0.0
 20
1.0
 30
0.0
  9
$UCSORTHOREF
  2

  9
$UCSORTHOVIEW
 70
     0
  9
$UCSORGTOP
 10
0.0
 20
0.0
 30
0.0
  9
$UCSORGBOTTOM
 10
0.0
 20
0.0
 30
0.0
  9
$UCSORGLEFT
 10
0.0
 20
0.0
 30
0.0
  9
$UCSORGRIGHT
 10
0.0
 20
0.0
 30
0.0
  9
$UCSORGFRONT
 10
0.0
 20
0.0
 30
0.0
  9
$UCSORGBACK
 10
0.0
 20
0.0
 30
0.0
  9
$PUCSBASE
  2

  9
$PUCSNAME
  2

  9
$PUCSORG
 10
0.0
 20
0.0
 30
0.0
  9
$PUCSXDIR
 10
1.0
 20
0.0
 30
0.0
  9
$PUCSYDIR
 10
0.0
 20
1.0
 30
0.0
  9
$PUCSORTHOREF
  2

  9
$PUCSORTHOVIEW
 70
     0
  9
$PUCSORGTOP
 10
0.0
 20
0.0
 30
0.0
  9
$PUCSORGBOTTOM
 10
0.0
 20
0.0
 30
0.0
  9
$PUCSORGLEFT
 10
0.0
 20
0.0
 30
0.0
  9
$PUCSORGRIGHT
 10
0.0
 20
0.0
 30
0.0
  9
$PUCSORGFRONT
 10
0.0
 20
0.0
 30
0.0
  9
$PUCSORGBACK
 10
0.0
 20
0.0
 30
0.0
  9
$USERI1
 70
     0
  9
$USERI2
 70
     0
  9
$USERI3
 70
     0
  9
$USERI4
 70
     0
  9
$USERI5
 70
     0
  9
$USERR1
 40
0.0
  9
$USERR2
 40
0.0
  9
$USERR3
 40
0.0
  9
$USERR4
 40
0.0
  9
$USERR5
 40
0.0
  9
$WORLDVIEW
 70
     1
  9
$SHADEDGE
 70
     3
  9
$SHADEDIF
 70
    70
  9
$TILEMODE
 70
     1
  9
$MAXACTVP
 70
    64
  9
$PINSBASE
 10
0.0
 20
0.0
 30
0.0
  9
$PLIMCHECK
 70
     0
  9
$PEXTMIN
 10
1.0000000000E+20
 20
1.0000000000E+20
 30
1.0000000000E+20
  9
$PEXTMAX
 10
-1.0000000000E+20
 20
-1.0000000000E+20
 30
-1.0000000000E+20
  9
$PLIMMIN
 10
0.0
 20
0.0
  9
$PLIMMAX
 10
420.0
 20
297.0
  9
$UNITMODE
 70
     0
  9
$VISRETAIN
 70
     1
  9
$PLINEGEN
 70
     0
  9
$PSLTSCALE
 70
     1
  9
$TREEDEPTH
 70
  3020
  9
$CMLSTYLE
  2
Standard
  9
$CMLJUST
 70
     0
  9
$CMLSCALE
 40
20.0
  9
$PROXYGRAPHICS
 70
     1
  9
$MEASUREMENT
 70
     1
  9
$CELWEIGHT
370
    -1
  9
$ENDCAPS
280
     0
  9
$JOINSTYLE
280
     0
  9
$LWDISPLAY
290
     1
  9
$INSUNITS
 70
     4
  9
$HYPERLINKBASE
  1

  9
$STYLESHEET
  1

  9
$XEDIT
290
     1
  9
$CEPSNTYPE
380
     0
  9
$PSTYLEMODE
290
     1
  9
$FINGERPRINTGUID
  2
{EE9BC6D2-0EFB-4442-B3C1-CD78BAC82BEE}
  9
$VERSIONGUID
  2
{FAEB1C32-E019-11D5-929B-00C0DF256EC4}
  9
$EXTNAMES
290
     1
  9
$PSVPSCALE
 40
0.0
  9
$OLESTARTUP
290
     0
  0
ENDSEC
  0
SECTION
  2
CLASSES
  0
CLASS
  1
ACDBDICTIONARYWDFLT
  2
AcDbDictionaryWithDefault
  3
ObjectDBX Classes
 90
        0
280
     0
281
     0
  0
CLASS
  1
VISUALSTYLE
  2
AcDbVisualStyle
  3
ObjectDBX Classes
 90
     4095
280
     0
281
     0
  0
CLASS
  1
MATERIAL
  2
AcDbMaterial
  3
ObjectDBX Classes
 90
     1153
280
     0
281
     0
  0
CLASS
  1
SCALE
  2
AcDbScale
  3
ObjectDBX Classes
 90
     1153
280
     0
281
     0
  0
CLASS
  1
TABLESTYLE
  2
AcDbTableStyle
  3
ObjectDBX Classes
 90
     4095
280
     0
281
     0
  0
CLASS
  1
MLEADERSTYLE
  2
AcDbMLeaderStyle
  3
ACDB_MLEADERSTYLE_CLASS
 90
     4095
280
     0
281
     0
  0
CLASS
  1
SUN
  2
AcDbSun
  3
SCENEOE
 90
     1153
280
     0
281
     0
  0
CLASS
  1
ACDBPLACEHOLDER
  2
AcDbPlaceHolder
  3
ObjectDBX Classes
 90
        0
280
     0
281
     0
  0
CLASS
  1
LAYOUT
  2
AcDbLayout
  3
ObjectDBX Classes
 90
        0
280
     0
281
     0
  0
ENDSEC
  0
SECTION
  2
TABLES
  0
TABLE
  2
VPORT
  5
8
330
0
100
AcDbSymbolTable
 70
     1
  0
VPORT
  5
29
330
8
100
AcDbSymbolTableRecord
100
AcDbViewportTableRecord
  2
*Active
 70
     0
 10
0.0
 20
0.0
 11
1.0
 21
1.0
 12
210.0
 22
148.5
 13
0.0
 23
0.0
 14
10.0
 24
10.0
 15
10.0
 25
10.0
 16
0.0
 26
0.0
 36
1.0
 17
0.0
 27
0.0
 37
0.0
 40
297.0
 41
1.4141414141
 42
50.0
 43
0.0
 44
0.0
 50
0.0
 51
0.0
 71
     0
 72
  2000
 73
     1
 74
     3
 75
     0
 76
     0
 77
     0
 78
     0
281
     0
 65
     1
110
0.0
120
0.0
130
0.0
111
1.0
121
0.0
131
0.0
112
0.0
122
1.0
132
0.0
 79
     0
146
0.0
  0
ENDTAB
  0
TABLE
  2
LTYPE
  5
5
330
0
100
AcDbSymbolTable
 70
     6
  0
LTYPE
  5
14
330
5
100
AcDbSymbolTableRecord
100
AcDbLinetypeTableRecord
  2
ByBlock
 70
     0
  3

 72
    65
 73
     0
 40
0.0
  0
LTYPE
  5
15
330
5
100
AcDbSymbolTableRecord
100
AcDbLinetypeTableRecord
  2
ByLayer
 70
     0
  3

 72
    65
 73
     0
 40
0.0
  0
LTYPE
  5
16
330
5
100
AcDbSymbolTableRecord
100
AcDbLinetypeTableRecord
  2
Continuous
 70
     0
  3
Solid line
 72
    65
 73
     0
 40
0.0
  0
LTYPE
  5
6E
330
5
100
AcDbSymbolTableRecord
100
AcDbLinetypeTableRecord
  2
HIDDEN
 70
     0
  3
Hidden __ __ __ __ __ __ __ __ __ __ __ __ __ __
 72
    65
 73
     2
 40
1.905
 49
1.27
 74
     0
 49
-0.635
 74
     0
  0
LTYPE
  5
6F
330
5
100
AcDbSymbolTableRecord
100
AcDbLinetypeTableRecord
  2
PHANTOM
 70
     0
  3
Phantom ______  __  __  ______  __  __  ______
 72
    65
 73
     6
 40
12.7
 49
6.35
 74
     0
 49
-1.27
 74
     0
 49
1.27
 74
     0
 49
-1.27
 74
     0
 49
1.27
 74
     0
 49
-1.27
 74
     0
  0
LTYPE
  5
70
330
5
100
AcDbSymbolTableRecord
100
AcDbLinetypeTableRecord
  2
CENTER
 70
     0
  3
Center ____ _ ____ _ ____ _ ____ _ ____ _ ____
 72
    65
 73
     4
 40
10.16
 49
6.35
 74
     0
 49
-1.27
 74
     0
 49
1.27
 74
     0
 49
-1.27
 74
     0
  0
LTYPE
  5
71
330
5
100
AcDbSymbolTableRecord
100
AcDbLinetypeTableRecord
  2
CENTERX2
 70
     0
  3
Center (2x) ________  __  ________  __  _____
 72
    65
 73
     4
 40
20.32
 49
12.7
 74
     0
 49
-2.54
 74
     0
 49
2.54
 74
     0
 49
-2.54
 74
     0
  0
LTYPE
  5
72
330
5
100
AcDbSymbolTableRecord
100
AcDbLinetypeTableRecord
  2
DOT2
 70
     0
  3
Dot (.5x) ........................................
 72
    65
 73
     2
 40
0.635
 49
0.0
 74
     0
 49
-0.635
 74
     0
  0
ENDTAB
  0
TABLE
  2
LAYER
  5
2
330
0
100
AcDbSymbolTable
 70
     3
  0
LAYER
  5
10
330
2
100
AcDbSymbolTableRecord
100
AcDbLayerTableRecord
  2
0
 70
     0
 62
     7
  6
Continuous
370
    -3
390
F
  0
LAYER
  5
73
330
2
100
AcDbSymbolTableRecord
100
AcDbLayerTableRecord
  2
SLD-0
 70
     0
 62
   179
  6
Continuous
370
    -3
390
F
  0
LAYER
  5
74
330
2
100
AcDbSymbolTableRecord
100
AcDbLayerTableRecord
  2
FORMAT
 70
     0
 62
   179
  6
Continuous
370
    -3
390
F
  0
ENDTAB
  0
TABLE
  2
STYLE
  5
3
330
0
100
AcDbSymbolTable
 70
     3
  0
STYLE
  5
11
330
3
100
AcDbSymbolTableRecord
100
AcDbTextStyleTableRecord
  2
Standard
 70
     0
 40
0.0
 41
1.0
 50
0.0
 71
     0
 42
3.5
  3
txt
  4

  0
STYLE
  5
DD
330
3
100
AcDbSymbolTableRecord
100
AcDbTextStyleTableRecord
  2
SLDTEXTSTYLE0
 70
     0
 40
0.0
 41
0.75
 50
0.0
 71
     0
 42
3.5
  3
TXT
  4

  0
STYLE
  5
F2
330
3
100
AcDbSymbolTableRecord
100
AcDbTextStyleTableRecord
  2
SLDTEXTSTYLE1
 70
     0
 40
0.0
 41
0.7
 50
0.0
 71
     0
 42
3.5
  3
TXT
  4

  0
ENDTAB
  0
TABLE
  2
VIEW
  5
6
330
0
100
AcDbSymbolTable
 70
     0
  0
ENDTAB
  0
TABLE
  2
UCS
  5
7
330
0
100
AcDbSymbolTable
 70
     0
  0
ENDTAB
  0
TABLE
  2
APPID
  5
9
330
0
100
AcDbSymbolTable
 70
     1
  0
APPID
  5
12
330
9
100
AcDbSymbolTableRecord
100
AcDbRegAppTableRecord
  2
ACAD
 70
     0
  0
ENDTAB
  0
TABLE
  2
DIMSTYLE
  5
A
330
0
100
AcDbSymbolTable
 70
     2
100
AcDbDimStyleTable
  0
DIMSTYLE
105
27
330
A
100
AcDbSymbolTableRecord
100
AcDbDimStyleTableRecord
  2
ISO-25
 70
     0
 41
2.5
 42
0.625
 43
3.75
 44
1.25
 73
     0
 74
     0
 77
     1
 78
     8
140
2.5
141
2.5
143
0.0393700787
147
0.625
171
     3
172
     1
178
     0
271
     2
272
     2
274
     3
278
    44
283
     0
284
     8
340
11
  0
DIMSTYLE
105
DE
102
{ACAD_REACTORS
330
DC
330
E8
102
}
330
A
100
AcDbSymbolTableRecord
100
AcDbDimStyleTableRecord
  2
SLDDIMSTYLE0
 70
     0
 41
3.302
 44
0.0
 45
0.000000001
 73
     0
 74
     0
 77
     1
 78
     4
 79
     1
140
3.5
147
0.875
173
     1
178
     0
271
     2
272
     2
276
     2
284
    12
340
DD
  0
ENDTAB
  0
TABLE
  2
BLOCK_RECORD
  5
1
330
0
100
AcDbSymbolTable
 70
     3
  0
BLOCK_RECORD
  5
1F
330
1
100
AcDbSymbolTableRecord
100
AcDbBlockTableRecord
  2
*Model_Space
340
22
  0
BLOCK_RECORD
  5
1B
330
1
100
AcDbSymbolTableRecord
100
AcDbBlockTableRecord
  2
*Paper_Space
340
1E
  0
BLOCK_RECORD
  5
23
330
1
100
AcDbSymbolTableRecord
100
AcDbBlockTableRecord
  2
*Paper_Space0
340
26
  0
BLOCK_RECORD
  5
DF
330
1
100
AcDbSymbolTableRecord
100
AcDbBlockTableRecord
  2
_D
340
0
  0
BLOCK_RECORD
  5
E9
330
1
100
AcDbSymbolTableRecord
100
AcDbBlockTableRecord
  2
_D_1
340
0
  0
ENDTAB
  0
ENDSEC
  0
SECTION
  2
BLOCKS
  0
BLOCK
  5
20
330
1F
100
AcDbEntity
  8
0
100
AcDbBlockBegin
  2
*Model_Space
 70
     0
 10
0.0
 20
0.0
 30
0.0
  3
*Model_Space
  1

  0
ENDBLK
  5
21
330
1F
100
AcDbEntity
  8
0
100
AcDbBlockEnd
  0
BLOCK
  5
1C
330
1B
100
AcDbEntity
 67
     1
  8
0
100
AcDbBlockBegin
  2
*Paper_Space
 70
     0
 10
0.0
 20
0.0
 30
0.0
  3
*Paper_Space
  1

  0
ENDBLK
  5
1D
330
1B
100
AcDbEntity
 67
     1
  8
0
100
AcDbBlockEnd
  0
BLOCK
  5
24
330
23
100
AcDbEntity
  8
0
100
AcDbBlockBegin
  2
*Paper_Space0
 70
     0
 10
0.0
 20
0.0
 30
0.0
  3
*Paper_Space0
  1

  0
ENDBLK
  5
25
330
23
100
AcDbEntity
  8
0
100
AcDbBlockEnd
  0
BLOCK
  5
E0
330
DF
100
AcDbEntity
  8
0
100
AcDbBlockBegin
  2
_D
 70
     0
 10
0.0
 20
0.0
 30
0.0
  3
_D
  1

  0
SOLID
  5
E2
330
DF
100
AcDbEntity
  8
SLD-0
100
AcDbTrace
 10
0.0473801766
 20
183.1777975452
 30
0.0
 11
3.3493801766
 21
182.6697975452
 31
0.0
 12
3.3493801766
 22
183.6857975452
 32
0.0
 13
3.3493801766
 23
183.6857975452
 33
0.0
  0
SOLID
  5
E3
330
DF
100
AcDbEntity
  8
SLD-0
100
AcDbTrace
 10
152.4473801766
 20
183.1777975452
 30
0.0
 11
149.1453801766
 21
183.6857975452
 31
0.0
 12
149.1453801766
 22
182.6697975452
 32
0.0
 13
149.1453801766
 23
182.6697975452
 33
0.0
  0
LINE
  5
E4
330
DF
100
AcDbEntity
  8
SLD-0
100
AcDbLine
 10
0.0473801766
 20
194.3703032224
 30
0.0
 11
0.0473801766
 21
182.1777975452
 31
0.0
  0
LINE
  5
E5
330
DF
100
AcDbEntity
  8
SLD-0
100
AcDbLine
 10
152.4473801766
 20
194.3703032224
 30
0.0
 11
152.4473801766
 21
182.1777975452
 31
0.0
  0
LINE
  5
E6
330
DF
100
AcDbEntity
  8
SLD-0
100
AcDbLine
 10
0.0473801766
 20
183.1777975452
 30
0.0
 11
152.4473801766
 21
183.1777975452
 31
0.0
  0
MTEXT
  5
E7
330
DF
100
AcDbEntity
  8
SLD-0
100
AcDbMText
 10
78.6817068368
 20
187.6895344598
 30
0.0
 40
3.5
 41
0.0
 71
     1
 72
     1
  1
152.40
  7
SLDTEXTSTYLE0
 73
     1
 44
1.0
  0
ENDBLK
  5
E1
330
DF
100
AcDbEntity
  8
0
100
AcDbBlockEnd
  0
BLOCK
  5
EA
330
E9
100
AcDbEntity
  8
0
100
AcDbBlockBegin
  2
_D_1
 70
     0
 10
0.0
 20
0.0
 30
0.0
  3
_D_1
  1

  0
SOLID
  5
EC
330
E9
100
AcDbEntity
  8
SLD-0
100
AcDbTrace
 10
-26.4070617281
 20
296.9703032224
 30
0.0
 11
-26.9150617281
 21
293.6683032224
 31
0.0
 12
-25.8990617281
 22
293.6683032224
 32
0.0
 13
-25.8990617281
 23
293.6683032224
 33
0.0
  0
SOLID
  5
ED
330
E9
100
AcDbEntity
  8
SLD-0
100
AcDbTrace
 10
-26.4070617281
 20
195.3703032224
 30
0.0
 11
-25.8990617281
 21
198.6723032224
 31
0.0
 12
-26.9150617281
 22
198.6723032224
 32
0.0
 13
-26.9150617281
 23
198.6723032224
 33
0.0
  0
LINE
  5
EE
330
E9
100
AcDbEntity
  8
SLD-0
100
AcDbLine
 10
-0.9526198234
 20
296.9703032224
 30
0.0
 11
-27.4070617281
 21
296.9703032224
 31
0.0
  0
LINE
  5
EF
330
E9
100
AcDbEntity
  8
SLD-0
100
AcDbLine
 10
-0.9526198234
 20
195.3703032224
 30
0.0
 11
-27.4070617281
 21
195.3703032224
 31
0.0
  0
LINE
  5
F0
330
E9
100
AcDbEntity
  8
SLD-0
100
AcDbLine
 10
-26.4070617281
 20
296.9703032224
 30
0.0
 11
-26.4070617281
 21
195.3703032224
 31
0.0
  0
MTEXT
  5
F1
330
E9
100
AcDbEntity
  8
SLD-0
100
AcDbMText
 10
-30.9187986426
 20
237.3466178994
 30
0.0
 40
3.5
 41
0.0
 71
     1
 72
     1
  1
101.60
  7
SLDTEXTSTYLE0
 11
-7.044195017643634E-15
 21
1.0
 31
0.0
 73
     1
 44
1.0
  0
ENDBLK
  5
EB
330
E9
100
AcDbEntity
  8
0
100
AcDbBlockEnd
  0
ENDSEC
  0
SECTION
  2
ENTITIES
  0
LINE
  5
75
330
1F
100
AcDbEntity
  8
SLD-0
100
AcDbLine
 10
0.0473801766
 20
296.9703032224
 30
0.0
 11
152.4473801766
 21
296.9703032224
 31
0.0
  0
LINE
  5
76
330
1F
100
AcDbEntity
  8
SLD-0
100
AcDbLine
 10
0.0473801766
 20
296.9703032224
 30
0.0
 11
0.0473801766
 21
195.3703032224
 31
0.0
  0
LINE
  5
77
330
1F
100
AcDbEntity
  8
SLD-0
100
AcDbLine
 10
0.0473801766
 20
195.3703032224
 30
0.0
 11
152.4473801766
 21
195.3703032224
 31
0.0
  0
LINE
  5
78
330
1F
100
AcDbEntity
  8
SLD-0
100
AcDbLine
 10
152.4473801766
 20
296.9703032224
 30
0.0
 11
152.4473801766
 21
195.3703032224
 31
0.0
  0
LINE
  5
79
330
1F
100
AcDbEntity
  8
SLD-0
100
AcDbLine
 10
120.0896735948
 20
292.1434965691
 30
0.0
 11
123.9355038476
 21
295.4395493941
 31
0.0
  0
LINE
  5
7A
330
1F
100
AcDbEntity
  8
SLD-0
100
AcDbLine
 10
147.2723982016
 20
294.2961450458
 30
0.0
 11
152.3523982021
 21
294.2961450458
 31
0.0
  0
LINE
  5
7B
330
1F
100
AcDbEntity
  8
SLD-0
100
AcDbLine
 10
120.4228902405
 20
233.7300488455
 30
0.0
 11
116.8307866805
 21
237.3221524055
 31
0.0
  0
LINE
  5
7C
330
1F
100
AcDbEntity
  8
SLD-0
100
AcDbLine
 10
130.4327541832
 20
213.124616931
 30
0.0
 11
139.3227541832
 21
213.124616931
 31
0.0
  0
LINE
  5
7D
330
1F
100
AcDbEntity
  8
SLD-0
  6
Continuous
 62
   179
370
    25
100
AcDbLine
 10
131.81868891
 20
245.1258475151
 30
0.0
 11
120.4228902405
 21
233.7300488455
 31
0.0
  0
LINE
  5
7E
330
1F
100
AcDbEntity
  8
SLD-0
  6
Continuous
 62
   179
370
    25
100
AcDbLine
 10
116.8307866805
 20
237.3221524055
 30
0.0
 11
129.5058388004
 21
249.9972045255
 31
0.0
  0
LINE
  5
7F
330
1F
100
AcDbEntity
  8
SLD-0
  6
Continuous
 62
   179
370
    25
100
AcDbLine
 10
138.3958388004
 20
263.5261005056
 30
0.0
 11
138.3958388004
 21
249.0260990256
 31
0.0
  0
LINE
  5
80
330
1F
100
AcDbEntity
  8
SLD-0
  6
Continuous
 62
   179
370
    25
100
AcDbLine
 10
129.5058388004
 20
249.9972045255
 30
0.0
 11
129.5058388004
 21
263.5261005056
 31
0.0
  0
LINE
  5
81
330
1F
100
AcDbEntity
  8
SLD-0
  6
Continuous
 62
   179
370
    25
100
AcDbLine
 10
139.3227541832
 20
237.874615691
 30
0.0
 11
139.3227541832
 21
223.374614211
 31
0.0
  0
LINE
  5
82
330
1F
100
AcDbEntity
  8
SLD-0
  6
Continuous
 62
   179
370
    25
100
AcDbLine
 10
130.4327541832
 20
223.374614211
 30
0.0
 11
130.4327541832
 21
237.874615691
 31
0.0
  0
LINE
  5
83
330
1F
100
AcDbEntity
  8
SLD-0
  6
Continuous
 62
   179
370
    25
100
AcDbLine
 10
139.3227541832
 20
223.374614211
 30
0.0
 11
139.3227541832
 21
213.124616931
 31
0.0
  0
LINE
  5
84
330
1F
100
AcDbEntity
  8
SLD-0
  6
Continuous
 62
   179
370
    25
100
AcDbLine
 10
130.4327541832
 20
213.124616931
 30
0.0
 11
130.4327541832
 21
223.374614211
 31
0.0
  0
LINE
  5
85
330
1F
100
AcDbEntity
  8
SLD-0
  6
Continuous
 62
   179
370
    25
100
AcDbLine
 10
123.9355038476
 20
295.4395493941
 30
0.0
 11
144.4352659976
 21
274.9397872441
 31
0.0
  0
LINE
  5
86
330
1F
100
AcDbEntity
  8
SLD-0
  6
Continuous
 62
   179
370
    25
100
AcDbLine
 10
140.0992148526
 20
272.0916338091
 30
0.0
 11
120.3434015576
 21
291.8474471041
 31
0.0
  0
LINE
  5
87
330
1F
100
AcDbEntity
  8
SLD-0
  6
Continuous
 62
   179
370
    25
100
AcDbLine
 10
142.639453517
 20
201.6034981395
 30
0.0
 11
105.639695157
 21
201.6034981395
 31
0.0
  0
LINE
  5
88
330
1F
100
AcDbEntity
  8
SLD-0
  6
Continuous
 62
   179
370
    25
100
AcDbLine
 10
108.179695157
 20
206.6834981791
 30
0.0
 11
140.0994536126
 21
206.6834981791
 31
0.0
  0
LINE
  5
89
330
1F
100
AcDbEntity
  8
SLD-0
  6
Continuous
 62
   179
370
    25
100
AcDbLine
 10
145.179214757
 20
273.1437360595
 30
0.0
 11
145.179214757
 21
246.1434979595
 31
0.0
  0
LINE
  5
8A
330
1F
100
AcDbEntity
  8
SLD-0
  6
Continuous
 62
   179
370
    25
100
AcDbLine
 10
100.3879249218
 20
263.2963269359
 30
0.0
 11
100.3882417712
 21
263.2963269359
 31
0.0
  0
LINE
  5
8B
330
1F
100
AcDbEntity
  8
SLD-0
  6
Continuous
 62
   179
370
    25
100
AcDbLine
 10
140.0992148526
 20
246.1434979991
 30
0.0
 11
140.0992148526
 21
272.0916338091
 31
0.0
  0
LINE
  5
8C
330
1F
100
AcDbEntity
  8
SLD-0
  6
Continuous
 62
   179
370
    25
100
AcDbLine
 10
145.179214757
 20
246.1434979595
 30
0.0
 11
145.179214757
 21
232.1434980195
 31
0.0
  0
LINE
  5
8D
330
1F
100
AcDbEntity
  8
SLD-0
  6
Continuous
 62
   179
370
    25
100
AcDbLine
 10
140.0992148526
 20
232.1434980591
 30
0.0
 11
140.0992148526
 21
246.1434979991
 31
0.0
  0
LINE
  5
8E
330
1F
100
AcDbEntity
  8
SLD-0
  6
Continuous
 62
   179
370
    25
100
AcDbLine
 10
108.179453857
 20
246.1432566595
 30
0.0
 11
108.179453857
 21
232.1434980195
 31
0.0
  0
LINE
  5
8F
330
1F
100
AcDbEntity
  8
SLD-0
  6
Continuous
 62
   179
370
    25
100
AcDbLine
 10
103.099453857
 20
232.1434980195
 30
0.0
 11
103.099453857
 21
246.1432566595
 31
0.0
  0
LINE
  5
90
330
1F
100
AcDbEntity
  8
SLD-0
  6
Continuous
 62
   179
370
    25
100
AcDbLine
 10
145.179214757
 20
232.1434980195
 30
0.0
 11
145.179214757
 21
218.1437368395
 31
0.0
  0
LINE
  5
91
330
1F
100
AcDbEntity
  8
SLD-0
  6
Continuous
 62
   179
370
    25
100
AcDbLine
 10
140.0992148526
 20
218.1437368791
 30
0.0
 11
140.0992148526
 21
232.1434980591
 31
0.0
  0
LINE
  5
92
330
1F
100
AcDbEntity
  8
SLD-0
  6
Continuous
 62
   179
370
    25
100
AcDbLine
 10
145.179453517
 20
218.1434980795
 30
0.0
 11
145.179453517
 21
204.1434981395
 31
0.0
  0
LINE
  5
93
330
1F
100
AcDbEntity
  8
SLD-0
  6
Continuous
 62
   179
370
    25
100
AcDbLine
 10
140.0994536126
 20
206.6834981791
 30
0.0
 11
140.0994536126
 21
218.1434981191
 31
0.0
  0
LINE
  5
94
330
1F
100
AcDbEntity
  8
SLD-0
  6
Continuous
 62
   179
370
    25
100
AcDbLine
 10
108.179695157
 20
218.1432567795
 30
0.0
 11
108.179695157
 21
206.6834981791
 31
0.0
  0
LINE
  5
95
330
1F
100
AcDbEntity
  8
SLD-0
  6
Continuous
 62
   179
370
    25
100
AcDbLine
 10
103.099695157
 20
204.1434981395
 30
0.0
 11
103.099695157
 21
218.1432567795
 31
0.0
  0
LINE
  5
96
330
1F
100
AcDbEntity
  8
SLD-0
  6
Continuous
 62
   179
370
    25
100
AcDbLine
 10
108.179453857
 20
232.1434980195
 30
0.0
 11
108.179453857
 21
218.1434980795
 31
0.0
  0
LINE
  5
97
330
1F
100
AcDbEntity
  8
SLD-0
  6
Continuous
 62
   179
370
    25
100
AcDbLine
 10
103.099453857
 20
218.1434980795
 30
0.0
 11
103.099453857
 21
232.1434980195
 31
0.0
  0
LINE
  5
98
330
1F
100
AcDbEntity
  8
SLD-0
  6
Continuous
 62
   179
370
    25
100
AcDbLine
 10
149.8126369621
 20
195.4563833748
 30
0.0
 11
98.8126373624
 21
195.4563833748
 31
0.0
  0
LINE
  5
99
330
1F
100
AcDbEntity
  8
SLD-0
  6
Continuous
 62
   179
370
    25
100
AcDbLine
 10
101.3523986024
 20
200.5363828202
 30
0.0
 11
147.2726379989
 21
200.5363833658
 31
0.0
  0
LINE
  5
9A
330
1F
100
AcDbEntity
  8
SLD-0
  6
Continuous
 62
   179
370
    25
100
AcDbLine
 10
152.3523982021
 20
294.2961450458
 30
0.0
 11
152.3523982021
 21
248.9961442148
 31
0.0
  0
LINE
  5
9B
330
1F
100
AcDbEntity
  8
SLD-0
  6
Continuous
 62
   179
370
    25
100
AcDbLine
 10
146.2555410562
 20
297.8796799743
 30
0.0
 11
146.2555410562
 21
297.8793631249
 31
0.0
  0
LINE
  5
9C
330
1F
100
AcDbEntity
  8
SLD-0
  6
Continuous
 62
   179
370
    25
100
AcDbLine
 10
147.2723987399
 20
248.9961442058
 30
0.0
 11
147.2723982016
 21
294.2961450458
 31
0.0
  0
LINE
  5
9D
330
1F
100
AcDbEntity
  8
SLD-0
  6
Continuous
 62
   179
370
    25
100
AcDbLine
 10
144.5143870231
 20
296.1380395806
 30
0.0
 11
144.5138998838
 21
296.1380395806
 31
0.0
  0
LINE
  5
9E
330
1F
100
AcDbEntity
  8
SLD-0
  6
Continuous
 62
   179
370
    25
100
AcDbLine
 10
147.2723990725
 20
220.9963830858
 30
0.0
 11
147.2723989062
 21
234.9961442658
 31
0.0
  0
LINE
  5
9F
330
1F
100
AcDbEntity
  8
SLD-0
  6
Continuous
 62
   179
370
    25
100
AcDbLine
 10
152.3523982021
 20
234.9961442748
 30
0.0
 11
152.3523982021
 21
220.9963830948
 31
0.0
  0
LINE
  5
A0
330
1F
100
AcDbEntity
  8
SLD-0
  6
Continuous
 62
   179
370
    25
100
AcDbLine
 10
152.3523982021
 20
248.9961442148
 30
0.0
 11
152.3523982021
 21
234.9961442748
 31
0.0
  0
LINE
  5
A1
330
1F
100
AcDbEntity
  8
SLD-0
  6
Continuous
 62
   179
370
    25
100
AcDbLine
 10
147.2723989062
 20
234.9961442658
 30
0.0
 11
147.2723987399
 21
248.9961442058
 31
0.0
  0
LINE
  5
A2
330
1F
100
AcDbEntity
  8
SLD-0
  6
Continuous
 62
   179
370
    25
100
AcDbLine
 10
101.3521573023
 20
248.9959029148
 30
0.0
 11
101.3521573023
 21
234.9961442748
 31
0.0
  0
LINE
  5
A3
330
1F
100
AcDbEntity
  8
SLD-0
  6
Continuous
 62
   179
370
    25
100
AcDbLine
 10
96.2721573024
 20
234.9961442748
 30
0.0
 11
96.2721573024
 21
248.9959029148
 31
0.0
  0
LINE
  5
A4
330
1F
100
AcDbEntity
  8
SLD-0
  6
Continuous
 62
   179
370
    25
100
AcDbLine
 10
147.2726379989
 20
206.9961443858
 30
0.0
 11
147.2726378325
 21
220.9961443258
 31
0.0
  0
LINE
  5
A5
330
1F
100
AcDbEntity
  8
SLD-0
  6
Continuous
 62
   179
370
    25
100
AcDbLine
 10
152.3526369621
 20
220.9961443348
 30
0.0
 11
152.3526369621
 21
206.9961443948
 31
0.0
  0
LINE
  5
A6
330
1F
100
AcDbEntity
  8
SLD-0
  6
Continuous
 62
   179
370
    25
100
AcDbLine
 10
147.2726379989
 20
200.5363833658
 30
0.0
 11
147.2726379989
 21
206.9961443858
 31
0.0
  0
LINE
  5
A7
330
1F
100
AcDbEntity
  8
SLD-0
  6
Continuous
 62
   179
370
    25
100
AcDbLine
 10
152.3526369621
 20
206.9961443948
 30
0.0
 11
152.3526369621
 21
197.9963833748
 31
0.0
  0
LINE
  5
A8
330
1F
100
AcDbEntity
  8
SLD-0
  6
Continuous
 62
   179
370
    25
100
AcDbLine
 10
101.3521573023
 20
234.9961442748
 30
0.0
 11
101.3521573023
 21
220.9961443348
 31
0.0
  0
LINE
  5
A9
330
1F
100
AcDbEntity
  8
SLD-0
  6
Continuous
 62
   179
370
    25
100
AcDbLine
 10
96.2721573024
 20
220.9961443348
 30
0.0
 11
96.2721573024
 21
234.9961442748
 31
0.0
  0
LINE
  5
AA
330
1F
100
AcDbEntity
  8
SLD-0
  6
Continuous
 62
   179
370
    25
100
AcDbLine
 10
101.3523986024
 20
220.9959030348
 30
0.0
 11
101.3523986024
 21
206.9961443948
 31
0.0
  0
LINE
  5
AB
330
1F
100
AcDbEntity
  8
SLD-0
  6
Continuous
 62
   179
370
    25
100
AcDbLine
 10
96.2723986024
 20
206.9961443948
 30
0.0
 11
96.2723986024
 21
220.9959030348
 31
0.0
  0
LINE
  5
AC
330
1F
100
AcDbEntity
  8
SLD-0
  6
Continuous
 62
   179
370
    25
100
AcDbLine
 10
96.2723986024
 20
197.9966221348
 30
0.0
 11
96.2723986024
 21
206.9961443948
 31
0.0
  0
LINE
  5
AD
330
1F
100
AcDbEntity
  8
SLD-0
  6
Continuous
 62
   179
370
    25
100
AcDbLine
 10
101.3523986024
 20
206.9961443948
 30
0.0
 11
101.3523986024
 21
200.5363828202
 31
0.0
  0
ARC
  5
AE
330
1F
100
AcDbEntity
  8
SLD-0
  6
Continuous
 62
   179
370
    25
100
AcDbCircle
 10
133.9508388004
 20
249.0260990256
 30
0.0
 40
3.099993799989868
100
AcDbArc
 50
124.9931071632
 51
248.7848249092
  0
CIRCLE
  5
AF
330
1F
100
AcDbEntity
  8
SLD-0
  6
Continuous
 62
   179
370
    25
100
AcDbCircle
 10
133.9508388004
 20
263.5261005056
 30
0.0
 40
3.099993799940655
  0
CIRCLE
  5
B0
330
1F
100
AcDbEntity
  8
SLD-0
  6
Continuous
 62
   179
370
    25
100
AcDbCircle
 10
133.9508388004
 20
249.0260990256
 30
0.0
 40
3.099993799940916
  0
ARC
  5
B1
330
1F
100
AcDbEntity
  8
SLD-0
  6
Continuous
 62
   179
370
    25
100
AcDbCircle
 10
133.9508388004
 20
263.5261005056
 30
0.0
 40
4.444999999999965
100
AcDbArc
 50
0.0
 51
180.0
  0
ARC
  5
B2
330
1F
100
AcDbEntity
  8
SLD-0
  6
Continuous
 62
   179
370
    25
100
AcDbCircle
 10
133.9508388004
 20
249.0260990256
 30
0.0
 40
4.444999999999857
100
AcDbArc
 50
241.3359026655
 51
0.0
  0
CIRCLE
  5
B3
330
1F
100
AcDbEntity
  8
SLD-0
  6
Continuous
 62
   179
370
    25
100
AcDbCircle
 10
134.8777541832
 20
237.874615691
 30
0.0
 40
3.09999380003787
  0
CIRCLE
  5
B4
330
1F
100
AcDbEntity
  8
SLD-0
  6
Continuous
 62
   179
370
    25
100
AcDbCircle
 10
134.8777541832
 20
223.374614211
 30
0.0
 40
3.099993800000119
  0
ARC
  5
B5
330
1F
100
AcDbEntity
  8
SLD-0
  6
Continuous
 62
   179
370
    25
100
AcDbCircle
 10
134.8777541832
 20
237.874615691
 30
0.0
 40
4.445000000015909
100
AcDbArc
 50
0.0
 51
180.0
  0
ARC
  5
B6
330
1F
100
AcDbEntity
  8
SLD-0
100
AcDbCircle
 10
122.1394527026
 20
293.6434982491
 30
0.0
 40
2.539999887988117
100
AcDbArc
 50
216.1961802543
 51
225.0
  0
ARC
  5
B7
330
1F
100
AcDbEntity
  8
SLD-0
  6
Continuous
 62
   179
370
    25
100
AcDbCircle
 10
142.639214813
 20
273.1437360595
 30
0.0
 40
2.53999994398751
100
AcDbArc
 50
0.0
 51
45.0
  0
ARC
  5
B8
330
1F
100
AcDbEntity
  8
SLD-0
  6
Continuous
 62
   179
370
    25
100
AcDbCircle
 10
122.1394527026
 20
293.6434982491
 30
0.0
 40
2.539999887988117
100
AcDbArc
 50
216.1961802543
 51
225.0
  0
CIRCLE
  5
B9
330
1F
100
AcDbEntity
  8
SLD-0
  6
Continuous
 62
   179
370
    25
100
AcDbCircle
 10
105.639695157
 20
204.1434981395
 30
0.0
 40
2.249995499999889
  0
CIRCLE
  5
BA
330
1F
100
AcDbEntity
  8
SLD-0
  6
Continuous
 62
   179
370
    25
100
AcDbCircle
 10
142.639453517
 20
204.1434981395
 30
0.0
 40
2.249995500000046
  0
ARC
  5
BB
330
1F
100
AcDbEntity
  8
SLD-0
  6
Continuous
 62
   179
370
    25
100
AcDbCircle
 10
142.639453517
 20
204.1434981395
 30
0.0
 40
2.539999999999935
100
AcDbArc
 50
270.0
 51
0.0
  0
ARC
  5
BC
330
1F
100
AcDbEntity
  8
SLD-0
  6
Continuous
 62
   179
370
    25
100
AcDbCircle
 10
105.639695157
 20
204.1434981395
 30
0.0
 40
2.540000000000006
100
AcDbArc
 50
180.0
 51
270.0
  0
CIRCLE
  5
BD
330
1F
100
AcDbEntity
  8
SLD-0
  6
Continuous
 62
   179
370
    25
100
AcDbCircle
 10
142.639214757
 20
246.1434979595
 30
0.0
 40
2.249995500000055
  0
ARC
  5
BE
330
1F
100
AcDbEntity
  8
SLD-0
  6
Continuous
 62
   179
370
    25
100
AcDbCircle
 10
142.639214813
 20
273.1437360595
 30
0.0
 40
2.53999994398751
100
AcDbArc
 50
0.0
 51
45.0
  0
CIRCLE
  5
BF
330
1F
100
AcDbEntity
  8
SLD-0
  6
Continuous
 62
   179
370
    25
100
AcDbCircle
 10
142.639214757
 20
232.1434980195
 30
0.0
 40
2.249995500000136
  0
CIRCLE
  5
C0
330
1F
100
AcDbEntity
  8
SLD-0
  6
Continuous
 62
   179
370
    25
100
AcDbCircle
 10
105.639695157
 20
246.1434979595
 30
0.0
 40
2.249995500000163
  0
CIRCLE
  5
C1
330
1F
100
AcDbEntity
  8
SLD-0
  6
Continuous
 62
   179
370
    25
100
AcDbCircle
 10
105.639453857
 20
232.1434980195
 30
0.0
 40
2.249995500000096
  0
ARC
  5
C2
330
1F
100
AcDbEntity
  8
SLD-0
  6
Continuous
 62
   179
370
    25
100
AcDbCircle
 10
105.639453857
 20
246.1432566595
 30
0.0
 40
2.539999999999765
100
AcDbArc
 50
0.0
 51
180.0
  0
CIRCLE
  5
C3
330
1F
100
AcDbEntity
  8
SLD-0
  6
Continuous
 62
   179
370
    25
100
AcDbCircle
 10
142.639453517
 20
218.1434980795
 30
0.0
 40
2.249995500000074
  0
ARC
  5
C4
330
1F
100
AcDbEntity
  8
SLD-0
  6
Continuous
 62
   179
370
    25
100
AcDbCircle
 10
142.6392148526
 20
218.1437368791
 30
0.0
 40
2.539999999999992
100
AcDbArc
 50
180.0
 51
180.7856063028
  0
ARC
  5
C5
330
1F
100
AcDbEntity
  8
SLD-0
  6
Continuous
 62
   179
370
    25
100
AcDbCircle
 10
142.639453517
 20
218.1434980795
 30
0.0
 40
2.540000000000134
100
AcDbArc
 50
0.0
 51
0.7856063028
  0
ARC
  5
C6
330
1F
100
AcDbEntity
  8
SLD-0
  6
Continuous
 62
   179
370
    25
100
AcDbCircle
 10
142.639453517
 20
204.1434981395
 30
0.0
 40
2.539999999999935
100
AcDbArc
 50
270.0
 51
0.0
  0
CIRCLE
  5
C7
330
1F
100
AcDbEntity
  8
SLD-0
  6
Continuous
 62
   179
370
    25
100
AcDbCircle
 10
105.639453857
 20
218.1434980795
 30
0.0
 40
2.249995499999861
  0
ARC
  5
C8
330
1F
100
AcDbEntity
  8
SLD-0
  6
Continuous
 62
   179
370
    25
100
AcDbCircle
 10
105.639695157
 20
218.1432567795
 30
0.0
 40
2.539999999999964
100
AcDbArc
 50
0.0
 51
0.7897740706
  0
ARC
  5
C9
330
1F
100
AcDbEntity
  8
SLD-0
  6
Continuous
 62
   179
370
    25
100
AcDbCircle
 10
105.639695157
 20
204.1434981395
 30
0.0
 40
2.540000000000006
100
AcDbArc
 50
180.0
 51
270.0
  0
ARC
  5
CA
330
1F
100
AcDbEntity
  8
SLD-0
  6
Continuous
 62
   179
370
    25
100
AcDbCircle
 10
105.639453857
 20
218.1434980795
 30
0.0
 40
2.539999999999992
100
AcDbArc
 50
180.0
 51
180.7897740705
  0
ARC
  5
CB
330
1F
100
AcDbEntity
  8
SLD-0
  6
Continuous
 62
   179
370
    25
100
AcDbCircle
 10
98.8126373624
 20
197.9963833748
 30
0.0
 40
2.540000000000097
100
AcDbArc
 50
224.9961916636
 51
270.0
  0
ARC
  5
CC
330
1F
100
AcDbEntity
  8
SLD-0
  6
Continuous
 62
   179
370
    25
100
AcDbCircle
 10
149.8126369621
 20
197.9963833748
 30
0.0
 40
2.540000000000106
100
AcDbArc
 50
270.0
 51
0.0
  0
CIRCLE
  5
CD
330
1F
100
AcDbEntity
  8
SLD-0
  6
Continuous
 62
   179
370
    25
100
AcDbCircle
 10
149.8123982017
 20
248.9961443267
 30
0.0
 40
2.249995499999957
  0
CIRCLE
  5
CE
330
1F
100
AcDbEntity
  8
SLD-0
  6
Continuous
 62
   179
370
    25
100
AcDbCircle
 10
149.8123982017
 20
234.9961443867
 30
0.0
 40
2.249995500000046
  0
CIRCLE
  5
CF
330
1F
100
AcDbEntity
  8
SLD-0
  6
Continuous
 62
   179
370
    25
100
AcDbCircle
 10
149.8126369621
 20
220.9961443348
 30
0.0
 40
2.249995492535568
  0
ARC
  5
D0
330
1F
100
AcDbEntity
  8
SLD-0
  6
Continuous
 62
   179
370
    25
100
AcDbCircle
 10
149.8123990725
 20
220.996383116
 30
0.0
 40
2.540000000000051
100
AcDbArc
 50
180.0000006808
 51
180.7856069835
  0
ARC
  5
D1
330
1F
100
AcDbEntity
  8
SLD-0
  6
Continuous
 62
   179
370
    25
100
AcDbCircle
 10
98.8121573023
 20
248.9959029148
 30
0.0
 40
2.540000000000063
100
AcDbArc
 50
360.0
 51
180.0
  0
CIRCLE
  5
D2
330
1F
100
AcDbEntity
  8
SLD-0
  6
Continuous
 62
   179
370
    25
100
AcDbCircle
 10
98.8123986017
 20
248.9961443267
 30
0.0
 40
2.249995499999965
  0
CIRCLE
  5
D3
330
1F
100
AcDbEntity
  8
SLD-0
  6
Continuous
 62
   179
370
    25
100
AcDbCircle
 10
98.8121573017
 20
234.9961443867
 30
0.0
 40
2.24999550000015
  0
ARC
  5
D4
330
1F
100
AcDbEntity
  8
SLD-0
  6
Continuous
 62
   179
370
    25
100
AcDbCircle
 10
149.8126369621
 20
220.9961443348
 30
0.0
 40
2.540000000000049
100
AcDbArc
 50
0.0
 51
0.7856063029
  0
CIRCLE
  5
D5
330
1F
100
AcDbEntity
  8
SLD-0
  6
Continuous
 62
   179
370
    25
100
AcDbCircle
 10
149.8126369617
 20
206.9961445067
 30
0.0
 40
2.249995499999921
  0
ARC
  5
D6
330
1F
100
AcDbEntity
  8
SLD-0
  6
Continuous
 62
   179
370
    25
100
AcDbCircle
 10
149.8126369621
 20
197.9963833748
 30
0.0
 40
2.540000000000106
100
AcDbArc
 50
270.0
 51
0.0
  0
ARC
  5
D7
330
1F
100
AcDbEntity
  8
SLD-0
  6
Continuous
 62
   179
370
    25
100
AcDbCircle
 10
98.8121573023
 20
220.9961443348
 30
0.0
 40
2.539999999999907
100
AcDbArc
 50
180.0
 51
180.7897740706
  0
CIRCLE
  5
D8
330
1F
100
AcDbEntity
  8
SLD-0
  6
Continuous
 62
   179
370
    25
100
AcDbCircle
 10
98.8121573023
 20
220.9961443348
 30
0.0
 40
2.249995492603033
  0
ARC
  5
D9
330
1F
100
AcDbEntity
  8
SLD-0
  6
Continuous
 62
   179
370
    25
100
AcDbCircle
 10
98.8123986024
 20
220.9959030348
 30
0.0
 40
2.539999999999864
100
AcDbArc
 50
0.0
 51
0.7897740706
  0
CIRCLE
  5
DA
330
1F
100
AcDbEntity
  8
SLD-0
  6
Continuous
 62
   179
370
    25
100
AcDbCircle
 10
98.8123986017
 20
206.9961445067
 30
0.0
 40
2.249995499999998
  0
ARC
  5
DB
330
1F
100
AcDbEntity
  8
SLD-0
  6
Continuous
 62
   179
370
    25
100
AcDbCircle
 10
98.8123986024
 20
197.9966221348
 30
0.0
 40
2.539999999999896
100
AcDbArc
 50
180.0
 51
225.0038083397
  0
DIMENSION
  5
DC
330
1F
100
AcDbEntity
  8
SLD-0
100
AcDbDimension
  2
_D
 10
152.4473801766
 20
183.1777975452
 30
0.0
 11
85.7935127936
 21
183.1777975452
 31
0.0
 70
   160
  1
<>
 71
     2
 42
-1.0
  3
SLDDIMSTYLE0
100
AcDbAlignedDimension
 13
0.0473801766
 23
195.3703032224
 33
0.0
 14
152.4473801766
 24
195.3703032224
 34
0.0
100
AcDbRotatedDimension
  0
DIMENSION
  5
E8
330
1F
100
AcDbEntity
  8
SLD-0
100
AcDbDimension
  2
_D_1
 10
-26.4070617281
 20
195.3703032224
 30
0.0
 11
-26.4070617281
 21
244.4584238562
 31
0.0
 70
   160
  1
<>
 71
     2
 42
-1.0
  3
SLDDIMSTYLE0
100
AcDbAlignedDimension
 13
0.0473801766
 23
296.9703032224
 33
0.0
 14
0.0473801766
 24
195.3703032224
 34
0.0
 50
90.0
100
AcDbRotatedDimension
  0
MTEXT
  5
F3
330
1F
100
AcDbEntity
  8
0
  6
Continuous
 62
     7
100
AcDbMText
 10
0.0
 20
14.3305089537
 30
0.0
 40
5.1381
 41
0.0
 71
     1
 72
     1
  1
SOLIDWORKS Educational Product.
  7
SLDTEXTSTYLE1
 73
     1
 44
1.0
  0
MTEXT
  5
F4
330
1F
100
AcDbEntity
  8
0
  6
Continuous
 62
     7
100
AcDbMText
 10
0.0
 20
6.6233589537
 30
0.0
 40
5.1381
 41
0.0
 71
     1
 72
     1
  1
For Instructional Use Only.
  7
SLDTEXTSTYLE1
 73
     1
 44
1.0
  0
ENDSEC
  0
SECTION
  2
OBJECTS
  0
DICTIONARY
  5
C
330
0
100
AcDbDictionary
281
     1
  3
ACAD_GROUP
350
D
  3
ACAD_LAYOUT
350
1A
  3
ACAD_MLINESTYLE
350
17
  3
ACAD_PLOTSETTINGS
350
19
  3
ACAD_PLOTSTYLENAME
350
E
  3
ACAD_SCALELIST
350
47
  0
DICTIONARY
  5
D
102
{ACAD_REACTORS
330
C
102
}
330
C
100
AcDbDictionary
281
     1
  0
DICTIONARY
  5
1A
102
{ACAD_REACTORS
330
C
102
}
330
C
100
AcDbDictionary
281
     1
  3
Layout1
350
1E
  3
Layout2
350
26
  3
Model
350
22
  0
DICTIONARY
  5
17
102
{ACAD_REACTORS
330
C
102
}
330
C
100
AcDbDictionary
281
     1
  3
Standard
350
18
  0
DICTIONARY
  5
19
102
{ACAD_REACTORS
330
C
102
}
330
C
100
AcDbDictionary
281
     1
  0
ACDBDICTIONARYWDFLT
  5
E
102
{ACAD_REACTORS
330
C
102
}
330
C
100
AcDbDictionary
281
     1
  3
Normal
350
F
100
AcDbDictionaryWithDefault
340
F
  0
DICTIONARY
  5
47
102
{ACAD_REACTORS
330
C
102
}
330
C
100
AcDbDictionary
281
     1
  3
A0
350
48
  3
A1
350
49
  3
A2
350
4A
  3
A3
350
4B
  3
A4
350
4C
  3
A5
350
4D
  3
A6
350
4E
  3
A7
350
4F
  3
A8
350
50
  3
A9
350
51
  3
B0
350
52
  3
B1
350
53
  3
B2
350
54
  3
B3
350
55
  3
B4
350
56
  3
B5
350
57
  3
B6
350
58
  3
B7
350
59
  3
B8
350
5A
  3
B9
350
5B
  3
C0
350
5C
  3
C1
350
5D
  3
C2
350
5E
  3
C3
350
5F
  3
C4
350
60
  3
C5
350
61
  3
C6
350
62
  3
C7
350
63
  3
C8
350
64
  3
C9
350
65
  3
D0
350
66
  3
D1
350
67
  3
D2
350
68
  0
LAYOUT
  5
1E
102
{ACAD_REACTORS
330
1A
102
}
330
1A
100
AcDbPlotSettings
  1

  2
none_device
  4

  6

 40
0.0
 41
0.0
 42
0.0
 43
0.0
 44
0.0
 45
0.0
 46
0.0
 47
0.0
 48
0.0
 49
0.0
140
0.0
141
0.0
142
1.0
143
1.0
 70
   688
 72
     1
 73
     0
 74
     5
  7

 75
    16
147
1.0
148
0.0
149
0.0
100
AcDbLayout
  1
Layout1
 70
     1
 71
     1
 10
0.0
 20
0.0
 11
420.0
 21
297.0
 12
0.0
 22
0.0
 32
0.0
 14
1.0000000000E+20
 24
1.0000000000E+20
 34
1.0000000000E+20
 15
-1.0000000000E+20
 25
-1.0000000000E+20
 35
-1.0000000000E+20
146
0.0
 13
0.0
 23
0.0
 33
0.0
 16
1.0
 26
0.0
 36
0.0
 17
0.0
 27
1.0
 37
0.0
 76
     0
330
1B
  0
LAYOUT
  5
26
102
{ACAD_REACTORS
330
1A
102
}
330
1A
100
AcDbPlotSettings
  1

  2
none_device
  4

  6

 40
0.0
 41
0.0
 42
0.0
 43
0.0
 44
0.0
 45
0.0
 46
0.0
 47
0.0
 48
0.0
 49
0.0
140
0.0
141
0.0
142
1.0
143
1.0
 70
   688
 72
     1
 73
     0
 74
     5
  7

 75
    16
147
1.0
148
0.0
149
0.0
100
AcDbLayout
  1
Layout2
 70
     1
 71
     2
 10
0.0
 20
0.0
 11
0.0
 21
0.0
 12
0.0
 22
0.0
 32
0.0
 14
0.0
 24
0.0
 34
0.0
 15
0.0
 25
0.0
 35
0.0
146
0.0
 13
0.0
 23
0.0
 33
0.0
 16
1.0
 26
0.0
 36
0.0
 17
0.0
 27
1.0
 37
0.0
 76
     0
330
23
  0
LAYOUT
  5
22
102
{ACAD_REACTORS
330
1A
102
}
330
1A
100
AcDbPlotSettings
  1

  2
none_device
  4
Letter_(8.50_x_11.00_Inches)
  6

 40
6.35
 41
6.35
 42
6.35000508
 43
6.35000508
 44
215.9
 45
279.4
 46
0.0
 47
0.0
 48
0.0
 49
0.0
140
0.0
141
0.0
142
1.0
143
1.0
 70
  1712
 72
     1
 73
     0
 74
     0
  7

 75
     0
147
1.0
148
0.0
149
0.0
100
AcDbLayout
  1
Model
 70
     1
 71
     0
 10
0.0
 20
0.0
 11
420.0
 21
297.0
 12
0.0
 22
0.0
 32
0.0
 14
0.0
 24
0.0
 34
0.0
 15
420.0
 25
297.0
 35
0.0
146
0.0
 13
0.0
 23
0.0
 33
0.0
 16
1.0
 26
0.0
 36
0.0
 17
0.0
 27
1.0
 37
0.0
 76
     0
330
1F
331
29
  0
MLINESTYLE
  5
18
102
{ACAD_REACTORS
330
17
102
}
330
17
100
AcDbMlineStyle
  2
Standard
 70
     0
  3

 62
   256
 51
90.0
 52
90.0
 71
     2
 49
0.5
 62
   256
  6
BYLAYER
 49
-0.5
 62
   256
  6
BYLAYER
  0
ACDBPLACEHOLDER
  5
F
102
{ACAD_REACTORS
330
E
102
}
330
E
  0
SCALE
  5
48
102
{ACAD_REACTORS
330
47
102
}
330
47
100
AcDbScale
 70
     0
300
1:1
140
1.0
141
1.0
290
     1
  0
SCALE
  5
49
102
{ACAD_REACTORS
330
47
102
}
330
47
100
AcDbScale
 70
     0
300
1:2
140
1.0
141
2.0
290
     0
  0
SCALE
  5
4A
102
{ACAD_REACTORS
330
47
102
}
330
47
100
AcDbScale
 70
     0
300
1:4
140
1.0
141
4.0
290
     0
  0
SCALE
  5
4B
102
{ACAD_REACTORS
330
47
102
}
330
47
100
AcDbScale
 70
     0
300
1:5
140
1.0
141
5.0
290
     0
  0
SCALE
  5
4C
102
{ACAD_REACTORS
330
47
102
}
330
47
100
AcDbScale
 70
     0
300
1:8
140
1.0
141
8.0
290
     0
  0
SCALE
  5
4D
102
{ACAD_REACTORS
330
47
102
}
330
47
100
AcDbScale
 70
     0
300
1:10
140
1.0
141
10.0
290
     0
  0
SCALE
  5
4E
102
{ACAD_REACTORS
330
47
102
}
330
47
100
AcDbScale
 70
     0
300
1:16
140
1.0
141
16.0
290
     0
  0
SCALE
  5
4F
102
{ACAD_REACTORS
330
47
102
}
330
47
100
AcDbScale
 70
     0
300
1:20
140
1.0
141
20.0
290
     0
  0
SCALE
  5
50
102
{ACAD_REACTORS
330
47
102
}
330
47
100
AcDbScale
 70
     0
300
1:30
140
1.0
141
30.0
290
     0
  0
SCALE
  5
51
102
{ACAD_REACTORS
330
47
102
}
330
47
100
AcDbScale
 70
     0
300
1:40
140
1.0
141
40.0
290
     0
  0
SCALE
  5
52
102
{ACAD_REACTORS
330
47
102
}
330
47
100
AcDbScale
 70
     0
300
1:50
140
1.0
141
50.0
290
     0
  0
SCALE
  5
53
102
{ACAD_REACTORS
330
47
102
}
330
47
100
AcDbScale
 70
     0
300
1:100
140
1.0
141
100.0
290
     0
  0
SCALE
  5
54
102
{ACAD_REACTORS
330
47
102
}
330
47
100
AcDbScale
 70
     0
300
2:1
140
2.0
141
1.0
290
     0
  0
SCALE
  5
55
102
{ACAD_REACTORS
330
47
102
}
330
47
100
AcDbScale
 70
     0
300
4:1
140
4.0
141
1.0
290
     0
  0
SCALE
  5
56
102
{ACAD_REACTORS
330
47
102
}
330
47
100
AcDbScale
 70
     0
300
8:1
140
8.0
141
1.0
290
     0
  0
SCALE
  5
57
102
{ACAD_REACTORS
330
47
102
}
330
47
100
AcDbScale
 70
     0
300
10:1
140
10.0
141
1.0
290
     0
  0
SCALE
  5
58
102
{ACAD_REACTORS
330
47
102
}
330
47
100
AcDbScale
 70
     0
300
100:1
140
100.0
141
1.0
290
     0
  0
SCALE
  5
59
102
{ACAD_REACTORS
330
47
102
}
330
47
100
AcDbScale
 70
     0
300
1/128" = 1'-0"
140
0.0078125
141
12.0
290
     0
  0
SCALE
  5
5A
102
{ACAD_REACTORS
330
47
102
}
330
47
100
AcDbScale
 70
     0
300
1/64" = 1'-0"
140
0.015625
141
12.0
290
     0
  0
SCALE
  5
5B
102
{ACAD_REACTORS
330
47
102
}
330
47
100
AcDbScale
 70
     0
300
1/32" = 1'-0"
140
0.03125
141
12.0
290
     0
  0
SCALE
  5
5C
102
{ACAD_REACTORS
330
47
102
}
330
47
100
AcDbScale
 70
     0
300
1/16" = 1'-0"
140
0.0625
141
12.0
290
     0
  0
SCALE
  5
5D
102
{ACAD_REACTORS
330
47
102
}
330
47
100
AcDbScale
 70
     0
300
3/32" = 1'-0"
140
0.09375
141
12.0
290
     0
  0
SCALE
  5
5E
102
{ACAD_REACTORS
330
47
102
}
330
47
100
AcDbScale
 70
     0
300
1/8" = 1'-0"
140
0.125
141
12.0
290
     0
  0
SCALE
  5
5F
102
{ACAD_REACTORS
330
47
102
}
330
47
100
AcDbScale
 70
     0
300
3/16" = 1'-0"
140
0.1875
141
12.0
290
     0
  0
SCALE
  5
60
102
{ACAD_REACTORS
330
47
102
}
330
47
100
AcDbScale
 70
     0
300
1/4" = 1'-0"
140
0.25
141
12.0
290
     0
  0
SCALE
  5
61
102
{ACAD_REACTORS
330
47
102
}
330
47
100
AcDbScale
 70
     0
300
3/8" = 1'-0"
140
0.375
141
12.0
290
     0
  0
SCALE
  5
62
102
{ACAD_REACTORS
330
47
102
}
330
47
100
AcDbScale
 70
     0
300
1/2" = 1'-0"
140
0.5
141
12.0
290
     0
  0
SCALE
  5
63
102
{ACAD_REACTORS
330
47
102
}
330
47
100
AcDbScale
 70
     0
300
3/4" = 1'-0"
140
0.75
141
12.0
290
     0
  0
SCALE
  5
64
102
{ACAD_REACTORS
330
47
102
}
330
47
100
AcDbScale
 70
     0
300
1" = 1'-0"
140
1.0
141
12.0
290
     0
  0
SCALE
  5
65
102
{ACAD_REACTORS
330
47
102
}
330
47
100
AcDbScale
 70
     0
300
1-1/2" = 1'-0"
140
1.5
141
12.0
290
     0
  0
SCALE
  5
66
102
{ACAD_REACTORS
330
47
102
}
330
47
100
AcDbScale
 70
     0
300
3" = 1'-0"
140
3.0
141
12.0
290
     0
  0
SCALE
  5
67
102
{ACAD_REACTORS
330
47
102
}
330
47
100
AcDbScale
 70
     0
300
6" = 1'-0"
140
6.0
141
12.0
290
     0
  0
SCALE
  5
68
102
{ACAD_REACTORS
330
47
102
}
330
47
100
AcDbScale
 70
     0
300
1'-0" = 1'-0"
140
12.0
141
12.0
290
     0
  0
ENDSEC
  0
EOF
